<?xml version="1.0" encoding="UTF-8" standalone="no"?>
<!DOCTYPE svg PUBLIC "-//W3C//DTD SVG 1.1//EN" "http://www.w3.org/Graphics/SVG/1.1/DTD/svg11.dtd">
<svg xmlns="http://www.w3.org/2000/svg" version="1.1" viewBox="0.00 0.00 1024.00 1024.00">
<g stroke-width="2.00" fill="none" stroke-linecap="butt">
<path stroke="#797066" vector-effect="non-scaling-stroke" d="
  M 273.01 402.54
  C 293.12 351.06 331.73 307.85 378.58 279.20
  C 439.33 242.05 513.98 232.14 581.88 251.59
  Q 630.60 265.56 672.41 297.55
  C 711.65 327.58 740.07 367.64 756.70 414.14
  A 2.09 2.08 -24.8 0 0 759.70 415.24
  L 761.28 414.32
  A 2.45 2.45 0.0 0 0 762.40 411.48
  Q 759.64 402.60 756.92 396.32
  Q 719.59 310.35 635.90 266.36
  C 583.40 238.76 524.93 228.92 466.90 239.03
  Q 428.57 245.71 391.45 264.43
  Q 372.69 273.89 353.01 288.71
  C 314.66 317.59 282.95 356.25 266.45 401.08
  A 2.76 2.76 0.0 0 0 268.43 404.72
  L 268.76 404.80
  A 3.69 3.69 0.0 0 0 273.01 402.54"
/>
<path stroke="#797066" vector-effect="non-scaling-stroke" d="
  M 496.70 262.00
  A 0.71 0.71 0.0 0 0 495.95 261.33
  L 490.92 261.57
  A 0.71 0.71 0.0 0 0 490.25 262.32
  L 491.75 292.61
  A 0.71 0.71 0.0 0 0 492.50 293.28
  L 507.73 292.53
  A 0.71 0.71 0.0 0 0 508.40 291.78
  L 508.20 287.59
  A 0.71 0.71 0.0 0 0 507.45 286.92
  L 498.67 287.35
  A 0.71 0.71 0.0 0 1 497.92 286.68
  L 496.70 262.00"
/>
<path stroke="#797066" vector-effect="non-scaling-stroke" d="
  M 550.45 294.66
  L 547.18 282.58
  A 0.07 0.06 72.1 0 1 547.21 282.51
  Q 553.57 278.29 552.54 269.92
  Q 551.84 264.23 545.90 263.05
  Q 541.61 262.20 534.97 261.62
  A 0.80 0.79 -83.2 0 0 534.11 262.30
  L 529.98 292.24
  A 0.75 0.74 -83.4 0 0 530.65 293.09
  L 535.60 293.51
  A 0.74 0.73 -83.1 0 0 536.40 292.88
  L 537.75 283.05
  A 0.75 0.74 -86.7 0 1 538.46 282.41
  Q 539.60 282.37 540.46 282.65
  A 0.95 0.93 1.9 0 1 541.08 283.30
  L 544.05 294.26
  A 1.40 1.38 84.5 0 0 545.27 295.28
  L 549.62 295.66
  A 0.79 0.79 0.0 0 0 550.45 294.66"
/>
<path stroke="#797066" vector-effect="non-scaling-stroke" d="
  M 476.8713 264.3153
  A 0.86 0.86 0.0 0 0 475.8848 263.6039
  L 471.3045 264.3457
  A 0.86 0.86 0.0 0 0 470.5931 265.3322
  L 475.4087 295.0647
  A 0.86 0.86 0.0 0 0 476.3952 295.7761
  L 480.9755 295.0343
  A 0.86 0.86 0.0 0 0 481.6869 294.0478
  L 476.8713 264.3153"
/>
<path stroke="#797066" vector-effect="non-scaling-stroke" d="
  M 570.28 282.07
  A 0.77 0.77 0.0 0 1 569.70 281.15
  L 570.92 275.63
  A 0.77 0.77 0.0 0 1 571.84 275.05
  L 580.21 276.91
  A 0.77 0.77 0.0 0 0 581.10 276.42
  L 582.53 272.38
  A 0.77 0.77 0.0 0 0 582.01 271.38
  L 567.61 267.43
  A 0.77 0.77 0.0 0 0 566.67 267.97
  L 558.75 296.87
  A 0.77 0.77 0.0 0 0 559.29 297.81
  L 574.36 301.95
  A 0.77 0.77 0.0 0 0 575.32 301.37
  L 576.05 298.07
  A 0.77 0.77 0.0 0 0 575.56 297.17
  L 566.56 293.98
  A 0.77 0.77 0.0 0 1 566.08 293.05
  L 567.62 287.43
  A 0.77 0.77 0.0 0 1 568.56 286.89
  L 575.10 288.69
  A 0.77 0.77 0.0 0 0 576.03 288.20
  L 577.33 284.52
  A 0.77 0.77 0.0 0 0 576.77 283.51
  L 570.28 282.07"
/>
<path stroke="#797066" vector-effect="non-scaling-stroke" d="
  M 448.26 269.98
  Q 446.92 270.36 445.17 270.83
  A 1.05 1.04 81.1 0 0 444.40 271.89
  L 445.91 302.20
  A 1.08 1.08 0.0 0 0 447.27 303.19
  L 451.09 302.15
  A 1.29 1.29 0.0 0 0 452.04 300.89
  L 451.95 296.15
  A 1.02 1.01 79.8 0 1 452.62 295.18
  Q 453.02 294.99 455.18 294.37
  Q 457.35 293.76 457.78 293.71
  A 1.02 1.01 68.5 0 1 458.87 294.19
  L 461.28 298.27
  A 1.29 1.29 0.0 0 0 462.75 298.84
  L 466.55 297.72
  A 1.08 1.08 0.0 0 0 467.18 296.17
  L 452.55 269.58
  A 1.05 1.04 67.2 0 0 451.34 269.08
  Q 449.61 269.60 448.26 269.98"
/>
<path stroke="#797066" vector-effect="non-scaling-stroke" d="
  M 420.56 279.66
  Q 416.87 281.21 412.42 283.14
  A 1.07 1.06 66.4 0 0 411.87 284.56
  L 413.27 287.75
  A 1.15 1.14 -23.7 0 0 414.77 288.33
  L 418.83 286.54
  A 0.83 0.82 65.8 0 1 419.92 286.96
  L 429.66 309.06
  A 0.73 0.73 0.0 0 0 430.54 309.46
  Q 431.67 309.11 432.80 308.63
  Q 433.92 308.16 434.96 307.59
  A 0.73 0.73 0.0 0 0 435.29 306.68
  L 426.24 284.29
  A 0.83 0.82 68.5 0 1 426.70 283.22
  L 430.81 281.55
  A 1.15 1.14 -22.1 0 0 431.44 280.08
  L 430.13 276.85
  A 1.07 1.06 67.8 0 0 428.74 276.25
  Q 424.25 278.10 420.56 279.66"
/>
<path stroke="#797066" vector-effect="non-scaling-stroke" d="
  M 603.30 303.01
  L 600.07 300.68
  A 0.80 0.80 0.0 0 0 599.01 300.79
  C 597.13 302.81 595.83 305.27 592.60 303.46
  C 590.79 302.44 591.38 300.05 591.92 298.42
  Q 593.86 292.56 596.10 288.09
  C 597.00 286.29 598.17 284.56 600.31 284.72
  C 602.13 284.87 604.70 286.35 604.19 288.55
  Q 603.98 289.46 603.62 290.64
  A 1.17 1.17 0.0 0 0 604.18 292.01
  Q 607.64 293.88 609.08 290.69
  C 612.25 283.66 606.58 279.32 600.39 278.29
  C 595.28 277.44 592.08 280.57 590.10 284.89
  Q 587.25 291.11 585.62 296.39
  Q 583.16 304.36 589.70 308.27
  C 595.68 311.85 601.18 310.79 603.55 303.81
  A 0.71 0.70 27.8 0 0 603.30 303.01"
/>
<path stroke="#797066" vector-effect="non-scaling-stroke" d="
  M 628.7470 292.4321
  A 0.53 0.53 0.0 0 0 628.5404 291.7116
  L 623.7300 289.0452
  A 0.53 0.53 0.0 0 0 623.0095 289.2518
  L 608.5330 315.3679
  A 0.53 0.53 0.0 0 0 608.7396 316.0884
  L 613.5500 318.7548
  A 0.53 0.53 0.0 0 0 614.2705 318.5482
  L 628.7470 292.4321"
/>
<path stroke="#797066" vector-effect="non-scaling-stroke" d="
  M 396.34 306.03
  L 389.43 296.32
  A 1.02 1.02 0.0 0 0 388.01 296.08
  L 384.71 298.43
  A 0.85 0.85 0.0 0 0 384.47 299.55
  L 399.44 325.47
  A 0.92 0.91 -32.5 0 0 400.77 325.76
  L 404.31 323.24
  A 0.94 0.94 0.0 0 0 404.61 322.04
  L 400.02 312.89
  A 0.96 0.95 80.2 0 1 400.99 311.51
  Q 402.11 311.66 402.64 312.10
  Q 407.37 316.09 410.86 318.69
  A 0.36 0.35 -41.1 0 0 411.24 318.71
  L 416.93 315.43
  A 0.26 0.26 0.0 0 0 416.95 315.00
  L 402.49 304.56
  A 1.19 1.19 0.0 0 1 401.99 303.63
  L 401.26 289.14
  A 0.07 0.07 0.0 0 0 401.16 289.08
  L 396.02 291.66
  A 0.25 0.25 0.0 0 0 395.89 291.88
  L 396.59 305.94
  A 0.14 0.14 0.0 0 1 396.34 306.03"
/>
<path stroke="#797066" vector-effect="non-scaling-stroke" d="
  M 635.36 319.84
  Q 639.91 324.60 645.02 323.29
  C 649.43 322.15 653.25 317.17 653.74 312.92
  Q 654.32 307.92 650.02 304.92
  Q 646.38 302.38 640.73 299.44
  A 0.42 0.42 0.0 0 0 640.19 299.58
  L 623.80 324.33
  A 0.89 0.89 0.0 0 0 624.05 325.57
  L 626.99 327.52
  A 1.32 1.31 -53.8 0 0 628.73 327.25
  L 634.65 319.87
  A 0.47 0.47 0.0 0 1 635.36 319.84"
/>
<path stroke="#797066" vector-effect="non-scaling-stroke" d="
  M 381.69 326.53
  C 382.85 327.86 384.13 331.41 382.33 333.07
  Q 379.35 335.82 376.56 332.77
  Q 371.07 326.77 367.76 319.48
  C 366.65 317.04 368.89 314.97 371.35 315.30
  A 1.11 1.08 -18.1 0 1 371.98 315.61
  L 374.33 317.95
  A 1.51 1.50 45.7 0 0 376.43 317.98
  L 378.96 315.55
  A 0.82 0.82 0.0 0 0 379.07 314.50
  C 375.64 309.33 370.87 307.21 365.53 311.28
  Q 358.75 316.45 362.56 324.11
  Q 365.00 329.02 371.45 336.51
  C 374.73 340.32 379.28 341.69 383.49 339.26
  Q 392.98 333.78 387.31 323.81
  A 1.15 1.15 0.0 0 0 385.81 323.34
  L 382.00 325.19
  A 0.88 0.88 0.0 0 0 381.69 326.53"
/>
<path stroke="#797066" vector-effect="non-scaling-stroke" d="
  M 666.34 396.56
  A 2.52 2.51 -30.6 0 0 667.30 392.84
  C 642.30 357.46 606.88 332.33 565.38 319.62
  C 528.41 308.30 487.45 309.99 451.13 322.42
  C 406.80 337.58 369.21 368.02 345.30 408.54
  Q 339.98 417.55 338.28 421.85
  A 2.70 2.70 0.0 0 0 339.99 425.41
  L 340.14 425.46
  A 3.48 3.47 -67.9 0 0 344.28 423.71
  C 370.46 371.73 418.51 333.88 475.64 322.24
  C 531.27 310.90 588.84 325.87 631.84 362.87
  Q 646.32 375.33 661.78 395.60
  A 3.57 3.56 -31.6 0 0 666.18 396.64
  L 666.34 396.56"
/>
<path stroke="#797066" vector-effect="non-scaling-stroke" d="
  M 675.39 333.13
  L 678.03 330.48
  A 1.46 1.46 0.0 0 0 677.91 328.31
  L 666.72 319.31
  A 0.76 0.75 41.6 0 0 665.72 319.36
  Q 654.82 330.08 645.51 341.23
  A 0.72 0.72 0.0 0 0 645.61 342.25
  L 656.75 351.20
  A 1.61 1.60 -48.1 0 0 658.89 351.08
  L 660.78 349.20
  A 1.32 1.32 0.0 0 0 660.67 347.24
  L 654.29 342.12
  A 1.02 1.02 0.0 0 1 654.21 340.60
  L 658.12 336.69
  A 1.02 1.02 0.0 0 1 659.47 336.61
  L 663.95 340.21
  A 1.46 1.46 0.0 0 0 666.01 339.99
  L 667.80 337.77
  A 0.80 0.79 -51.5 0 0 667.68 336.66
  L 662.92 332.84
  A 1.18 1.17 -48.1 0 1 662.83 331.09
  L 666.42 327.50
  A 1.36 1.36 0.0 0 1 668.35 327.50
  L 673.98 333.13
  A 1.00 1.00 0.0 0 0 675.39 333.13"
/>
<path stroke="#797066" vector-effect="non-scaling-stroke" d="
  M 353.6877 333.4775
  A 9.34 9.34 0.0 0 0 340.4794 333.3623
  L 339.7805 334.0492
  A 9.34 9.34 0.0 0 0 339.6652 347.2574
  L 349.7723 357.5425
  A 9.34 9.34 0.0 0 0 362.9806 357.6577
  L 363.6795 356.9708
  A 9.34 9.34 0.0 0 0 363.7948 343.7626
  L 353.6877 333.4775"
/>
<path stroke="#797066" vector-effect="non-scaling-stroke" d="
  M 673.74 355.24
  Q 672.62 354.97 671.24 353.82
  A 0.94 0.94 0.0 0 0 670.35 353.65
  C 662.76 356.11 666.27 364.01 670.48 367.50
  C 676.91 372.83 685.31 366.28 685.42 359.25
  C 685.47 356.37 682.12 348.96 685.82 347.71
  Q 687.35 347.19 688.47 348.28
  C 690.04 349.81 690.28 351.47 688.68 353.12
  A 0.61 0.61 0.0 0 0 688.68 353.96
  Q 690.27 355.63 691.99 356.23
  A 1.39 1.37 -52.1 0 0 693.20 356.07
  C 700.50 351.17 690.75 338.11 682.67 342.19
  C 675.78 345.66 677.90 352.40 678.81 358.49
  Q 679.00 359.72 677.65 361.75
  A 1.56 1.54 5.7 0 1 676.92 362.34
  Q 674.12 363.43 672.60 360.57
  Q 671.42 358.34 673.96 356.14
  A 0.52 0.52 0.0 0 0 673.74 355.24"
/>
<path stroke="#797066" vector-effect="non-scaling-stroke" d="
  M 340.86 373.08
  C 338.71 377.05 336.01 375.71 332.92 373.51
  Q 328.23 370.18 322.90 365.01
  A 2.22 2.20 -53.9 0 1 322.50 362.37
  C 323.73 360.10 325.08 359.82 327.77 360.76
  Q 330.06 361.55 331.47 358.72
  A 1.67 1.66 -52.9 0 0 331.22 356.86
  C 322.95 347.70 311.85 361.74 317.81 368.54
  Q 322.58 373.98 329.17 378.82
  C 333.61 382.09 338.66 383.81 342.74 380.10
  Q 351.31 372.29 342.98 364.60
  A 1.20 1.20 0.0 0 0 341.71 364.37
  Q 340.24 364.96 338.92 366.32
  A 0.76 0.75 52.2 0 0 338.81 367.23
  L 340.82 370.72
  A 2.42 2.42 0.0 0 1 340.86 373.08"
/>
<path stroke="#606021" vector-effect="non-scaling-stroke" d="
  M 400.63 424.63
  A 0.78 0.77 -34.4 0 0 399.53 424.43
  L 390.17 431.08
  A 1.18 1.17 -30.7 0 0 389.79 432.55
  Q 393.35 439.91 399.30 445.73
  C 427.66 473.45 467.68 464.85 498.25 446.82
  Q 525.66 430.64 545.34 407.66
  C 551.80 400.11 578.86 364.61 557.17 359.76
  Q 551.36 358.46 545.48 358.82
  Q 529.91 359.76 512.75 364.77
  C 478.17 374.87 446.15 392.33 415.02 413.26
  Q 414.80 413.41 413.12 414.76
  A 1.38 1.38 0.0 0 0 412.74 416.42
  C 418.93 429.72 430.67 436.87 445.10 436.41
  C 452.96 436.16 459.01 434.36 467.71 431.76
  A 3.19 3.18 -30.3 0 1 470.90 432.59
  Q 473.45 435.20 473.91 439.93
  C 474.30 444.02 468.18 445.60 464.87 446.52
  C 441.77 452.93 419.89 450.67 404.80 430.47
  Q 402.31 427.13 400.63 424.63"
/>
<path stroke="#797066" vector-effect="non-scaling-stroke" d="
  M 702.0959 377.5460
  A 5.43 5.07 -96.6 0 0 697.6836 383.5227
  A 5.43 5.07 -96.6 0 0 703.3441 388.3340
  A 5.43 5.07 -96.6 0 0 707.7564 382.3573
  A 5.43 5.07 -96.6 0 0 702.0959 377.5460"
/>
<path stroke="#797066" vector-effect="non-scaling-stroke" d="
  M 304.1924 398.1522
  A 5.29 4.97 -156.4 0 0 307.0503 404.8243
  A 5.29 4.97 -156.4 0 0 313.8876 402.3878
  A 5.29 4.97 -156.4 0 0 311.0297 395.7157
  A 5.29 4.97 -156.4 0 0 304.1924 398.1522"
/>
<path stroke="#797066" vector-effect="non-scaling-stroke" d="
  M 519.28 547.50
  L 517.42 555.84
  A 1.21 1.18 -64.7 0 0 517.83 557.03
  Q 519.62 558.49 522.49 558.34
  C 526.18 558.15 532.96 557.89 534.03 554.71
  Q 534.97 551.89 535.32 550.02
  Q 538.92 530.51 543.16 513.20
  C 544.92 505.98 550.87 493.50 558.91 491.47
  C 565.50 489.81 566.09 494.67 565.11 499.59
  Q 563.85 505.98 557.76 533.51
  C 554.76 547.08 561.70 556.16 576.04 553.48
  Q 587.23 551.39 594.77 542.49
  Q 595.85 541.22 598.43 537.74
  A 0.46 0.46 0.0 0 1 599.12 537.68
  Q 599.86 538.40 600.83 539.71
  C 608.11 549.57 622.43 550.39 633.43 546.66
  Q 647.45 541.91 656.75 530.58
  A 0.32 0.31 59.8 0 1 657.30 530.73
  C 658.49 537.62 663.38 541.76 670.49 541.94
  C 681.76 542.23 690.68 535.52 696.73 526.45
  A 0.33 0.32 -34.8 0 1 697.32 526.55
  C 699.58 535.57 707.19 538.31 715.90 536.67
  C 725.30 534.89 733.59 528.37 738.67 520.18
  A 0.38 0.37 -43.8 0 1 739.32 520.19
  C 745.42 531.31 758.19 533.65 769.59 530.06
  C 784.94 525.24 793.44 513.81 798.84 498.29
  A 0.84 0.84 0.0 0 1 799.62 497.72
  Q 807.85 497.48 810.29 498.24
  C 817.56 500.51 819.45 507.70 818.57 514.80
  Q 817.95 519.80 814.85 525.51
  C 804.91 543.86 782.21 549.10 763.26 551.29
  Q 685.69 560.22 587.95 570.66
  Q 532.22 576.62 482.54 584.63
  Q 439.48 591.58 397.25 607.49
  Q 389.24 610.50 382.96 613.70
  A 2.39 2.38 -14.5 0 0 381.66 615.90
  Q 381.80 620.65 384.57 625.21
  Q 386.82 628.89 391.09 627.16
  Q 398.45 624.16 412.57 618.96
  C 444.67 607.13 478.49 599.41 512.69 595.16
  C 596.73 584.73 649.48 579.20 763.75 566.76
  C 779.92 565.00 796.89 560.51 810.46 551.68
  Q 820.53 545.13 827.56 534.25
  Q 837.22 519.30 833.42 502.29
  C 830.70 490.11 819.82 483.01 807.72 482.33
  Q 807.69 482.33 803.09 482.17
  A 0.56 0.55 -89.0 0 1 802.55 481.60
  C 802.87 472.46 801.75 464.19 795.89 456.96
  C 788.33 447.63 777.27 445.41 766.08 449.10
  C 758.15 451.71 751.77 457.25 746.81 464.36
  Q 734.20 482.46 734.28 505.46
  A 1.83 1.79 59.0 0 1 734.09 506.27
  C 731.34 511.79 726.88 519.26 720.75 521.21
  C 715.67 522.82 711.96 520.13 712.32 514.75
  Q 712.73 508.70 714.42 501.22
  Q 728.40 439.42 733.96 414.23
  Q 734.65 411.10 733.49 409.85
  Q 732.12 408.37 729.26 408.54
  C 725.87 408.74 718.09 409.14 717.37 412.35
  Q 698.48 497.89 698.42 498.15
  Q 696.50 507.41 694.03 511.68
  Q 689.72 519.14 684.18 523.90
  C 681.49 526.22 674.38 528.74 673.88 522.67
  Q 673.52 518.36 674.66 513.18
  Q 680.72 485.47 695.59 418.06
  C 696.22 415.20 692.83 414.05 690.49 414.24
  Q 687.74 414.47 680.89 415.64
  A 1.75 1.73 -70.9 0 0 680.06 416.05
  Q 678.85 417.14 678.52 418.57
  Q 672.00 446.98 663.32 487.10
  Q 661.16 497.08 658.85 506.33
  Q 657.91 510.12 655.03 514.49
  C 648.16 524.93 636.37 534.15 623.55 533.19
  Q 614.67 532.53 611.61 524.38
  A 1.33 1.33 0.0 0 1 612.62 522.60
  Q 631.04 519.31 643.08 505.65
  C 650.33 497.43 654.75 484.89 650.50 474.34
  C 646.37 464.07 635.03 462.77 625.73 466.03
  Q 613.66 470.27 605.78 481.28
  Q 591.98 500.53 593.60 523.69
  A 2.41 2.32 -36.3 0 1 593.40 524.85
  C 591.30 529.62 583.71 541.44 576.93 538.50
  C 574.26 537.35 574.37 533.87 574.98 531.24
  Q 579.22 512.81 582.02 499.27
  C 583.91 490.17 585.36 478.49 575.03 474.75
  C 569.07 472.58 562.13 475.11 556.68 478.67
  Q 552.06 481.70 550.03 483.59
  A 0.30 0.29 -15.6 0 1 549.54 483.32
  L 560.03 436.27
  A 0.96 0.72 55.5 0 0 560.04 436.04
  Q 559.53 432.86 556.70 432.77
  Q 552.75 432.64 544.37 434.85
  A 1.12 1.10 3.7 0 0 543.62 435.50
  Q 542.86 437.35 542.45 439.24
  Q 532.20 486.92 524.02 522.54
  C 523.18 526.18 522.28 527.79 520.12 530.62
  Q 512.61 540.41 502.15 547.14
  Q 498.92 549.22 494.20 550.14
  C 485.94 551.76 479.97 547.37 478.81 538.97
  C 477.62 530.28 480.03 520.68 483.36 512.74
  C 486.14 506.12 491.43 498.12 499.09 497.24
  Q 500.71 497.06 501.78 497.74
  C 507.46 501.40 496.65 508.70 501.82 513.52
  C 505.12 516.59 511.25 515.01 514.27 512.57
  C 519.15 508.64 519.45 499.96 518.45 494.00
  Q 516.63 483.29 505.99 482.14
  C 492.47 480.68 479.46 489.83 472.53 501.09
  Q 462.19 517.91 461.62 538.04
  A 2.98 2.92 61.4 0 1 461.22 539.45
  Q 456.26 548.01 450.26 553.23
  C 448.08 555.12 443.22 557.00 440.42 555.10
  C 431.32 548.91 451.26 512.57 455.26 505.45
  Q 458.22 500.20 456.71 495.55
  C 456.06 493.55 454.61 489.08 451.46 490.65
  C 442.51 495.12 434.26 499.33 424.03 498.21
  A 0.74 0.73 9.5 0 1 423.39 497.32
  L 424.46 492.53
  A 1.53 1.50 36.2 0 0 424.28 491.45
  Q 422.74 488.89 418.97 488.99
  C 415.37 489.10 409.75 489.79 407.88 492.67
  Q 406.40 494.95 404.93 502.55
  A 2.44 2.43 -47.1 0 0 404.97 503.66
  Q 405.55 505.72 408.42 507.86
  A 1.70 1.70 0.0 0 1 409.09 509.43
  C 408.10 517.91 405.80 525.91 403.37 535.62
  Q 400.34 547.71 393.09 558.02
  C 391.00 560.99 385.09 566.78 381.53 563.02
  C 379.45 560.83 380.60 554.54 381.26 551.51
  Q 390.06 511.39 392.13 502.33
  C 394.09 493.73 383.23 497.28 379.34 498.34
  C 376.59 499.09 376.29 501.68 375.35 503.96
  A 0.49 0.49 0.0 0 1 374.58 504.15
  Q 368.31 498.89 360.21 500.01
  C 336.62 503.27 325.53 535.21 323.90 555.20
  C 323.21 563.74 324.18 575.33 330.43 581.04
  C 341.44 591.10 357.47 580.58 364.49 571.01
  A 0.46 0.46 0.0 0 1 365.32 571.20
  Q 365.67 573.19 367.17 574.84
  C 373.62 581.94 384.54 580.38 391.98 575.43
  C 411.73 562.27 416.87 535.24 421.00 513.95
  A 1.30 1.29 4.0 0 1 422.21 512.90
  L 434.44 512.29
  A 0.30 0.30 0.0 0 1 434.72 512.72
  Q 428.60 524.48 424.47 535.66
  C 420.86 545.43 417.57 562.56 428.57 568.72
  C 440.01 575.13 454.51 567.26 461.64 557.88
  Q 463.67 555.22 464.59 554.01
  A 0.37 0.37 0.0 0 1 465.22 554.09
  C 470.42 566.30 484.72 567.66 495.78 563.99
  Q 509.15 559.55 518.70 547.23
  A 0.33 0.33 0.0 0 1 519.28 547.50"
/>
<path stroke="#797066" vector-effect="non-scaling-stroke" d="
  M 301.89 515.35
  Q 303.26 514.24 307.75 510.98
  C 324.03 499.13 331.61 480.35 326.35 460.55
  C 320.00 436.61 294.20 425.18 271.25 426.18
  Q 243.00 427.40 223.52 446.18
  C 209.50 459.69 201.72 479.44 208.21 498.15
  C 211.79 508.46 219.35 516.72 229.90 520.09
  C 234.36 521.51 236.46 520.19 237.52 515.55
  Q 238.52 511.21 238.66 508.09
  A 1.69 1.68 -74.7 0 0 237.77 506.52
  Q 221.81 497.93 223.12 481.06
  C 223.75 472.83 228.42 464.12 233.99 458.45
  Q 251.45 440.70 276.97 441.66
  Q 292.37 442.23 303.26 453.24
  C 315.78 465.89 312.54 485.05 301.12 496.42
  C 294.80 502.71 285.84 506.37 277.00 507.75
  A 1.34 1.33 -82.9 0 0 275.96 508.57
  Q 274.40 512.37 274.33 516.25
  C 274.29 518.58 274.66 519.74 276.76 520.55
  C 289.77 525.53 299.15 535.35 297.99 550.25
  C 297.24 559.96 292.71 567.80 286.31 575.14
  C 272.53 590.95 250.69 596.23 230.70 591.06
  C 215.31 587.08 202.96 573.80 209.48 557.29
  C 211.84 551.30 216.52 548.40 222.37 544.41
  A 2.01 2.01 0.0 0 0 222.97 541.75
  L 217.12 531.60
  A 2.02 2.02 0.0 0 0 214.53 530.78
  C 199.64 537.61 190.44 550.95 191.03 567.31
  C 192.02 594.74 219.21 608.95 243.48 608.81
  C 265.31 608.68 288.20 600.01 301.68 583.07
  C 314.60 566.82 320.19 544.43 309.71 525.92
  C 307.71 522.38 304.05 519.19 301.78 516.31
  A 0.69 0.68 -38.7 0 1 301.89 515.35"
/>
<path stroke="#797066" vector-effect="non-scaling-stroke" d="
  M 279.83 461.73
  C 277.61 457.35 270.73 457.74 266.69 458.43
  Q 263.88 458.90 262.94 462.46
  C 254.15 495.66 246.34 529.12 237.12 566.67
  C 236.60 568.79 235.93 570.40 237.74 571.75
  C 240.81 574.05 246.23 572.81 249.90 572.12
  Q 253.32 571.48 254.23 567.70
  Q 261.14 539.30 279.33 466.03
  Q 279.49 465.41 279.97 462.72
  A 1.54 1.53 -53.2 0 0 279.83 461.73"
/>
<path stroke="#797066" vector-effect="non-scaling-stroke" d="
  M 269.73 625.53
  A 2.14 2.13 -23.7 0 0 268.63 628.33
  Q 276.10 645.64 280.29 653.00
  Q 304.28 695.23 342.10 727.19
  C 357.85 740.50 375.36 751.89 393.78 761.30
  C 426.26 777.91 461.78 787.02 498.27 789.11
  C 560.25 792.66 623.60 772.26 673.20 734.50
  Q 744.04 680.58 768.44 592.81
  A 2.04 2.04 0.0 0 0 766.65 590.24
  L 764.17 590.02
  A 2.46 2.46 0.0 0 0 761.58 591.83
  Q 754.50 617.91 741.83 643.15
  C 733.42 659.92 722.88 675.61 711.72 688.48
  Q 700.66 701.24 692.30 709.33
  Q 660.30 740.29 619.75 758.50
  Q 594.98 769.63 571.22 775.44
  C 473.61 799.30 374.98 763.40 311.36 686.88
  Q 287.72 658.44 274.49 625.73
  A 2.04 2.03 67.0 0 0 271.78 624.63
  L 269.73 625.53"
/>
<path stroke="#797066" vector-effect="non-scaling-stroke" d="
  M 726.89 608.16
  A 4.81 4.81 0.0 0 0 722.08 603.35
  A 4.81 4.81 0.0 0 0 717.27 608.16
  A 4.81 4.81 0.0 0 0 722.08 612.97
  A 4.81 4.81 0.0 0 0 726.89 608.16"
/>
<path stroke="#797066" vector-effect="non-scaling-stroke" d="
  M 679.39 606.38
  A 3.04 3.04 0.0 0 0 675.51 607.66
  Q 642.86 665.09 581.87 691.35
  Q 564.29 698.92 546.56 702.08
  C 530.19 705.01 511.76 706.22 494.47 704.44
  Q 435.21 698.35 390.26 658.99
  C 378.26 648.49 368.27 636.17 358.86 623.19
  C 357.20 620.89 354.03 620.66 352.89 623.48
  A 1.43 1.40 46.1 0 0 352.88 624.47
  Q 353.55 626.28 357.52 631.73
  Q 370.52 649.56 383.17 660.81
  C 397.72 673.75 412.66 684.47 430.53 693.08
  C 475.28 714.63 527.74 718.14 575.14 700.64
  Q 625.08 682.21 659.25 642.26
  Q 671.41 628.05 680.78 610.04
  A 2.62 2.61 25.7 0 0 679.52 606.44
  L 679.39 606.38"
/>
<path stroke="#797066" vector-effect="non-scaling-stroke" d="
  M 312.0226 627.2241
  A 5.15 4.91 -118.5 0 0 310.1650 634.0928
  A 5.15 4.91 -118.5 0 0 316.9374 636.2759
  A 5.15 4.91 -118.5 0 0 318.7950 629.4072
  A 5.15 4.91 -118.5 0 0 312.0226 627.2241"
/>
<path stroke="#797066" vector-effect="non-scaling-stroke" d="
  M 696.83 641.36
  L 686.47 639.93
  A 1.41 1.41 0.0 0 0 685.11 640.54
  L 683.04 643.67
  A 0.88 0.88 0.0 0 0 683.54 645.00
  Q 691.66 647.19 699.49 647.65
  A 1.51 1.48 -23.7 0 1 700.31 647.96
  L 711.00 656.00
  A 0.69 0.69 0.0 0 0 712.00 655.83
  L 714.87 651.50
  A 0.63 0.62 33.8 0 0 714.69 650.64
  Q 709.25 647.00 707.08 644.66
  Q 702.66 639.91 694.57 627.26
  A 1.03 1.03 0.0 0 0 692.73 627.47
  L 691.21 631.75
  A 2.08 2.07 37.3 0 0 691.47 633.64
  L 696.89 641.26
  A 0.06 0.06 0.0 0 1 696.83 641.36"
/>
<path stroke="#797066" vector-effect="non-scaling-stroke" d="
  M 723.84 645.90
  A 0.41 0.41 0.0 0 0 724.56 645.89
  Q 725.87 643.51 726.05 640.79
  A 0.95 0.94 -72.1 0 0 725.61 639.92
  Q 722.17 637.74 718.53 637.16
  A 1.04 1.04 0.0 0 0 717.54 637.58
  C 715.07 640.97 719.44 642.81 721.98 643.30
  A 0.92 0.87 -8.5 0 1 722.59 643.73
  L 723.84 645.90"
/>
<path stroke="#797066" vector-effect="non-scaling-stroke" d="
  M 345.42 651.76
  L 324.45 670.64
  A 1.65 1.65 0.0 0 0 324.33 672.97
  L 328.85 677.99
  A 12.20 11.60 -42.0 0 0 345.68 678.44
  L 350.97 673.68
  A 12.20 11.60 -42.0 0 0 352.27 656.90
  L 347.75 651.88
  A 1.65 1.65 0.0 0 0 345.42 651.76"
/>
<path stroke="#797066" vector-effect="non-scaling-stroke" d="
  M 701.07 663.03
  L 694.60 670.23
  A 0.85 0.84 40.2 0 1 693.44 670.32
  L 675.15 655.64
  A 1.24 1.24 0.0 0 0 673.22 656.14
  Q 672.52 657.86 671.15 658.62
  A 0.94 0.93 -40.1 0 0 671.01 660.17
  L 694.29 678.87
  A 0.57 0.56 38.8 0 0 695.08 678.79
  L 705.02 666.41
  A 0.43 0.42 38.9 0 0 704.95 665.81
  L 701.45 663.00
  A 0.28 0.27 -48.8 0 0 701.07 663.03"
/>
<path stroke="#797066" vector-effect="non-scaling-stroke" d="
  M 676.36 697.20
  A 0.68 0.68 0.0 0 0 677.33 697.21
  L 687.25 687.29
  A 0.68 0.68 0.0 0 0 687.26 686.34
  L 684.41 683.37
  A 0.68 0.68 0.0 0 0 683.45 683.35
  L 678.05 688.52
  A 0.68 0.68 0.0 0 1 677.09 688.50
  L 660.35 671.01
  A 0.68 0.68 0.0 0 0 659.46 670.93
  L 655.19 673.96
  A 0.68 0.68 0.0 0 0 655.09 674.99
  L 676.36 697.20"
/>
<path stroke="#797066" vector-effect="non-scaling-stroke" d="
  M 361.19 708.74
  Q 364.17 702.66 365.89 695.86
  A 0.39 0.39 0.0 0 1 366.33 695.57
  Q 371.07 696.41 374.54 692.78
  C 376.73 690.48 379.24 686.47 377.43 683.29
  C 375.11 679.22 371.14 676.57 365.71 672.32
  A 0.55 0.55 0.0 0 0 364.94 672.41
  L 346.38 695.52
  A 0.80 0.80 0.0 0 0 346.50 696.65
  L 350.45 699.82
  A 0.77 0.77 0.0 0 0 351.53 699.70
  L 357.93 691.73
  A 1.32 1.32 0.0 0 1 360.20 692.10
  L 360.58 693.12
  A 0.70 0.61 -49.1 0 1 360.58 693.54
  L 356.74 705.26
  A 0.65 0.65 0.0 0 0 356.95 705.97
  L 360.57 708.88
  A 0.41 0.40 32.1 0 0 361.19 708.74"
/>
<path stroke="#797066" vector-effect="non-scaling-stroke" d="
  M 656.92 707.92
  Q 654.44 709.84 652.01 706.73
  Q 645.53 698.41 638.73 689.63
  A 1.02 1.01 53.4 0 0 637.34 689.42
  L 633.91 691.86
  A 0.97 0.97 0.0 0 0 633.69 693.22
  Q 639.95 701.88 646.53 709.96
  C 650.79 715.18 654.58 716.91 660.39 712.41
  C 666.21 707.92 665.49 703.82 661.51 698.38
  Q 655.35 689.98 648.55 681.73
  A 0.97 0.97 0.0 0 0 647.18 681.60
  L 643.96 684.31
  A 1.02 1.01 51.2 0 0 643.81 685.71
  Q 650.59 694.50 657.00 702.87
  Q 659.40 706.00 656.92 707.92"
/>
<path stroke="#797066" vector-effect="non-scaling-stroke" d="
  M 393.1248 695.7332
  A 0.84 0.84 0.0 0 0 392.9104 694.5647
  L 389.1404 691.9640
  A 0.84 0.84 0.0 0 0 387.9720 692.1785
  L 371.1752 716.5268
  A 0.84 0.84 0.0 0 0 371.3896 717.6953
  L 375.1596 720.2960
  A 0.84 0.84 0.0 0 0 376.3280 720.0815
  L 393.1248 695.7332"
/>
<path stroke="#797066" vector-effect="non-scaling-stroke" d="
  M 633.18 729.92
  A 0.95 0.95 0.0 0 0 633.52 728.63
  L 628.43 719.80
  A 0.95 0.95 0.0 0 1 628.77 718.50
  L 634.17 715.39
  A 0.95 0.95 0.0 0 0 634.38 713.91
  L 631.51 710.90
  A 0.95 0.95 0.0 0 0 630.34 710.73
  L 625.89 713.30
  A 0.95 0.95 0.0 0 1 624.60 712.95
  L 621.59 707.74
  A 0.95 0.95 0.0 0 1 621.94 706.45
  L 629.25 702.22
  A 0.95 0.95 0.0 0 0 629.60 700.93
  L 627.81 697.83
  A 0.95 0.95 0.0 0 0 626.52 697.49
  L 613.61 704.94
  A 0.95 0.95 0.0 0 0 613.27 706.23
  L 628.03 731.80
  A 0.95 0.95 0.0 0 0 629.32 732.15
  L 633.18 729.92"
/>
<path stroke="#797066" vector-effect="non-scaling-stroke" d="
  M 401.27 715.16
  L 399.59 734.65
  A 0.72 0.72 0.0 0 0 399.99 735.37
  L 403.93 737.35
  A 0.74 0.74 0.0 0 0 404.90 737.05
  L 419.26 711.14
  A 0.85 0.84 27.9 0 0 418.89 709.97
  L 414.66 707.85
  A 0.82 0.81 -63.3 0 0 413.56 708.22
  L 406.60 722.11
  A 0.14 0.14 0.0 0 1 406.34 722.04
  L 407.39 704.29
  A 0.63 0.60 -72.4 0 0 407.12 703.74
  L 402.26 700.52
  A 0.35 0.35 0.0 0 0 401.76 700.64
  L 387.26 726.82
  A 1.37 1.36 -61.0 0 0 387.79 728.68
  L 390.73 730.31
  A 1.53 1.53 0.0 0 0 392.81 729.71
  L 400.94 715.05
  A 0.18 0.18 0.0 0 1 401.27 715.16"
/>
<path stroke="#797066" vector-effect="non-scaling-stroke" d="
  M 603.6837 710.3425
  A 0.58 0.58 0.0 0 0 602.9072 710.0781
  L 598.0441 712.4711
  A 0.58 0.58 0.0 0 0 597.7797 713.2476
  L 611.3163 740.7575
  A 0.58 0.58 0.0 0 0 612.0928 741.0219
  L 616.9559 738.6289
  A 0.58 0.58 0.0 0 0 617.2203 737.8524
  L 603.6837 710.3425"
/>
<path stroke="#797066" vector-effect="non-scaling-stroke" d="
  M 430.75 727.27
  A 0.12 0.12 0.0 0 1 430.56 727.15
  L 433.38 716.87
  A 0.85 0.85 0.0 0 0 432.84 715.84
  L 429.02 714.48
  A 0.86 0.86 0.0 0 0 427.93 715.00
  L 418.06 742.79
  A 1.21 1.20 19.9 0 0 418.79 744.33
  L 421.94 745.45
  A 1.38 1.38 0.0 0 0 423.68 744.66
  C 424.62 742.29 426.59 736.66 428.62 734.96
  A 0.50 0.50 0.0 0 1 429.44 735.30
  L 430.72 747.50
  A 2.01 2.00 -83.3 0 0 432.05 749.19
  L 435.82 750.53
  A 0.82 0.82 0.0 0 0 436.91 749.68
  L 435.09 732.37
  A 1.95 1.94 65.5 0 1 435.68 730.78
  L 445.61 721.27
  A 0.17 0.17 0.0 0 0 445.55 720.99
  L 440.33 719.14
  A 0.62 0.62 0.0 0 0 439.70 719.26
  L 430.75 727.27"
/>
<path stroke="#797066" vector-effect="non-scaling-stroke" d="
  M 591.10 717.03
  A 0.98 0.98 0.0 0 0 589.83 716.42
  L 573.69 722.39
  A 0.98 0.98 0.0 0 0 573.10 723.62
  L 574.35 727.39
  A 0.98 0.98 0.0 0 0 575.62 728.00
  L 579.64 726.52
  A 0.98 0.98 0.0 0 1 580.91 727.13
  L 588.38 749.68
  A 0.98 0.98 0.0 0 0 589.65 750.29
  L 593.65 748.81
  A 0.98 0.98 0.0 0 0 594.24 747.58
  L 586.72 724.88
  A 0.98 0.98 0.0 0 1 587.34 723.64
  L 591.77 722.17
  A 0.98 0.98 0.0 0 0 592.39 720.93
  L 591.10 717.03"
/>
<path stroke="#797066" vector-effect="non-scaling-stroke" d="
  M 561.45 752.37
  Q 558.15 753.15 557.03 748.49
  Q 554.25 736.97 552.46 728.99
  A 0.90 0.89 80.5 0 0 551.50 728.30
  L 546.95 728.77
  A 0.88 0.87 80.9 0 0 546.19 729.83
  Q 549.61 745.16 550.59 749.40
  C 552.22 756.41 555.24 759.88 562.81 758.08
  C 570.38 756.28 571.52 751.83 569.82 744.84
  Q 568.79 740.61 564.96 725.38
  A 0.88 0.87 72.4 0 0 563.80 724.77
  L 559.53 726.39
  A 0.90 0.89 72.8 0 0 558.98 727.44
  Q 560.97 735.38 563.67 746.92
  Q 564.76 751.58 561.45 752.37"
/>
<path stroke="#797066" vector-effect="non-scaling-stroke" d="
  M 466.81 727.15
  L 462.69 756.96
  A 0.88 0.87 9.9 0 0 463.38 757.93
  Q 470.12 759.38 475.61 759.35
  Q 480.64 759.33 482.61 755.36
  Q 485.21 750.13 481.50 745.01
  A 0.69 0.68 48.7 0 1 481.55 744.14
  Q 484.95 740.45 484.69 735.32
  C 484.50 731.65 481.59 729.95 478.52 729.20
  Q 475.02 728.35 467.16 726.90
  A 0.31 0.29 8.4 0 0 466.81 727.15"
/>
<path stroke="#797066" vector-effect="non-scaling-stroke" d="
  M 528.51 731.32
  Q 527.54 731.41 525.54 731.58
  A 1.22 1.21 -87.8 0 0 524.45 732.60
  L 519.88 761.90
  A 0.96 0.96 0.0 0 0 520.88 763.01
  L 524.94 762.81
  A 1.39 1.39 0.0 0 0 526.25 761.63
  L 526.97 757.06
  A 0.95 0.94 -89.0 0 1 527.79 756.26
  Q 528.25 756.21 530.70 755.99
  Q 533.15 755.77 533.61 755.75
  A 0.95 0.94 78.9 0 1 534.55 756.39
  L 536.06 760.76
  A 1.39 1.39 0.0 0 0 537.56 761.69
  L 541.59 761.18
  A 0.96 0.96 0.0 0 0 542.38 759.91
  L 532.74 731.87
  A 1.22 1.21 77.7 0 0 531.49 731.05
  Q 529.49 731.24 528.51 731.32"
/>
<path stroke="#797066" vector-effect="non-scaling-stroke" d="
  M 493.69 746.89
  Q 493.38 753.75 493.15 761.36
  A 0.72 0.71 -86.6 0 0 493.80 762.09
  L 508.52 763.36
  A 1.09 1.08 -84.7 0 0 509.70 762.37
  L 510.04 758.44
  A 0.81 0.81 0.0 0 0 509.30 757.56
  L 500.04 756.76
  A 0.65 0.65 0.0 0 1 499.45 756.06
  L 499.92 750.60
  A 0.54 0.54 0.0 0 1 500.47 750.11
  L 506.66 750.22
  A 0.69 0.68 -0.7 0 0 507.36 749.51
  Q 507.36 749.48 507.45 747.52
  Q 507.54 745.56 507.54 745.54
  A 0.69 0.68 6.0 0 0 506.91 744.76
  L 500.74 744.31
  A 0.54 0.54 0.0 0 1 500.23 743.77
  L 500.26 738.29
  A 0.65 0.65 0.0 0 1 500.91 737.65
  L 510.21 737.69
  A 0.81 0.81 0.0 0 0 511.03 736.89
  L 511.05 732.94
  A 1.09 1.08 90.0 0 0 509.96 731.85
  L 495.19 731.77
  A 0.72 0.71 -88.2 0 0 494.47 732.44
  Q 494.01 740.04 493.69 746.89"
/>
<path stroke="#797066" vector-effect="non-scaling-stroke" d="
  M 539.26 268.91
  L 538.30 276.39
  A 0.74 0.74 0.0 0 0 538.94 277.22
  L 541.59 277.56
  A 3.93 3.48 7.3 0 0 545.93 274.61
  L 546.19 272.56
  A 3.93 3.48 7.3 0 0 542.74 268.61
  L 540.09 268.27
  A 0.74 0.74 0.0 0 0 539.26 268.91"
/>
<path stroke="#797066" vector-effect="non-scaling-stroke" d="
  M 453.71 289.39
  Q 455.16 288.97 455.19 288.95
  A 0.52 0.47 -22.3 0 0 455.52 288.28
  L 450.55 278.39
  A 0.04 0.03 61.7 0 0 450.50 278.37
  Q 450.49 278.38 450.47 278.38
  Q 450.46 278.38 450.45 278.38
  A 0.04 0.03 85.5 0 0 450.41 278.43
  L 451.60 289.44
  A 0.52 0.47 -10.5 0 0 452.23 289.83
  Q 452.27 289.82 453.71 289.39"
/>
<path stroke="#797066" vector-effect="non-scaling-stroke" d="
  M 642.67 307.59
  L 637.77 314.51
  A 0.22 0.22 0.0 0 0 637.83 314.81
  L 640.29 316.56
  A 3.76 3.29 35.3 0 0 645.26 316.05
  L 646.61 314.14
  A 3.76 3.29 35.3 0 0 645.45 309.28
  L 642.98 307.53
  A 0.22 0.22 0.0 0 0 642.67 307.59"
/>
<path stroke="#797066" vector-effect="non-scaling-stroke" d="
  M 349.1953 337.5617
  A 3.49 3.49 0.0 0 0 344.2604 337.4756
  L 344.1021 337.6284
  A 3.49 3.49 0.0 0 0 344.0160 342.5633
  L 354.3247 353.2383
  A 3.49 3.49 0.0 0 0 359.2596 353.3244
  L 359.4179 353.1716
  A 3.49 3.49 0.0 0 0 359.5040 348.2367
  L 349.1953 337.5617"
/>
<path stroke="#797066" vector-effect="non-scaling-stroke" d="
  M 786.11 481.53
  C 787.06 475.56 786.19 465.57 778.93 463.97
  A 2.34 2.34 0.0 0 0 776.29 465.31
  Q 775.04 468.11 775.62 471.45
  Q 777.00 479.35 784.96 482.21
  A 0.87 0.86 -75.3 0 0 786.11 481.53"
/>
<path stroke="#797066" vector-effect="non-scaling-stroke" d="
  M 762.09 469.91
  A 0.25 0.25 0.0 0 0 761.64 469.71
  Q 752.61 482.20 751.34 497.50
  C 750.65 505.90 752.95 515.50 762.99 515.68
  C 772.65 515.86 779.49 505.98 782.29 497.95
  A 0.53 0.52 16.0 0 0 781.90 497.26
  Q 769.48 494.56 763.98 483.28
  Q 760.72 476.59 762.09 469.91"
/>
<path stroke="#797066" vector-effect="non-scaling-stroke" d="
  M 612.07 510.28
  Q 621.71 507.64 628.62 501.44
  C 631.84 498.55 636.22 492.33 636.57 487.12
  C 636.93 481.79 634.18 478.38 628.65 480.61
  C 618.56 484.66 612.76 499.76 611.50 509.79
  A 0.45 0.45 0.0 0 0 612.07 510.28"
/>
<path stroke="#797066" vector-effect="non-scaling-stroke" d="
  M 343.63 539.54
  C 342.20 544.79 335.66 571.23 347.76 569.52
  C 357.53 568.13 363.38 553.96 365.60 545.78
  C 367.03 540.53 373.58 514.09 361.48 515.80
  C 351.71 517.19 345.86 531.36 343.63 539.54"
/>
<path stroke="#797066" vector-effect="non-scaling-stroke" d="
  M 346.35 659.66
  L 332.18 672.16
  A 0.73 0.73 0.0 0 0 332.11 673.19
  L 332.85 674.03
  A 5.47 5.27 -41.4 0 0 340.44 674.37
  L 347.51 668.14
  A 5.47 5.27 -41.4 0 0 348.13 660.57
  L 347.38 659.73
  A 0.73 0.73 0.0 0 0 346.35 659.66"
/>
<path stroke="#797066" vector-effect="non-scaling-stroke" d="
  M 366.87 681.11
  L 362.82 686.62
  A 0.66 0.66 0.0 0 0 362.96 687.54
  L 363.89 688.22
  A 4.93 3.34 36.3 0 0 369.84 688.45
  L 370.71 687.26
  A 4.93 3.34 36.3 0 0 368.72 681.65
  L 367.79 680.97
  A 0.66 0.66 0.0 0 0 366.87 681.11"
/>
<path stroke="#797066" vector-effect="non-scaling-stroke" d="
  M 472.09 734.54
  L 471.35 739.73
  A 0.88 0.88 0.0 0 0 472.10 740.72
  L 474.74 741.10
  A 3.07 2.05 8.1 0 0 478.07 739.50
  L 478.48 736.63
  A 3.07 2.05 8.1 0 0 475.73 734.17
  L 473.09 733.79
  A 0.88 0.88 0.0 0 0 472.09 734.54"
/>
<path stroke="#797066" vector-effect="non-scaling-stroke" d="
  M 470.65 746.63
  L 469.82 752.63
  A 0.66 0.66 0.0 0 0 470.38 753.37
  L 473.74 753.84
  A 2.67 2.30 7.9 0 0 476.70 751.93
  L 477.08 749.18
  A 2.67 2.30 7.9 0 0 474.75 746.53
  L 471.39 746.06
  A 0.66 0.66 0.0 0 0 470.65 746.63"
/>
<path stroke="#797066" vector-effect="non-scaling-stroke" d="
  M 532.41 750.04
  Q 531.76 745.01 529.72 740.33
  A 0.45 0.45 0.0 0 0 528.85 740.47
  L 527.99 750.45
  A 0.37 0.36 -0.1 0 0 528.39 750.84
  L 532.09 750.45
  A 0.36 0.36 0.0 0 0 532.41 750.04"
/>
</g>
<path fill="#040303" d="
  M 1024.00 0.00
  L 1024.00 1024.00
  L 0.00 1024.00
  L 0.00 0.00
  L 1024.00 0.00
  Z
  M 273.01 402.54
  C 293.12 351.06 331.73 307.85 378.58 279.20
  C 439.33 242.05 513.98 232.14 581.88 251.59
  Q 630.60 265.56 672.41 297.55
  C 711.65 327.58 740.07 367.64 756.70 414.14
  A 2.09 2.08 -24.8 0 0 759.70 415.24
  L 761.28 414.32
  A 2.45 2.45 0.0 0 0 762.40 411.48
  Q 759.64 402.60 756.92 396.32
  Q 719.59 310.35 635.90 266.36
  C 583.40 238.76 524.93 228.92 466.90 239.03
  Q 428.57 245.71 391.45 264.43
  Q 372.69 273.89 353.01 288.71
  C 314.66 317.59 282.95 356.25 266.45 401.08
  A 2.76 2.76 0.0 0 0 268.43 404.72
  L 268.76 404.80
  A 3.69 3.69 0.0 0 0 273.01 402.54
  Z
  M 496.70 262.00
  A 0.71 0.71 0.0 0 0 495.95 261.33
  L 490.92 261.57
  A 0.71 0.71 0.0 0 0 490.25 262.32
  L 491.75 292.61
  A 0.71 0.71 0.0 0 0 492.50 293.28
  L 507.73 292.53
  A 0.71 0.71 0.0 0 0 508.40 291.78
  L 508.20 287.59
  A 0.71 0.71 0.0 0 0 507.45 286.92
  L 498.67 287.35
  A 0.71 0.71 0.0 0 1 497.92 286.68
  L 496.70 262.00
  Z
  M 550.45 294.66
  L 547.18 282.58
  A 0.07 0.06 72.1 0 1 547.21 282.51
  Q 553.57 278.29 552.54 269.92
  Q 551.84 264.23 545.90 263.05
  Q 541.61 262.20 534.97 261.62
  A 0.80 0.79 -83.2 0 0 534.11 262.30
  L 529.98 292.24
  A 0.75 0.74 -83.4 0 0 530.65 293.09
  L 535.60 293.51
  A 0.74 0.73 -83.1 0 0 536.40 292.88
  L 537.75 283.05
  A 0.75 0.74 -86.7 0 1 538.46 282.41
  Q 539.60 282.37 540.46 282.65
  A 0.95 0.93 1.9 0 1 541.08 283.30
  L 544.05 294.26
  A 1.40 1.38 84.5 0 0 545.27 295.28
  L 549.62 295.66
  A 0.79 0.79 0.0 0 0 550.45 294.66
  Z
  M 476.8713 264.3153
  A 0.86 0.86 0.0 0 0 475.8848 263.6039
  L 471.3045 264.3457
  A 0.86 0.86 0.0 0 0 470.5931 265.3322
  L 475.4087 295.0647
  A 0.86 0.86 0.0 0 0 476.3952 295.7761
  L 480.9755 295.0343
  A 0.86 0.86 0.0 0 0 481.6869 294.0478
  L 476.8713 264.3153
  Z
  M 570.28 282.07
  A 0.77 0.77 0.0 0 1 569.70 281.15
  L 570.92 275.63
  A 0.77 0.77 0.0 0 1 571.84 275.05
  L 580.21 276.91
  A 0.77 0.77 0.0 0 0 581.10 276.42
  L 582.53 272.38
  A 0.77 0.77 0.0 0 0 582.01 271.38
  L 567.61 267.43
  A 0.77 0.77 0.0 0 0 566.67 267.97
  L 558.75 296.87
  A 0.77 0.77 0.0 0 0 559.29 297.81
  L 574.36 301.95
  A 0.77 0.77 0.0 0 0 575.32 301.37
  L 576.05 298.07
  A 0.77 0.77 0.0 0 0 575.56 297.17
  L 566.56 293.98
  A 0.77 0.77 0.0 0 1 566.08 293.05
  L 567.62 287.43
  A 0.77 0.77 0.0 0 1 568.56 286.89
  L 575.10 288.69
  A 0.77 0.77 0.0 0 0 576.03 288.20
  L 577.33 284.52
  A 0.77 0.77 0.0 0 0 576.77 283.51
  L 570.28 282.07
  Z
  M 448.26 269.98
  Q 446.92 270.36 445.17 270.83
  A 1.05 1.04 81.1 0 0 444.40 271.89
  L 445.91 302.20
  A 1.08 1.08 0.0 0 0 447.27 303.19
  L 451.09 302.15
  A 1.29 1.29 0.0 0 0 452.04 300.89
  L 451.95 296.15
  A 1.02 1.01 79.8 0 1 452.62 295.18
  Q 453.02 294.99 455.18 294.37
  Q 457.35 293.76 457.78 293.71
  A 1.02 1.01 68.5 0 1 458.87 294.19
  L 461.28 298.27
  A 1.29 1.29 0.0 0 0 462.75 298.84
  L 466.55 297.72
  A 1.08 1.08 0.0 0 0 467.18 296.17
  L 452.55 269.58
  A 1.05 1.04 67.2 0 0 451.34 269.08
  Q 449.61 269.60 448.26 269.98
  Z
  M 420.56 279.66
  Q 416.87 281.21 412.42 283.14
  A 1.07 1.06 66.4 0 0 411.87 284.56
  L 413.27 287.75
  A 1.15 1.14 -23.7 0 0 414.77 288.33
  L 418.83 286.54
  A 0.83 0.82 65.8 0 1 419.92 286.96
  L 429.66 309.06
  A 0.73 0.73 0.0 0 0 430.54 309.46
  Q 431.67 309.11 432.80 308.63
  Q 433.92 308.16 434.96 307.59
  A 0.73 0.73 0.0 0 0 435.29 306.68
  L 426.24 284.29
  A 0.83 0.82 68.5 0 1 426.70 283.22
  L 430.81 281.55
  A 1.15 1.14 -22.1 0 0 431.44 280.08
  L 430.13 276.85
  A 1.07 1.06 67.8 0 0 428.74 276.25
  Q 424.25 278.10 420.56 279.66
  Z
  M 603.30 303.01
  L 600.07 300.68
  A 0.80 0.80 0.0 0 0 599.01 300.79
  C 597.13 302.81 595.83 305.27 592.60 303.46
  C 590.79 302.44 591.38 300.05 591.92 298.42
  Q 593.86 292.56 596.10 288.09
  C 597.00 286.29 598.17 284.56 600.31 284.72
  C 602.13 284.87 604.70 286.35 604.19 288.55
  Q 603.98 289.46 603.62 290.64
  A 1.17 1.17 0.0 0 0 604.18 292.01
  Q 607.64 293.88 609.08 290.69
  C 612.25 283.66 606.58 279.32 600.39 278.29
  C 595.28 277.44 592.08 280.57 590.10 284.89
  Q 587.25 291.11 585.62 296.39
  Q 583.16 304.36 589.70 308.27
  C 595.68 311.85 601.18 310.79 603.55 303.81
  A 0.71 0.70 27.8 0 0 603.30 303.01
  Z
  M 628.7470 292.4321
  A 0.53 0.53 0.0 0 0 628.5404 291.7116
  L 623.7300 289.0452
  A 0.53 0.53 0.0 0 0 623.0095 289.2518
  L 608.5330 315.3679
  A 0.53 0.53 0.0 0 0 608.7396 316.0884
  L 613.5500 318.7548
  A 0.53 0.53 0.0 0 0 614.2705 318.5482
  L 628.7470 292.4321
  Z
  M 396.34 306.03
  L 389.43 296.32
  A 1.02 1.02 0.0 0 0 388.01 296.08
  L 384.71 298.43
  A 0.85 0.85 0.0 0 0 384.47 299.55
  L 399.44 325.47
  A 0.92 0.91 -32.5 0 0 400.77 325.76
  L 404.31 323.24
  A 0.94 0.94 0.0 0 0 404.61 322.04
  L 400.02 312.89
  A 0.96 0.95 80.2 0 1 400.99 311.51
  Q 402.11 311.66 402.64 312.10
  Q 407.37 316.09 410.86 318.69
  A 0.36 0.35 -41.1 0 0 411.24 318.71
  L 416.93 315.43
  A 0.26 0.26 0.0 0 0 416.95 315.00
  L 402.49 304.56
  A 1.19 1.19 0.0 0 1 401.99 303.63
  L 401.26 289.14
  A 0.07 0.07 0.0 0 0 401.16 289.08
  L 396.02 291.66
  A 0.25 0.25 0.0 0 0 395.89 291.88
  L 396.59 305.94
  A 0.14 0.14 0.0 0 1 396.34 306.03
  Z
  M 635.36 319.84
  Q 639.91 324.60 645.02 323.29
  C 649.43 322.15 653.25 317.17 653.74 312.92
  Q 654.32 307.92 650.02 304.92
  Q 646.38 302.38 640.73 299.44
  A 0.42 0.42 0.0 0 0 640.19 299.58
  L 623.80 324.33
  A 0.89 0.89 0.0 0 0 624.05 325.57
  L 626.99 327.52
  A 1.32 1.31 -53.8 0 0 628.73 327.25
  L 634.65 319.87
  A 0.47 0.47 0.0 0 1 635.36 319.84
  Z
  M 381.69 326.53
  C 382.85 327.86 384.13 331.41 382.33 333.07
  Q 379.35 335.82 376.56 332.77
  Q 371.07 326.77 367.76 319.48
  C 366.65 317.04 368.89 314.97 371.35 315.30
  A 1.11 1.08 -18.1 0 1 371.98 315.61
  L 374.33 317.95
  A 1.51 1.50 45.7 0 0 376.43 317.98
  L 378.96 315.55
  A 0.82 0.82 0.0 0 0 379.07 314.50
  C 375.64 309.33 370.87 307.21 365.53 311.28
  Q 358.75 316.45 362.56 324.11
  Q 365.00 329.02 371.45 336.51
  C 374.73 340.32 379.28 341.69 383.49 339.26
  Q 392.98 333.78 387.31 323.81
  A 1.15 1.15 0.0 0 0 385.81 323.34
  L 382.00 325.19
  A 0.88 0.88 0.0 0 0 381.69 326.53
  Z
  M 666.34 396.56
  A 2.52 2.51 -30.6 0 0 667.30 392.84
  C 642.30 357.46 606.88 332.33 565.38 319.62
  C 528.41 308.30 487.45 309.99 451.13 322.42
  C 406.80 337.58 369.21 368.02 345.30 408.54
  Q 339.98 417.55 338.28 421.85
  A 2.70 2.70 0.0 0 0 339.99 425.41
  L 340.14 425.46
  A 3.48 3.47 -67.9 0 0 344.28 423.71
  C 370.46 371.73 418.51 333.88 475.64 322.24
  C 531.27 310.90 588.84 325.87 631.84 362.87
  Q 646.32 375.33 661.78 395.60
  A 3.57 3.56 -31.6 0 0 666.18 396.64
  L 666.34 396.56
  Z
  M 675.39 333.13
  L 678.03 330.48
  A 1.46 1.46 0.0 0 0 677.91 328.31
  L 666.72 319.31
  A 0.76 0.75 41.6 0 0 665.72 319.36
  Q 654.82 330.08 645.51 341.23
  A 0.72 0.72 0.0 0 0 645.61 342.25
  L 656.75 351.20
  A 1.61 1.60 -48.1 0 0 658.89 351.08
  L 660.78 349.20
  A 1.32 1.32 0.0 0 0 660.67 347.24
  L 654.29 342.12
  A 1.02 1.02 0.0 0 1 654.21 340.60
  L 658.12 336.69
  A 1.02 1.02 0.0 0 1 659.47 336.61
  L 663.95 340.21
  A 1.46 1.46 0.0 0 0 666.01 339.99
  L 667.80 337.77
  A 0.80 0.79 -51.5 0 0 667.68 336.66
  L 662.92 332.84
  A 1.18 1.17 -48.1 0 1 662.83 331.09
  L 666.42 327.50
  A 1.36 1.36 0.0 0 1 668.35 327.50
  L 673.98 333.13
  A 1.00 1.00 0.0 0 0 675.39 333.13
  Z
  M 353.6877 333.4775
  A 9.34 9.34 0.0 0 0 340.4794 333.3623
  L 339.7805 334.0492
  A 9.34 9.34 0.0 0 0 339.6652 347.2574
  L 349.7723 357.5425
  A 9.34 9.34 0.0 0 0 362.9806 357.6577
  L 363.6795 356.9708
  A 9.34 9.34 0.0 0 0 363.7948 343.7626
  L 353.6877 333.4775
  Z
  M 673.74 355.24
  Q 672.62 354.97 671.24 353.82
  A 0.94 0.94 0.0 0 0 670.35 353.65
  C 662.76 356.11 666.27 364.01 670.48 367.50
  C 676.91 372.83 685.31 366.28 685.42 359.25
  C 685.47 356.37 682.12 348.96 685.82 347.71
  Q 687.35 347.19 688.47 348.28
  C 690.04 349.81 690.28 351.47 688.68 353.12
  A 0.61 0.61 0.0 0 0 688.68 353.96
  Q 690.27 355.63 691.99 356.23
  A 1.39 1.37 -52.1 0 0 693.20 356.07
  C 700.50 351.17 690.75 338.11 682.67 342.19
  C 675.78 345.66 677.90 352.40 678.81 358.49
  Q 679.00 359.72 677.65 361.75
  A 1.56 1.54 5.7 0 1 676.92 362.34
  Q 674.12 363.43 672.60 360.57
  Q 671.42 358.34 673.96 356.14
  A 0.52 0.52 0.0 0 0 673.74 355.24
  Z
  M 340.86 373.08
  C 338.71 377.05 336.01 375.71 332.92 373.51
  Q 328.23 370.18 322.90 365.01
  A 2.22 2.20 -53.9 0 1 322.50 362.37
  C 323.73 360.10 325.08 359.82 327.77 360.76
  Q 330.06 361.55 331.47 358.72
  A 1.67 1.66 -52.9 0 0 331.22 356.86
  C 322.95 347.70 311.85 361.74 317.81 368.54
  Q 322.58 373.98 329.17 378.82
  C 333.61 382.09 338.66 383.81 342.74 380.10
  Q 351.31 372.29 342.98 364.60
  A 1.20 1.20 0.0 0 0 341.71 364.37
  Q 340.24 364.96 338.92 366.32
  A 0.76 0.75 52.2 0 0 338.81 367.23
  L 340.82 370.72
  A 2.42 2.42 0.0 0 1 340.86 373.08
  Z
  M 400.63 424.63
  A 0.78 0.77 -34.4 0 0 399.53 424.43
  L 390.17 431.08
  A 1.18 1.17 -30.7 0 0 389.79 432.55
  Q 393.35 439.91 399.30 445.73
  C 427.66 473.45 467.68 464.85 498.25 446.82
  Q 525.66 430.64 545.34 407.66
  C 551.80 400.11 578.86 364.61 557.17 359.76
  Q 551.36 358.46 545.48 358.82
  Q 529.91 359.76 512.75 364.77
  C 478.17 374.87 446.15 392.33 415.02 413.26
  Q 414.80 413.41 413.12 414.76
  A 1.38 1.38 0.0 0 0 412.74 416.42
  C 418.93 429.72 430.67 436.87 445.10 436.41
  C 452.96 436.16 459.01 434.36 467.71 431.76
  A 3.19 3.18 -30.3 0 1 470.90 432.59
  Q 473.45 435.20 473.91 439.93
  C 474.30 444.02 468.18 445.60 464.87 446.52
  C 441.77 452.93 419.89 450.67 404.80 430.47
  Q 402.31 427.13 400.63 424.63
  Z
  M 702.0959 377.5460
  A 5.43 5.07 -96.6 0 0 697.6836 383.5227
  A 5.43 5.07 -96.6 0 0 703.3441 388.3340
  A 5.43 5.07 -96.6 0 0 707.7564 382.3573
  A 5.43 5.07 -96.6 0 0 702.0959 377.5460
  Z
  M 304.1924 398.1522
  A 5.29 4.97 -156.4 0 0 307.0503 404.8243
  A 5.29 4.97 -156.4 0 0 313.8876 402.3878
  A 5.29 4.97 -156.4 0 0 311.0297 395.7157
  A 5.29 4.97 -156.4 0 0 304.1924 398.1522
  Z
  M 519.28 547.50
  L 517.42 555.84
  A 1.21 1.18 -64.7 0 0 517.83 557.03
  Q 519.62 558.49 522.49 558.34
  C 526.18 558.15 532.96 557.89 534.03 554.71
  Q 534.97 551.89 535.32 550.02
  Q 538.92 530.51 543.16 513.20
  C 544.92 505.98 550.87 493.50 558.91 491.47
  C 565.50 489.81 566.09 494.67 565.11 499.59
  Q 563.85 505.98 557.76 533.51
  C 554.76 547.08 561.70 556.16 576.04 553.48
  Q 587.23 551.39 594.77 542.49
  Q 595.85 541.22 598.43 537.74
  A 0.46 0.46 0.0 0 1 599.12 537.68
  Q 599.86 538.40 600.83 539.71
  C 608.11 549.57 622.43 550.39 633.43 546.66
  Q 647.45 541.91 656.75 530.58
  A 0.32 0.31 59.8 0 1 657.30 530.73
  C 658.49 537.62 663.38 541.76 670.49 541.94
  C 681.76 542.23 690.68 535.52 696.73 526.45
  A 0.33 0.32 -34.8 0 1 697.32 526.55
  C 699.58 535.57 707.19 538.31 715.90 536.67
  C 725.30 534.89 733.59 528.37 738.67 520.18
  A 0.38 0.37 -43.8 0 1 739.32 520.19
  C 745.42 531.31 758.19 533.65 769.59 530.06
  C 784.94 525.24 793.44 513.81 798.84 498.29
  A 0.84 0.84 0.0 0 1 799.62 497.72
  Q 807.85 497.48 810.29 498.24
  C 817.56 500.51 819.45 507.70 818.57 514.80
  Q 817.95 519.80 814.85 525.51
  C 804.91 543.86 782.21 549.10 763.26 551.29
  Q 685.69 560.22 587.95 570.66
  Q 532.22 576.62 482.54 584.63
  Q 439.48 591.58 397.25 607.49
  Q 389.24 610.50 382.96 613.70
  A 2.39 2.38 -14.5 0 0 381.66 615.90
  Q 381.80 620.65 384.57 625.21
  Q 386.82 628.89 391.09 627.16
  Q 398.45 624.16 412.57 618.96
  C 444.67 607.13 478.49 599.41 512.69 595.16
  C 596.73 584.73 649.48 579.20 763.75 566.76
  C 779.92 565.00 796.89 560.51 810.46 551.68
  Q 820.53 545.13 827.56 534.25
  Q 837.22 519.30 833.42 502.29
  C 830.70 490.11 819.82 483.01 807.72 482.33
  Q 807.69 482.33 803.09 482.17
  A 0.56 0.55 -89.0 0 1 802.55 481.60
  C 802.87 472.46 801.75 464.19 795.89 456.96
  C 788.33 447.63 777.27 445.41 766.08 449.10
  C 758.15 451.71 751.77 457.25 746.81 464.36
  Q 734.20 482.46 734.28 505.46
  A 1.83 1.79 59.0 0 1 734.09 506.27
  C 731.34 511.79 726.88 519.26 720.75 521.21
  C 715.67 522.82 711.96 520.13 712.32 514.75
  Q 712.73 508.70 714.42 501.22
  Q 728.40 439.42 733.96 414.23
  Q 734.65 411.10 733.49 409.85
  Q 732.12 408.37 729.26 408.54
  C 725.87 408.74 718.09 409.14 717.37 412.35
  Q 698.48 497.89 698.42 498.15
  Q 696.50 507.41 694.03 511.68
  Q 689.72 519.14 684.18 523.90
  C 681.49 526.22 674.38 528.74 673.88 522.67
  Q 673.52 518.36 674.66 513.18
  Q 680.72 485.47 695.59 418.06
  C 696.22 415.20 692.83 414.05 690.49 414.24
  Q 687.74 414.47 680.89 415.64
  A 1.75 1.73 -70.9 0 0 680.06 416.05
  Q 678.85 417.14 678.52 418.57
  Q 672.00 446.98 663.32 487.10
  Q 661.16 497.08 658.85 506.33
  Q 657.91 510.12 655.03 514.49
  C 648.16 524.93 636.37 534.15 623.55 533.19
  Q 614.67 532.53 611.61 524.38
  A 1.33 1.33 0.0 0 1 612.62 522.60
  Q 631.04 519.31 643.08 505.65
  C 650.33 497.43 654.75 484.89 650.50 474.34
  C 646.37 464.07 635.03 462.77 625.73 466.03
  Q 613.66 470.27 605.78 481.28
  Q 591.98 500.53 593.60 523.69
  A 2.41 2.32 -36.3 0 1 593.40 524.85
  C 591.30 529.62 583.71 541.44 576.93 538.50
  C 574.26 537.35 574.37 533.87 574.98 531.24
  Q 579.22 512.81 582.02 499.27
  C 583.91 490.17 585.36 478.49 575.03 474.75
  C 569.07 472.58 562.13 475.11 556.68 478.67
  Q 552.06 481.70 550.03 483.59
  A 0.30 0.29 -15.6 0 1 549.54 483.32
  L 560.03 436.27
  A 0.96 0.72 55.5 0 0 560.04 436.04
  Q 559.53 432.86 556.70 432.77
  Q 552.75 432.64 544.37 434.85
  A 1.12 1.10 3.7 0 0 543.62 435.50
  Q 542.86 437.35 542.45 439.24
  Q 532.20 486.92 524.02 522.54
  C 523.18 526.18 522.28 527.79 520.12 530.62
  Q 512.61 540.41 502.15 547.14
  Q 498.92 549.22 494.20 550.14
  C 485.94 551.76 479.97 547.37 478.81 538.97
  C 477.62 530.28 480.03 520.68 483.36 512.74
  C 486.14 506.12 491.43 498.12 499.09 497.24
  Q 500.71 497.06 501.78 497.74
  C 507.46 501.40 496.65 508.70 501.82 513.52
  C 505.12 516.59 511.25 515.01 514.27 512.57
  C 519.15 508.64 519.45 499.96 518.45 494.00
  Q 516.63 483.29 505.99 482.14
  C 492.47 480.68 479.46 489.83 472.53 501.09
  Q 462.19 517.91 461.62 538.04
  A 2.98 2.92 61.4 0 1 461.22 539.45
  Q 456.26 548.01 450.26 553.23
  C 448.08 555.12 443.22 557.00 440.42 555.10
  C 431.32 548.91 451.26 512.57 455.26 505.45
  Q 458.22 500.20 456.71 495.55
  C 456.06 493.55 454.61 489.08 451.46 490.65
  C 442.51 495.12 434.26 499.33 424.03 498.21
  A 0.74 0.73 9.5 0 1 423.39 497.32
  L 424.46 492.53
  A 1.53 1.50 36.2 0 0 424.28 491.45
  Q 422.74 488.89 418.97 488.99
  C 415.37 489.10 409.75 489.79 407.88 492.67
  Q 406.40 494.95 404.93 502.55
  A 2.44 2.43 -47.1 0 0 404.97 503.66
  Q 405.55 505.72 408.42 507.86
  A 1.70 1.70 0.0 0 1 409.09 509.43
  C 408.10 517.91 405.80 525.91 403.37 535.62
  Q 400.34 547.71 393.09 558.02
  C 391.00 560.99 385.09 566.78 381.53 563.02
  C 379.45 560.83 380.60 554.54 381.26 551.51
  Q 390.06 511.39 392.13 502.33
  C 394.09 493.73 383.23 497.28 379.34 498.34
  C 376.59 499.09 376.29 501.68 375.35 503.96
  A 0.49 0.49 0.0 0 1 374.58 504.15
  Q 368.31 498.89 360.21 500.01
  C 336.62 503.27 325.53 535.21 323.90 555.20
  C 323.21 563.74 324.18 575.33 330.43 581.04
  C 341.44 591.10 357.47 580.58 364.49 571.01
  A 0.46 0.46 0.0 0 1 365.32 571.20
  Q 365.67 573.19 367.17 574.84
  C 373.62 581.94 384.54 580.38 391.98 575.43
  C 411.73 562.27 416.87 535.24 421.00 513.95
  A 1.30 1.29 4.0 0 1 422.21 512.90
  L 434.44 512.29
  A 0.30 0.30 0.0 0 1 434.72 512.72
  Q 428.60 524.48 424.47 535.66
  C 420.86 545.43 417.57 562.56 428.57 568.72
  C 440.01 575.13 454.51 567.26 461.64 557.88
  Q 463.67 555.22 464.59 554.01
  A 0.37 0.37 0.0 0 1 465.22 554.09
  C 470.42 566.30 484.72 567.66 495.78 563.99
  Q 509.15 559.55 518.70 547.23
  A 0.33 0.33 0.0 0 1 519.28 547.50
  Z
  M 301.89 515.35
  Q 303.26 514.24 307.75 510.98
  C 324.03 499.13 331.61 480.35 326.35 460.55
  C 320.00 436.61 294.20 425.18 271.25 426.18
  Q 243.00 427.40 223.52 446.18
  C 209.50 459.69 201.72 479.44 208.21 498.15
  C 211.79 508.46 219.35 516.72 229.90 520.09
  C 234.36 521.51 236.46 520.19 237.52 515.55
  Q 238.52 511.21 238.66 508.09
  A 1.69 1.68 -74.7 0 0 237.77 506.52
  Q 221.81 497.93 223.12 481.06
  C 223.75 472.83 228.42 464.12 233.99 458.45
  Q 251.45 440.70 276.97 441.66
  Q 292.37 442.23 303.26 453.24
  C 315.78 465.89 312.54 485.05 301.12 496.42
  C 294.80 502.71 285.84 506.37 277.00 507.75
  A 1.34 1.33 -82.9 0 0 275.96 508.57
  Q 274.40 512.37 274.33 516.25
  C 274.29 518.58 274.66 519.74 276.76 520.55
  C 289.77 525.53 299.15 535.35 297.99 550.25
  C 297.24 559.96 292.71 567.80 286.31 575.14
  C 272.53 590.95 250.69 596.23 230.70 591.06
  C 215.31 587.08 202.96 573.80 209.48 557.29
  C 211.84 551.30 216.52 548.40 222.37 544.41
  A 2.01 2.01 0.0 0 0 222.97 541.75
  L 217.12 531.60
  A 2.02 2.02 0.0 0 0 214.53 530.78
  C 199.64 537.61 190.44 550.95 191.03 567.31
  C 192.02 594.74 219.21 608.95 243.48 608.81
  C 265.31 608.68 288.20 600.01 301.68 583.07
  C 314.60 566.82 320.19 544.43 309.71 525.92
  C 307.71 522.38 304.05 519.19 301.78 516.31
  A 0.69 0.68 -38.7 0 1 301.89 515.35
  Z
  M 279.83 461.73
  C 277.61 457.35 270.73 457.74 266.69 458.43
  Q 263.88 458.90 262.94 462.46
  C 254.15 495.66 246.34 529.12 237.12 566.67
  C 236.60 568.79 235.93 570.40 237.74 571.75
  C 240.81 574.05 246.23 572.81 249.90 572.12
  Q 253.32 571.48 254.23 567.70
  Q 261.14 539.30 279.33 466.03
  Q 279.49 465.41 279.97 462.72
  A 1.54 1.53 -53.2 0 0 279.83 461.73
  Z
  M 269.73 625.53
  A 2.14 2.13 -23.7 0 0 268.63 628.33
  Q 276.10 645.64 280.29 653.00
  Q 304.28 695.23 342.10 727.19
  C 357.85 740.50 375.36 751.89 393.78 761.30
  C 426.26 777.91 461.78 787.02 498.27 789.11
  C 560.25 792.66 623.60 772.26 673.20 734.50
  Q 744.04 680.58 768.44 592.81
  A 2.04 2.04 0.0 0 0 766.65 590.24
  L 764.17 590.02
  A 2.46 2.46 0.0 0 0 761.58 591.83
  Q 754.50 617.91 741.83 643.15
  C 733.42 659.92 722.88 675.61 711.72 688.48
  Q 700.66 701.24 692.30 709.33
  Q 660.30 740.29 619.75 758.50
  Q 594.98 769.63 571.22 775.44
  C 473.61 799.30 374.98 763.40 311.36 686.88
  Q 287.72 658.44 274.49 625.73
  A 2.04 2.03 67.0 0 0 271.78 624.63
  L 269.73 625.53
  Z
  M 726.89 608.16
  A 4.81 4.81 0.0 0 0 722.08 603.35
  A 4.81 4.81 0.0 0 0 717.27 608.16
  A 4.81 4.81 0.0 0 0 722.08 612.97
  A 4.81 4.81 0.0 0 0 726.89 608.16
  Z
  M 679.39 606.38
  A 3.04 3.04 0.0 0 0 675.51 607.66
  Q 642.86 665.09 581.87 691.35
  Q 564.29 698.92 546.56 702.08
  C 530.19 705.01 511.76 706.22 494.47 704.44
  Q 435.21 698.35 390.26 658.99
  C 378.26 648.49 368.27 636.17 358.86 623.19
  C 357.20 620.89 354.03 620.66 352.89 623.48
  A 1.43 1.40 46.1 0 0 352.88 624.47
  Q 353.55 626.28 357.52 631.73
  Q 370.52 649.56 383.17 660.81
  C 397.72 673.75 412.66 684.47 430.53 693.08
  C 475.28 714.63 527.74 718.14 575.14 700.64
  Q 625.08 682.21 659.25 642.26
  Q 671.41 628.05 680.78 610.04
  A 2.62 2.61 25.7 0 0 679.52 606.44
  L 679.39 606.38
  Z
  M 312.0226 627.2241
  A 5.15 4.91 -118.5 0 0 310.1650 634.0928
  A 5.15 4.91 -118.5 0 0 316.9374 636.2759
  A 5.15 4.91 -118.5 0 0 318.7950 629.4072
  A 5.15 4.91 -118.5 0 0 312.0226 627.2241
  Z
  M 696.83 641.36
  L 686.47 639.93
  A 1.41 1.41 0.0 0 0 685.11 640.54
  L 683.04 643.67
  A 0.88 0.88 0.0 0 0 683.54 645.00
  Q 691.66 647.19 699.49 647.65
  A 1.51 1.48 -23.7 0 1 700.31 647.96
  L 711.00 656.00
  A 0.69 0.69 0.0 0 0 712.00 655.83
  L 714.87 651.50
  A 0.63 0.62 33.8 0 0 714.69 650.64
  Q 709.25 647.00 707.08 644.66
  Q 702.66 639.91 694.57 627.26
  A 1.03 1.03 0.0 0 0 692.73 627.47
  L 691.21 631.75
  A 2.08 2.07 37.3 0 0 691.47 633.64
  L 696.89 641.26
  A 0.06 0.06 0.0 0 1 696.83 641.36
  Z
  M 723.84 645.90
  A 0.41 0.41 0.0 0 0 724.56 645.89
  Q 725.87 643.51 726.05 640.79
  A 0.95 0.94 -72.1 0 0 725.61 639.92
  Q 722.17 637.74 718.53 637.16
  A 1.04 1.04 0.0 0 0 717.54 637.58
  C 715.07 640.97 719.44 642.81 721.98 643.30
  A 0.92 0.87 -8.5 0 1 722.59 643.73
  L 723.84 645.90
  Z
  M 345.42 651.76
  L 324.45 670.64
  A 1.65 1.65 0.0 0 0 324.33 672.97
  L 328.85 677.99
  A 12.20 11.60 -42.0 0 0 345.68 678.44
  L 350.97 673.68
  A 12.20 11.60 -42.0 0 0 352.27 656.90
  L 347.75 651.88
  A 1.65 1.65 0.0 0 0 345.42 651.76
  Z
  M 701.07 663.03
  L 694.60 670.23
  A 0.85 0.84 40.2 0 1 693.44 670.32
  L 675.15 655.64
  A 1.24 1.24 0.0 0 0 673.22 656.14
  Q 672.52 657.86 671.15 658.62
  A 0.94 0.93 -40.1 0 0 671.01 660.17
  L 694.29 678.87
  A 0.57 0.56 38.8 0 0 695.08 678.79
  L 705.02 666.41
  A 0.43 0.42 38.9 0 0 704.95 665.81
  L 701.45 663.00
  A 0.28 0.27 -48.8 0 0 701.07 663.03
  Z
  M 676.36 697.20
  A 0.68 0.68 0.0 0 0 677.33 697.21
  L 687.25 687.29
  A 0.68 0.68 0.0 0 0 687.26 686.34
  L 684.41 683.37
  A 0.68 0.68 0.0 0 0 683.45 683.35
  L 678.05 688.52
  A 0.68 0.68 0.0 0 1 677.09 688.50
  L 660.35 671.01
  A 0.68 0.68 0.0 0 0 659.46 670.93
  L 655.19 673.96
  A 0.68 0.68 0.0 0 0 655.09 674.99
  L 676.36 697.20
  Z
  M 361.19 708.74
  Q 364.17 702.66 365.89 695.86
  A 0.39 0.39 0.0 0 1 366.33 695.57
  Q 371.07 696.41 374.54 692.78
  C 376.73 690.48 379.24 686.47 377.43 683.29
  C 375.11 679.22 371.14 676.57 365.71 672.32
  A 0.55 0.55 0.0 0 0 364.94 672.41
  L 346.38 695.52
  A 0.80 0.80 0.0 0 0 346.50 696.65
  L 350.45 699.82
  A 0.77 0.77 0.0 0 0 351.53 699.70
  L 357.93 691.73
  A 1.32 1.32 0.0 0 1 360.20 692.10
  L 360.58 693.12
  A 0.70 0.61 -49.1 0 1 360.58 693.54
  L 356.74 705.26
  A 0.65 0.65 0.0 0 0 356.95 705.97
  L 360.57 708.88
  A 0.41 0.40 32.1 0 0 361.19 708.74
  Z
  M 656.92 707.92
  Q 654.44 709.84 652.01 706.73
  Q 645.53 698.41 638.73 689.63
  A 1.02 1.01 53.4 0 0 637.34 689.42
  L 633.91 691.86
  A 0.97 0.97 0.0 0 0 633.69 693.22
  Q 639.95 701.88 646.53 709.96
  C 650.79 715.18 654.58 716.91 660.39 712.41
  C 666.21 707.92 665.49 703.82 661.51 698.38
  Q 655.35 689.98 648.55 681.73
  A 0.97 0.97 0.0 0 0 647.18 681.60
  L 643.96 684.31
  A 1.02 1.01 51.2 0 0 643.81 685.71
  Q 650.59 694.50 657.00 702.87
  Q 659.40 706.00 656.92 707.92
  Z
  M 393.1248 695.7332
  A 0.84 0.84 0.0 0 0 392.9104 694.5647
  L 389.1404 691.9640
  A 0.84 0.84 0.0 0 0 387.9720 692.1785
  L 371.1752 716.5268
  A 0.84 0.84 0.0 0 0 371.3896 717.6953
  L 375.1596 720.2960
  A 0.84 0.84 0.0 0 0 376.3280 720.0815
  L 393.1248 695.7332
  Z
  M 633.18 729.92
  A 0.95 0.95 0.0 0 0 633.52 728.63
  L 628.43 719.80
  A 0.95 0.95 0.0 0 1 628.77 718.50
  L 634.17 715.39
  A 0.95 0.95 0.0 0 0 634.38 713.91
  L 631.51 710.90
  A 0.95 0.95 0.0 0 0 630.34 710.73
  L 625.89 713.30
  A 0.95 0.95 0.0 0 1 624.60 712.95
  L 621.59 707.74
  A 0.95 0.95 0.0 0 1 621.94 706.45
  L 629.25 702.22
  A 0.95 0.95 0.0 0 0 629.60 700.93
  L 627.81 697.83
  A 0.95 0.95 0.0 0 0 626.52 697.49
  L 613.61 704.94
  A 0.95 0.95 0.0 0 0 613.27 706.23
  L 628.03 731.80
  A 0.95 0.95 0.0 0 0 629.32 732.15
  L 633.18 729.92
  Z
  M 401.27 715.16
  L 399.59 734.65
  A 0.72 0.72 0.0 0 0 399.99 735.37
  L 403.93 737.35
  A 0.74 0.74 0.0 0 0 404.90 737.05
  L 419.26 711.14
  A 0.85 0.84 27.9 0 0 418.89 709.97
  L 414.66 707.85
  A 0.82 0.81 -63.3 0 0 413.56 708.22
  L 406.60 722.11
  A 0.14 0.14 0.0 0 1 406.34 722.04
  L 407.39 704.29
  A 0.63 0.60 -72.4 0 0 407.12 703.74
  L 402.26 700.52
  A 0.35 0.35 0.0 0 0 401.76 700.64
  L 387.26 726.82
  A 1.37 1.36 -61.0 0 0 387.79 728.68
  L 390.73 730.31
  A 1.53 1.53 0.0 0 0 392.81 729.71
  L 400.94 715.05
  A 0.18 0.18 0.0 0 1 401.27 715.16
  Z
  M 603.6837 710.3425
  A 0.58 0.58 0.0 0 0 602.9072 710.0781
  L 598.0441 712.4711
  A 0.58 0.58 0.0 0 0 597.7797 713.2476
  L 611.3163 740.7575
  A 0.58 0.58 0.0 0 0 612.0928 741.0219
  L 616.9559 738.6289
  A 0.58 0.58 0.0 0 0 617.2203 737.8524
  L 603.6837 710.3425
  Z
  M 430.75 727.27
  A 0.12 0.12 0.0 0 1 430.56 727.15
  L 433.38 716.87
  A 0.85 0.85 0.0 0 0 432.84 715.84
  L 429.02 714.48
  A 0.86 0.86 0.0 0 0 427.93 715.00
  L 418.06 742.79
  A 1.21 1.20 19.9 0 0 418.79 744.33
  L 421.94 745.45
  A 1.38 1.38 0.0 0 0 423.68 744.66
  C 424.62 742.29 426.59 736.66 428.62 734.96
  A 0.50 0.50 0.0 0 1 429.44 735.30
  L 430.72 747.50
  A 2.01 2.00 -83.3 0 0 432.05 749.19
  L 435.82 750.53
  A 0.82 0.82 0.0 0 0 436.91 749.68
  L 435.09 732.37
  A 1.95 1.94 65.5 0 1 435.68 730.78
  L 445.61 721.27
  A 0.17 0.17 0.0 0 0 445.55 720.99
  L 440.33 719.14
  A 0.62 0.62 0.0 0 0 439.70 719.26
  L 430.75 727.27
  Z
  M 591.10 717.03
  A 0.98 0.98 0.0 0 0 589.83 716.42
  L 573.69 722.39
  A 0.98 0.98 0.0 0 0 573.10 723.62
  L 574.35 727.39
  A 0.98 0.98 0.0 0 0 575.62 728.00
  L 579.64 726.52
  A 0.98 0.98 0.0 0 1 580.91 727.13
  L 588.38 749.68
  A 0.98 0.98 0.0 0 0 589.65 750.29
  L 593.65 748.81
  A 0.98 0.98 0.0 0 0 594.24 747.58
  L 586.72 724.88
  A 0.98 0.98 0.0 0 1 587.34 723.64
  L 591.77 722.17
  A 0.98 0.98 0.0 0 0 592.39 720.93
  L 591.10 717.03
  Z
  M 561.45 752.37
  Q 558.15 753.15 557.03 748.49
  Q 554.25 736.97 552.46 728.99
  A 0.90 0.89 80.5 0 0 551.50 728.30
  L 546.95 728.77
  A 0.88 0.87 80.9 0 0 546.19 729.83
  Q 549.61 745.16 550.59 749.40
  C 552.22 756.41 555.24 759.88 562.81 758.08
  C 570.38 756.28 571.52 751.83 569.82 744.84
  Q 568.79 740.61 564.96 725.38
  A 0.88 0.87 72.4 0 0 563.80 724.77
  L 559.53 726.39
  A 0.90 0.89 72.8 0 0 558.98 727.44
  Q 560.97 735.38 563.67 746.92
  Q 564.76 751.58 561.45 752.37
  Z
  M 466.81 727.15
  L 462.69 756.96
  A 0.88 0.87 9.9 0 0 463.38 757.93
  Q 470.12 759.38 475.61 759.35
  Q 480.64 759.33 482.61 755.36
  Q 485.21 750.13 481.50 745.01
  A 0.69 0.68 48.7 0 1 481.55 744.14
  Q 484.95 740.45 484.69 735.32
  C 484.50 731.65 481.59 729.95 478.52 729.20
  Q 475.02 728.35 467.16 726.90
  A 0.31 0.29 8.4 0 0 466.81 727.15
  Z
  M 528.51 731.32
  Q 527.54 731.41 525.54 731.58
  A 1.22 1.21 -87.8 0 0 524.45 732.60
  L 519.88 761.90
  A 0.96 0.96 0.0 0 0 520.88 763.01
  L 524.94 762.81
  A 1.39 1.39 0.0 0 0 526.25 761.63
  L 526.97 757.06
  A 0.95 0.94 -89.0 0 1 527.79 756.26
  Q 528.25 756.21 530.70 755.99
  Q 533.15 755.77 533.61 755.75
  A 0.95 0.94 78.9 0 1 534.55 756.39
  L 536.06 760.76
  A 1.39 1.39 0.0 0 0 537.56 761.69
  L 541.59 761.18
  A 0.96 0.96 0.0 0 0 542.38 759.91
  L 532.74 731.87
  A 1.22 1.21 77.7 0 0 531.49 731.05
  Q 529.49 731.24 528.51 731.32
  Z
  M 493.69 746.89
  Q 493.38 753.75 493.15 761.36
  A 0.72 0.71 -86.6 0 0 493.80 762.09
  L 508.52 763.36
  A 1.09 1.08 -84.7 0 0 509.70 762.37
  L 510.04 758.44
  A 0.81 0.81 0.0 0 0 509.30 757.56
  L 500.04 756.76
  A 0.65 0.65 0.0 0 1 499.45 756.06
  L 499.92 750.60
  A 0.54 0.54 0.0 0 1 500.47 750.11
  L 506.66 750.22
  A 0.69 0.68 -0.7 0 0 507.36 749.51
  Q 507.36 749.48 507.45 747.52
  Q 507.54 745.56 507.54 745.54
  A 0.69 0.68 6.0 0 0 506.91 744.76
  L 500.74 744.31
  A 0.54 0.54 0.0 0 1 500.23 743.77
  L 500.26 738.29
  A 0.65 0.65 0.0 0 1 500.91 737.65
  L 510.21 737.69
  A 0.81 0.81 0.0 0 0 511.03 736.89
  L 511.05 732.94
  A 1.09 1.08 90.0 0 0 509.96 731.85
  L 495.19 731.77
  A 0.72 0.71 -88.2 0 0 494.47 732.44
  Q 494.01 740.04 493.69 746.89
  Z"
/>
<path fill="#eeddc9" d="
  M 273.01 402.54
  A 3.69 3.69 0.0 0 1 268.76 404.80
  L 268.43 404.72
  A 2.76 2.76 0.0 0 1 266.45 401.08
  C 282.95 356.25 314.66 317.59 353.01 288.71
  Q 372.69 273.89 391.45 264.43
  Q 428.57 245.71 466.90 239.03
  C 524.93 228.92 583.40 238.76 635.90 266.36
  Q 719.59 310.35 756.92 396.32
  Q 759.64 402.60 762.40 411.48
  A 2.45 2.45 0.0 0 1 761.28 414.32
  L 759.70 415.24
  A 2.09 2.08 -24.8 0 1 756.70 414.14
  C 740.07 367.64 711.65 327.58 672.41 297.55
  Q 630.60 265.56 581.88 251.59
  C 513.98 232.14 439.33 242.05 378.58 279.20
  C 331.73 307.85 293.12 351.06 273.01 402.54
  Z"
/>
<path fill="#eeddc9" d="
  M 496.70 262.00
  L 497.92 286.68
  A 0.71 0.71 0.0 0 0 498.67 287.35
  L 507.45 286.92
  A 0.71 0.71 0.0 0 1 508.20 287.59
  L 508.40 291.78
  A 0.71 0.71 0.0 0 1 507.73 292.53
  L 492.50 293.28
  A 0.71 0.71 0.0 0 1 491.75 292.61
  L 490.25 262.32
  A 0.71 0.71 0.0 0 1 490.92 261.57
  L 495.95 261.33
  A 0.71 0.71 0.0 0 1 496.70 262.00
  Z"
/>
<path fill="#eeddc9" d="
  M 550.45 294.66
  A 0.79 0.79 0.0 0 1 549.62 295.66
  L 545.27 295.28
  A 1.40 1.38 84.5 0 1 544.05 294.26
  L 541.08 283.30
  A 0.95 0.93 1.9 0 0 540.46 282.65
  Q 539.60 282.37 538.46 282.41
  A 0.75 0.74 -86.7 0 0 537.75 283.05
  L 536.40 292.88
  A 0.74 0.73 -83.1 0 1 535.60 293.51
  L 530.65 293.09
  A 0.75 0.74 -83.4 0 1 529.98 292.24
  L 534.11 262.30
  A 0.80 0.79 -83.2 0 1 534.97 261.62
  Q 541.61 262.20 545.90 263.05
  Q 551.84 264.23 552.54 269.92
  Q 553.57 278.29 547.21 282.51
  A 0.07 0.06 72.1 0 0 547.18 282.58
  L 550.45 294.66
  Z
  M 539.26 268.91
  L 538.30 276.39
  A 0.74 0.74 0.0 0 0 538.94 277.22
  L 541.59 277.56
  A 3.93 3.48 7.3 0 0 545.93 274.61
  L 546.19 272.56
  A 3.93 3.48 7.3 0 0 542.74 268.61
  L 540.09 268.27
  A 0.74 0.74 0.0 0 0 539.26 268.91
  Z"
/>
<rect fill="#eeddc9" x="-3.18" y="-15.92" transform="translate(476.14,279.69) rotate(-9.2)" width="6.36" height="31.84" rx="0.86"/>
<path fill="#eeddc9" d="
  M 570.28 282.07
  L 576.77 283.51
  A 0.77 0.77 0.0 0 1 577.33 284.52
  L 576.03 288.20
  A 0.77 0.77 0.0 0 1 575.10 288.69
  L 568.56 286.89
  A 0.77 0.77 0.0 0 0 567.62 287.43
  L 566.08 293.05
  A 0.77 0.77 0.0 0 0 566.56 293.98
  L 575.56 297.17
  A 0.77 0.77 0.0 0 1 576.05 298.07
  L 575.32 301.37
  A 0.77 0.77 0.0 0 1 574.36 301.95
  L 559.29 297.81
  A 0.77 0.77 0.0 0 1 558.75 296.87
  L 566.67 267.97
  A 0.77 0.77 0.0 0 1 567.61 267.43
  L 582.01 271.38
  A 0.77 0.77 0.0 0 1 582.53 272.38
  L 581.10 276.42
  A 0.77 0.77 0.0 0 1 580.21 276.91
  L 571.84 275.05
  A 0.77 0.77 0.0 0 0 570.92 275.63
  L 569.70 281.15
  A 0.77 0.77 0.0 0 0 570.28 282.07
  Z"
/>
<path fill="#040303" d="
  M 539.26 268.91
  A 0.74 0.74 0.0 0 1 540.09 268.27
  L 542.74 268.61
  A 3.93 3.48 7.3 0 1 546.19 272.56
  L 545.93 274.61
  A 3.93 3.48 7.3 0 1 541.59 277.56
  L 538.94 277.22
  A 0.74 0.74 0.0 0 1 538.30 276.39
  L 539.26 268.91
  Z"
/>
<path fill="#eeddc9" d="
  M 455.18 294.37
  Q 453.02 294.99 452.62 295.18
  A 1.02 1.01 79.8 0 0 451.95 296.15
  L 452.04 300.89
  A 1.29 1.29 0.0 0 1 451.09 302.15
  L 447.27 303.19
  A 1.08 1.08 0.0 0 1 445.91 302.20
  L 444.40 271.89
  A 1.05 1.04 81.1 0 1 445.17 270.83
  Q 446.92 270.36 448.26 269.98
  Q 449.61 269.60 451.34 269.08
  A 1.05 1.04 67.2 0 1 452.55 269.58
  L 467.18 296.17
  A 1.08 1.08 0.0 0 1 466.55 297.72
  L 462.75 298.84
  A 1.29 1.29 0.0 0 1 461.28 298.27
  L 458.87 294.19
  A 1.02 1.01 68.5 0 0 457.78 293.71
  Q 457.35 293.76 455.18 294.37
  Z
  M 453.71 289.39
  Q 455.16 288.97 455.19 288.95
  A 0.52 0.47 -22.3 0 0 455.52 288.28
  L 450.55 278.39
  A 0.04 0.03 61.7 0 0 450.50 278.37
  Q 450.49 278.38 450.47 278.38
  Q 450.46 278.38 450.45 278.38
  A 0.04 0.03 85.5 0 0 450.41 278.43
  L 451.60 289.44
  A 0.52 0.47 -10.5 0 0 452.23 289.83
  Q 452.27 289.82 453.71 289.39
  Z"
/>
<path fill="#eeddc9" d="
  M 432.80 308.63
  Q 431.67 309.11 430.54 309.46
  A 0.73 0.73 0.0 0 1 429.66 309.06
  L 419.92 286.96
  A 0.83 0.82 65.8 0 0 418.83 286.54
  L 414.77 288.33
  A 1.15 1.14 -23.7 0 1 413.27 287.75
  L 411.87 284.56
  A 1.07 1.06 66.4 0 1 412.42 283.14
  Q 416.87 281.21 420.56 279.66
  Q 424.25 278.10 428.74 276.25
  A 1.07 1.06 67.8 0 1 430.13 276.85
  L 431.44 280.08
  A 1.15 1.14 -22.1 0 1 430.81 281.55
  L 426.70 283.22
  A 0.83 0.82 68.5 0 0 426.24 284.29
  L 435.29 306.68
  A 0.73 0.73 0.0 0 1 434.96 307.59
  Q 433.92 308.16 432.80 308.63
  Z"
/>
<path fill="#040303" d="
  M 450.47 278.38
  Q 450.49 278.38 450.50 278.37
  A 0.04 0.03 61.7 0 1 450.55 278.39
  L 455.52 288.28
  A 0.52 0.47 -22.3 0 1 455.19 288.95
  Q 455.16 288.97 453.71 289.39
  Q 452.27 289.82 452.23 289.83
  A 0.52 0.47 -10.5 0 1 451.60 289.44
  L 450.41 278.43
  A 0.04 0.03 85.5 0 1 450.45 278.38
  Q 450.46 278.38 450.47 278.38
  Z"
/>
<path fill="#eeddc9" d="
  M 603.30 303.01
  A 0.71 0.70 27.8 0 1 603.55 303.81
  C 601.18 310.79 595.68 311.85 589.70 308.27
  Q 583.16 304.36 585.62 296.39
  Q 587.25 291.11 590.10 284.89
  C 592.08 280.57 595.28 277.44 600.39 278.29
  C 606.58 279.32 612.25 283.66 609.08 290.69
  Q 607.64 293.88 604.18 292.01
  A 1.17 1.17 0.0 0 1 603.62 290.64
  Q 603.98 289.46 604.19 288.55
  C 604.70 286.35 602.13 284.87 600.31 284.72
  C 598.17 284.56 597.00 286.29 596.10 288.09
  Q 593.86 292.56 591.92 298.42
  C 591.38 300.05 590.79 302.44 592.60 303.46
  C 595.83 305.27 597.13 302.81 599.01 300.79
  A 0.80 0.80 0.0 0 1 600.07 300.68
  L 603.30 303.01
  Z"
/>
<rect fill="#eeddc9" x="-3.28" y="-15.46" transform="translate(618.64,303.90) rotate(29.0)" width="6.56" height="30.92" rx="0.53"/>
<path fill="#eeddc9" d="
  M 396.34 306.03
  A 0.14 0.14 0.0 0 0 396.59 305.94
  L 395.89 291.88
  A 0.25 0.25 0.0 0 1 396.02 291.66
  L 401.16 289.08
  A 0.07 0.07 0.0 0 1 401.26 289.14
  L 401.99 303.63
  A 1.19 1.19 0.0 0 0 402.49 304.56
  L 416.95 315.00
  A 0.26 0.26 0.0 0 1 416.93 315.43
  L 411.24 318.71
  A 0.36 0.35 -41.1 0 1 410.86 318.69
  Q 407.37 316.09 402.64 312.10
  Q 402.11 311.66 400.99 311.51
  A 0.96 0.95 80.2 0 0 400.02 312.89
  L 404.61 322.04
  A 0.94 0.94 0.0 0 1 404.31 323.24
  L 400.77 325.76
  A 0.92 0.91 -32.5 0 1 399.44 325.47
  L 384.47 299.55
  A 0.85 0.85 0.0 0 1 384.71 298.43
  L 388.01 296.08
  A 1.02 1.02 0.0 0 1 389.43 296.32
  L 396.34 306.03
  Z"
/>
<path fill="#eeddc9" d="
  M 635.36 319.84
  A 0.47 0.47 0.0 0 0 634.65 319.87
  L 628.73 327.25
  A 1.32 1.31 -53.8 0 1 626.99 327.52
  L 624.05 325.57
  A 0.89 0.89 0.0 0 1 623.80 324.33
  L 640.19 299.58
  A 0.42 0.42 0.0 0 1 640.73 299.44
  Q 646.38 302.38 650.02 304.92
  Q 654.32 307.92 653.74 312.92
  C 653.25 317.17 649.43 322.15 645.02 323.29
  Q 639.91 324.60 635.36 319.84
  Z
  M 642.67 307.59
  L 637.77 314.51
  A 0.22 0.22 0.0 0 0 637.83 314.81
  L 640.29 316.56
  A 3.76 3.29 35.3 0 0 645.26 316.05
  L 646.61 314.14
  A 3.76 3.29 35.3 0 0 645.45 309.28
  L 642.98 307.53
  A 0.22 0.22 0.0 0 0 642.67 307.59
  Z"
/>
<path fill="#040303" d="
  M 642.67 307.59
  A 0.22 0.22 0.0 0 1 642.98 307.53
  L 645.45 309.28
  A 3.76 3.29 35.3 0 1 646.61 314.14
  L 645.26 316.05
  A 3.76 3.29 35.3 0 1 640.29 316.56
  L 637.83 314.81
  A 0.22 0.22 0.0 0 1 637.77 314.51
  L 642.67 307.59
  Z"
/>
<path fill="#eeddc9" d="
  M 381.69 326.53
  A 0.88 0.88 0.0 0 1 382.00 325.19
  L 385.81 323.34
  A 1.15 1.15 0.0 0 1 387.31 323.81
  Q 392.98 333.78 383.49 339.26
  C 379.28 341.69 374.73 340.32 371.45 336.51
  Q 365.00 329.02 362.56 324.11
  Q 358.75 316.45 365.53 311.28
  C 370.87 307.21 375.64 309.33 379.07 314.50
  A 0.82 0.82 0.0 0 1 378.96 315.55
  L 376.43 317.98
  A 1.51 1.50 45.7 0 1 374.33 317.95
  L 371.98 315.61
  A 1.11 1.08 -18.1 0 0 371.35 315.30
  C 368.89 314.97 366.65 317.04 367.76 319.48
  Q 371.07 326.77 376.56 332.77
  Q 379.35 335.82 382.33 333.07
  C 384.13 331.41 382.85 327.86 381.69 326.53
  Z"
/>
<path fill="#eeddc9" d="
  M 666.34 396.56
  L 666.18 396.64
  A 3.57 3.56 -31.6 0 1 661.78 395.60
  Q 646.32 375.33 631.84 362.87
  C 588.84 325.87 531.27 310.90 475.64 322.24
  C 418.51 333.88 370.46 371.73 344.28 423.71
  A 3.48 3.47 -67.9 0 1 340.14 425.46
  L 339.99 425.41
  A 2.70 2.70 0.0 0 1 338.28 421.85
  Q 339.98 417.55 345.30 408.54
  C 369.21 368.02 406.80 337.58 451.13 322.42
  C 487.45 309.99 528.41 308.30 565.38 319.62
  C 606.88 332.33 642.30 357.46 667.30 392.84
  A 2.52 2.51 -30.6 0 1 666.34 396.56
  Z"
/>
<path fill="#eeddc9" d="
  M 673.98 333.13
  L 668.35 327.50
  A 1.36 1.36 0.0 0 0 666.42 327.50
  L 662.83 331.09
  A 1.18 1.17 -48.1 0 0 662.92 332.84
  L 667.68 336.66
  A 0.80 0.79 -51.5 0 1 667.80 337.77
  L 666.01 339.99
  A 1.46 1.46 0.0 0 1 663.95 340.21
  L 659.47 336.61
  A 1.02 1.02 0.0 0 0 658.12 336.69
  L 654.21 340.60
  A 1.02 1.02 0.0 0 0 654.29 342.12
  L 660.67 347.24
  A 1.32 1.32 0.0 0 1 660.78 349.20
  L 658.89 351.08
  A 1.61 1.60 -48.1 0 1 656.75 351.20
  L 645.61 342.25
  A 0.72 0.72 0.0 0 1 645.51 341.23
  Q 654.82 330.08 665.72 319.36
  A 0.76 0.75 41.6 0 1 666.72 319.31
  L 677.91 328.31
  A 1.46 1.46 0.0 0 1 678.03 330.48
  L 675.39 333.13
  A 1.00 1.00 0.0 0 1 673.98 333.13
  Z"
/>
<path fill="#eeddc9" d="
  M 363.7948 343.7626
  A 9.34 9.34 0.0 0 1 363.6795 356.9708
  L 362.9806 357.6577
  A 9.34 9.34 0.0 0 1 349.7723 357.5425
  L 339.6652 347.2574
  A 9.34 9.34 0.0 0 1 339.7805 334.0492
  L 340.4794 333.3623
  A 9.34 9.34 0.0 0 1 353.6877 333.4775
  L 363.7948 343.7626
  Z
  M 349.1953 337.5617
  A 3.49 3.49 0.0 0 0 344.2604 337.4756
  L 344.1021 337.6284
  A 3.49 3.49 0.0 0 0 344.0160 342.5633
  L 354.3247 353.2383
  A 3.49 3.49 0.0 0 0 359.2596 353.3244
  L 359.4179 353.1716
  A 3.49 3.49 0.0 0 0 359.5040 348.2367
  L 349.1953 337.5617
  Z"
/>
<rect fill="#040303" x="-3.60" y="-10.91" transform="translate(351.76,345.40) rotate(-44.0)" width="7.20" height="21.82" rx="3.49"/>
<path fill="#eeddc9" d="
  M 673.74 355.24
  A 0.52 0.52 0.0 0 1 673.96 356.14
  Q 671.42 358.34 672.60 360.57
  Q 674.12 363.43 676.92 362.34
  A 1.56 1.54 5.7 0 0 677.65 361.75
  Q 679.00 359.72 678.81 358.49
  C 677.90 352.40 675.78 345.66 682.67 342.19
  C 690.75 338.11 700.50 351.17 693.20 356.07
  A 1.39 1.37 -52.1 0 1 691.99 356.23
  Q 690.27 355.63 688.68 353.96
  A 0.61 0.61 0.0 0 1 688.68 353.12
  C 690.28 351.47 690.04 349.81 688.47 348.28
  Q 687.35 347.19 685.82 347.71
  C 682.12 348.96 685.47 356.37 685.42 359.25
  C 685.31 366.28 676.91 372.83 670.48 367.50
  C 666.27 364.01 662.76 356.11 670.35 353.65
  A 0.94 0.94 0.0 0 1 671.24 353.82
  Q 672.62 354.97 673.74 355.24
  Z"
/>
<path fill="#eeddc9" d="
  M 340.86 373.08
  A 2.42 2.42 0.0 0 0 340.82 370.72
  L 338.81 367.23
  A 0.76 0.75 52.2 0 1 338.92 366.32
  Q 340.24 364.96 341.71 364.37
  A 1.20 1.20 0.0 0 1 342.98 364.60
  Q 351.31 372.29 342.74 380.10
  C 338.66 383.81 333.61 382.09 329.17 378.82
  Q 322.58 373.98 317.81 368.54
  C 311.85 361.74 322.95 347.70 331.22 356.86
  A 1.67 1.66 -52.9 0 1 331.47 358.72
  Q 330.06 361.55 327.77 360.76
  C 325.08 359.82 323.73 360.10 322.50 362.37
  A 2.22 2.20 -53.9 0 0 322.90 365.01
  Q 328.23 370.18 332.92 373.51
  C 336.01 375.71 338.71 377.05 340.86 373.08
  Z"
/>
<path fill="#bbbc3e" d="
  M 400.63 424.63
  Q 402.31 427.13 404.80 430.47
  C 419.89 450.67 441.77 452.93 464.87 446.52
  C 468.18 445.60 474.30 444.02 473.91 439.93
  Q 473.45 435.20 470.90 432.59
  A 3.19 3.18 -30.3 0 0 467.71 431.76
  C 459.01 434.36 452.96 436.16 445.10 436.41
  C 430.67 436.87 418.93 429.72 412.74 416.42
  A 1.38 1.38 0.0 0 1 413.12 414.76
  Q 414.80 413.41 415.02 413.26
  C 446.15 392.33 478.17 374.87 512.75 364.77
  Q 529.91 359.76 545.48 358.82
  Q 551.36 358.46 557.17 359.76
  C 578.86 364.61 551.80 400.11 545.34 407.66
  Q 525.66 430.64 498.25 446.82
  C 467.68 464.85 427.66 473.45 399.30 445.73
  Q 393.35 439.91 389.79 432.55
  A 1.18 1.17 -30.7 0 1 390.17 431.08
  L 399.53 424.43
  A 0.78 0.77 -34.4 0 1 400.63 424.63
  Z"
/>
<ellipse fill="#eeddc9" cx="0.00" cy="0.00" transform="translate(702.72,382.94) rotate(-96.6)" rx="5.43" ry="5.07"/>
<ellipse fill="#eeddc9" cx="0.00" cy="0.00" transform="translate(309.04,400.27) rotate(-156.4)" rx="5.29" ry="4.97"/>
<path fill="#eeddc9" d="
  M 519.28 547.50
  A 0.33 0.33 0.0 0 0 518.70 547.23
  Q 509.15 559.55 495.78 563.99
  C 484.72 567.66 470.42 566.30 465.22 554.09
  A 0.37 0.37 0.0 0 0 464.59 554.01
  Q 463.67 555.22 461.64 557.88
  C 454.51 567.26 440.01 575.13 428.57 568.72
  C 417.57 562.56 420.86 545.43 424.47 535.66
  Q 428.60 524.48 434.72 512.72
  A 0.30 0.30 0.0 0 0 434.44 512.29
  L 422.21 512.90
  A 1.30 1.29 4.0 0 0 421.00 513.95
  C 416.87 535.24 411.73 562.27 391.98 575.43
  C 384.54 580.38 373.62 581.94 367.17 574.84
  Q 365.67 573.19 365.32 571.20
  A 0.46 0.46 0.0 0 0 364.49 571.01
  C 357.47 580.58 341.44 591.10 330.43 581.04
  C 324.18 575.33 323.21 563.74 323.90 555.20
  C 325.53 535.21 336.62 503.27 360.21 500.01
  Q 368.31 498.89 374.58 504.15
  A 0.49 0.49 0.0 0 0 375.35 503.96
  C 376.29 501.68 376.59 499.09 379.34 498.34
  C 383.23 497.28 394.09 493.73 392.13 502.33
  Q 390.06 511.39 381.26 551.51
  C 380.60 554.54 379.45 560.83 381.53 563.02
  C 385.09 566.78 391.00 560.99 393.09 558.02
  Q 400.34 547.71 403.37 535.62
  C 405.80 525.91 408.10 517.91 409.09 509.43
  A 1.70 1.70 0.0 0 0 408.42 507.86
  Q 405.55 505.72 404.97 503.66
  A 2.44 2.43 -47.1 0 1 404.93 502.55
  Q 406.40 494.95 407.88 492.67
  C 409.75 489.79 415.37 489.10 418.97 488.99
  Q 422.74 488.89 424.28 491.45
  A 1.53 1.50 36.2 0 1 424.46 492.53
  L 423.39 497.32
  A 0.74 0.73 9.5 0 0 424.03 498.21
  C 434.26 499.33 442.51 495.12 451.46 490.65
  C 454.61 489.08 456.06 493.55 456.71 495.55
  Q 458.22 500.20 455.26 505.45
  C 451.26 512.57 431.32 548.91 440.42 555.10
  C 443.22 557.00 448.08 555.12 450.26 553.23
  Q 456.26 548.01 461.22 539.45
  A 2.98 2.92 61.4 0 0 461.62 538.04
  Q 462.19 517.91 472.53 501.09
  C 479.46 489.83 492.47 480.68 505.99 482.14
  Q 516.63 483.29 518.45 494.00
  C 519.45 499.96 519.15 508.64 514.27 512.57
  C 511.25 515.01 505.12 516.59 501.82 513.52
  C 496.65 508.70 507.46 501.40 501.78 497.74
  Q 500.71 497.06 499.09 497.24
  C 491.43 498.12 486.14 506.12 483.36 512.74
  C 480.03 520.68 477.62 530.28 478.81 538.97
  C 479.97 547.37 485.94 551.76 494.20 550.14
  Q 498.92 549.22 502.15 547.14
  Q 512.61 540.41 520.12 530.62
  C 522.28 527.79 523.18 526.18 524.02 522.54
  Q 532.20 486.92 542.45 439.24
  Q 542.86 437.35 543.62 435.50
  A 1.12 1.10 3.7 0 1 544.37 434.85
  Q 552.75 432.64 556.70 432.77
  Q 559.53 432.86 560.04 436.04
  A 0.96 0.72 55.5 0 1 560.03 436.27
  L 549.54 483.32
  A 0.30 0.29 -15.6 0 0 550.03 483.59
  Q 552.06 481.70 556.68 478.67
  C 562.13 475.11 569.07 472.58 575.03 474.75
  C 585.36 478.49 583.91 490.17 582.02 499.27
  Q 579.22 512.81 574.98 531.24
  C 574.37 533.87 574.26 537.35 576.93 538.50
  C 583.71 541.44 591.30 529.62 593.40 524.85
  A 2.41 2.32 -36.3 0 0 593.60 523.69
  Q 591.98 500.53 605.78 481.28
  Q 613.66 470.27 625.73 466.03
  C 635.03 462.77 646.37 464.07 650.50 474.34
  C 654.75 484.89 650.33 497.43 643.08 505.65
  Q 631.04 519.31 612.62 522.60
  A 1.33 1.33 0.0 0 0 611.61 524.38
  Q 614.67 532.53 623.55 533.19
  C 636.37 534.15 648.16 524.93 655.03 514.49
  Q 657.91 510.12 658.85 506.33
  Q 661.16 497.08 663.32 487.10
  Q 672.00 446.98 678.52 418.57
  Q 678.85 417.14 680.06 416.05
  A 1.75 1.73 -70.9 0 1 680.89 415.64
  Q 687.74 414.47 690.49 414.24
  C 692.83 414.05 696.22 415.20 695.59 418.06
  Q 680.72 485.47 674.66 513.18
  Q 673.52 518.36 673.88 522.67
  C 674.38 528.74 681.49 526.22 684.18 523.90
  Q 689.72 519.14 694.03 511.68
  Q 696.50 507.41 698.42 498.15
  Q 698.48 497.89 717.37 412.35
  C 718.09 409.14 725.87 408.74 729.26 408.54
  Q 732.12 408.37 733.49 409.85
  Q 734.65 411.10 733.96 414.23
  Q 728.40 439.42 714.42 501.22
  Q 712.73 508.70 712.32 514.75
  C 711.96 520.13 715.67 522.82 720.75 521.21
  C 726.88 519.26 731.34 511.79 734.09 506.27
  A 1.83 1.79 59.0 0 0 734.28 505.46
  Q 734.20 482.46 746.81 464.36
  C 751.77 457.25 758.15 451.71 766.08 449.10
  C 777.27 445.41 788.33 447.63 795.89 456.96
  C 801.75 464.19 802.87 472.46 802.55 481.60
  A 0.56 0.55 -89.0 0 0 803.09 482.17
  Q 807.69 482.33 807.72 482.33
  C 819.82 483.01 830.70 490.11 833.42 502.29
  Q 837.22 519.30 827.56 534.25
  Q 820.53 545.13 810.46 551.68
  C 796.89 560.51 779.92 565.00 763.75 566.76
  C 649.48 579.20 596.73 584.73 512.69 595.16
  C 478.49 599.41 444.67 607.13 412.57 618.96
  Q 398.45 624.16 391.09 627.16
  Q 386.82 628.89 384.57 625.21
  Q 381.80 620.65 381.66 615.90
  A 2.39 2.38 -14.5 0 1 382.96 613.70
  Q 389.24 610.50 397.25 607.49
  Q 439.48 591.58 482.54 584.63
  Q 532.22 576.62 587.95 570.66
  Q 685.69 560.22 763.26 551.29
  C 782.21 549.10 804.91 543.86 814.85 525.51
  Q 817.95 519.80 818.57 514.80
  C 819.45 507.70 817.56 500.51 810.29 498.24
  Q 807.85 497.48 799.62 497.72
  A 0.84 0.84 0.0 0 0 798.84 498.29
  C 793.44 513.81 784.94 525.24 769.59 530.06
  C 758.19 533.65 745.42 531.31 739.32 520.19
  A 0.38 0.37 -43.8 0 0 738.67 520.18
  C 733.59 528.37 725.30 534.89 715.90 536.67
  C 707.19 538.31 699.58 535.57 697.32 526.55
  A 0.33 0.32 -34.8 0 0 696.73 526.45
  C 690.68 535.52 681.76 542.23 670.49 541.94
  C 663.38 541.76 658.49 537.62 657.30 530.73
  A 0.32 0.31 59.8 0 0 656.75 530.58
  Q 647.45 541.91 633.43 546.66
  C 622.43 550.39 608.11 549.57 600.83 539.71
  Q 599.86 538.40 599.12 537.68
  A 0.46 0.46 0.0 0 0 598.43 537.74
  Q 595.85 541.22 594.77 542.49
  Q 587.23 551.39 576.04 553.48
  C 561.70 556.16 554.76 547.08 557.76 533.51
  Q 563.85 505.98 565.11 499.59
  C 566.09 494.67 565.50 489.81 558.91 491.47
  C 550.87 493.50 544.92 505.98 543.16 513.20
  Q 538.92 530.51 535.32 550.02
  Q 534.97 551.89 534.03 554.71
  C 532.96 557.89 526.18 558.15 522.49 558.34
  Q 519.62 558.49 517.83 557.03
  A 1.21 1.18 -64.7 0 1 517.42 555.84
  L 519.28 547.50
  Z
  M 786.11 481.53
  C 787.06 475.56 786.19 465.57 778.93 463.97
  A 2.34 2.34 0.0 0 0 776.29 465.31
  Q 775.04 468.11 775.62 471.45
  Q 777.00 479.35 784.96 482.21
  A 0.87 0.86 -75.3 0 0 786.11 481.53
  Z
  M 762.09 469.91
  A 0.25 0.25 0.0 0 0 761.64 469.71
  Q 752.61 482.20 751.34 497.50
  C 750.65 505.90 752.95 515.50 762.99 515.68
  C 772.65 515.86 779.49 505.98 782.29 497.95
  A 0.53 0.52 16.0 0 0 781.90 497.26
  Q 769.48 494.56 763.98 483.28
  Q 760.72 476.59 762.09 469.91
  Z
  M 612.07 510.28
  Q 621.71 507.64 628.62 501.44
  C 631.84 498.55 636.22 492.33 636.57 487.12
  C 636.93 481.79 634.18 478.38 628.65 480.61
  C 618.56 484.66 612.76 499.76 611.50 509.79
  A 0.45 0.45 0.0 0 0 612.07 510.28
  Z
  M 343.63 539.54
  C 342.20 544.79 335.66 571.23 347.76 569.52
  C 357.53 568.13 363.38 553.96 365.60 545.78
  C 367.03 540.53 373.58 514.09 361.48 515.80
  C 351.71 517.19 345.86 531.36 343.63 539.54
  Z"
/>
<path fill="#eeddc9" d="
  M 301.89 515.35
  A 0.69 0.68 -38.7 0 0 301.78 516.31
  C 304.05 519.19 307.71 522.38 309.71 525.92
  C 320.19 544.43 314.60 566.82 301.68 583.07
  C 288.20 600.01 265.31 608.68 243.48 608.81
  C 219.21 608.95 192.02 594.74 191.03 567.31
  C 190.44 550.95 199.64 537.61 214.53 530.78
  A 2.02 2.02 0.0 0 1 217.12 531.60
  L 222.97 541.75
  A 2.01 2.01 0.0 0 1 222.37 544.41
  C 216.52 548.40 211.84 551.30 209.48 557.29
  C 202.96 573.80 215.31 587.08 230.70 591.06
  C 250.69 596.23 272.53 590.95 286.31 575.14
  C 292.71 567.80 297.24 559.96 297.99 550.25
  C 299.15 535.35 289.77 525.53 276.76 520.55
  C 274.66 519.74 274.29 518.58 274.33 516.25
  Q 274.40 512.37 275.96 508.57
  A 1.34 1.33 -82.9 0 1 277.00 507.75
  C 285.84 506.37 294.80 502.71 301.12 496.42
  C 312.54 485.05 315.78 465.89 303.26 453.24
  Q 292.37 442.23 276.97 441.66
  Q 251.45 440.70 233.99 458.45
  C 228.42 464.12 223.75 472.83 223.12 481.06
  Q 221.81 497.93 237.77 506.52
  A 1.69 1.68 -74.7 0 1 238.66 508.09
  Q 238.52 511.21 237.52 515.55
  C 236.46 520.19 234.36 521.51 229.90 520.09
  C 219.35 516.72 211.79 508.46 208.21 498.15
  C 201.72 479.44 209.50 459.69 223.52 446.18
  Q 243.00 427.40 271.25 426.18
  C 294.20 425.18 320.00 436.61 326.35 460.55
  C 331.61 480.35 324.03 499.13 307.75 510.98
  Q 303.26 514.24 301.89 515.35
  Z"
/>
<path fill="#eeddc9" d="
  M 279.97 462.72
  Q 279.49 465.41 279.33 466.03
  Q 261.14 539.30 254.23 567.70
  Q 253.32 571.48 249.90 572.12
  C 246.23 572.81 240.81 574.05 237.74 571.75
  C 235.93 570.40 236.60 568.79 237.12 566.67
  C 246.34 529.12 254.15 495.66 262.94 462.46
  Q 263.88 458.90 266.69 458.43
  C 270.73 457.74 277.61 457.35 279.83 461.73
  A 1.54 1.53 -53.2 0 1 279.97 462.72
  Z"
/>
<path fill="#040303" d="
  M 786.11 481.53
  A 0.87 0.86 -75.3 0 1 784.96 482.21
  Q 777.00 479.35 775.62 471.45
  Q 775.04 468.11 776.29 465.31
  A 2.34 2.34 0.0 0 1 778.93 463.97
  C 786.19 465.57 787.06 475.56 786.11 481.53
  Z"
/>
<path fill="#040303" d="
  M 762.09 469.91
  Q 760.72 476.59 763.98 483.28
  Q 769.48 494.56 781.90 497.26
  A 0.53 0.52 16.0 0 1 782.29 497.95
  C 779.49 505.98 772.65 515.86 762.99 515.68
  C 752.95 515.50 750.65 505.90 751.34 497.50
  Q 752.61 482.20 761.64 469.71
  A 0.25 0.25 0.0 0 1 762.09 469.91
  Z"
/>
<path fill="#040303" d="
  M 612.07 510.28
  A 0.45 0.45 0.0 0 1 611.50 509.79
  C 612.76 499.76 618.56 484.66 628.65 480.61
  C 634.18 478.38 636.93 481.79 636.57 487.12
  C 636.22 492.33 631.84 498.55 628.62 501.44
  Q 621.71 507.64 612.07 510.28
  Z"
/>
<path fill="#040303" d="
  M 365.60 545.78
  C 363.38 553.96 357.53 568.13 347.76 569.52
  C 335.66 571.23 342.20 544.79 343.63 539.54
  C 345.86 531.36 351.71 517.19 361.48 515.80
  C 373.58 514.09 367.03 540.53 365.60 545.78
  Z"
/>
<path fill="#eeddc9" d="
  M 269.73 625.53
  L 271.78 624.63
  A 2.04 2.03 67.0 0 1 274.49 625.73
  Q 287.72 658.44 311.36 686.88
  C 374.98 763.40 473.61 799.30 571.22 775.44
  Q 594.98 769.63 619.75 758.50
  Q 660.30 740.29 692.30 709.33
  Q 700.66 701.24 711.72 688.48
  C 722.88 675.61 733.42 659.92 741.83 643.15
  Q 754.50 617.91 761.58 591.83
  A 2.46 2.46 0.0 0 1 764.17 590.02
  L 766.65 590.24
  A 2.04 2.04 0.0 0 1 768.44 592.81
  Q 744.04 680.58 673.20 734.50
  C 623.60 772.26 560.25 792.66 498.27 789.11
  C 461.78 787.02 426.26 777.91 393.78 761.30
  C 375.36 751.89 357.85 740.50 342.10 727.19
  Q 304.28 695.23 280.29 653.00
  Q 276.10 645.64 268.63 628.33
  A 2.14 2.13 -23.7 0 1 269.73 625.53
  Z"
/>
<circle fill="#eeddc9" cx="722.08" cy="608.16" r="4.81"/>
<path fill="#eeddc9" d="
  M 679.39 606.38
  L 679.52 606.44
  A 2.62 2.61 25.7 0 1 680.78 610.04
  Q 671.41 628.05 659.25 642.26
  Q 625.08 682.21 575.14 700.64
  C 527.74 718.14 475.28 714.63 430.53 693.08
  C 412.66 684.47 397.72 673.75 383.17 660.81
  Q 370.52 649.56 357.52 631.73
  Q 353.55 626.28 352.88 624.47
  A 1.43 1.40 46.1 0 1 352.89 623.48
  C 354.03 620.66 357.20 620.89 358.86 623.19
  C 368.27 636.17 378.26 648.49 390.26 658.99
  Q 435.21 698.35 494.47 704.44
  C 511.76 706.22 530.19 705.01 546.56 702.08
  Q 564.29 698.92 581.87 691.35
  Q 642.86 665.09 675.51 607.66
  A 3.04 3.04 0.0 0 1 679.39 606.38
  Z"
/>
<ellipse fill="#eeddc9" cx="0.00" cy="0.00" transform="translate(314.48,631.75) rotate(-118.5)" rx="5.15" ry="4.91"/>
<path fill="#eeddc9" d="
  M 696.89 641.26
  L 691.47 633.64
  A 2.08 2.07 37.3 0 1 691.21 631.75
  L 692.73 627.47
  A 1.03 1.03 0.0 0 1 694.57 627.26
  Q 702.66 639.91 707.08 644.66
  Q 709.25 647.00 714.69 650.64
  A 0.63 0.62 33.8 0 1 714.87 651.50
  L 712.00 655.83
  A 0.69 0.69 0.0 0 1 711.00 656.00
  L 700.31 647.96
  A 1.51 1.48 -23.7 0 0 699.49 647.65
  Q 691.66 647.19 683.54 645.00
  A 0.88 0.88 0.0 0 1 683.04 643.67
  L 685.11 640.54
  A 1.41 1.41 0.0 0 1 686.47 639.93
  L 696.83 641.36
  A 0.06 0.06 0.0 0 0 696.89 641.26
  Z"
/>
<path fill="#eeddc9" d="
  M 723.84 645.90
  L 722.59 643.73
  A 0.92 0.87 -8.5 0 0 721.98 643.30
  C 719.44 642.81 715.07 640.97 717.54 637.58
  A 1.04 1.04 0.0 0 1 718.53 637.16
  Q 722.17 637.74 725.61 639.92
  A 0.95 0.94 -72.1 0 1 726.05 640.79
  Q 725.87 643.51 724.56 645.89
  A 0.41 0.41 0.0 0 1 723.84 645.90
  Z"
/>
<path fill="#eeddc9" d="
  M 345.42 651.76
  A 1.65 1.65 0.0 0 1 347.75 651.88
  L 352.27 656.90
  A 12.20 11.60 -42.0 0 1 350.97 673.68
  L 345.68 678.44
  A 12.20 11.60 -42.0 0 1 328.85 677.99
  L 324.33 672.97
  A 1.65 1.65 0.0 0 1 324.45 670.64
  L 345.42 651.76
  Z
  M 346.35 659.66
  L 332.18 672.16
  A 0.73 0.73 0.0 0 0 332.11 673.19
  L 332.85 674.03
  A 5.47 5.27 -41.4 0 0 340.44 674.37
  L 347.51 668.14
  A 5.47 5.27 -41.4 0 0 348.13 660.57
  L 347.38 659.73
  A 0.73 0.73 0.0 0 0 346.35 659.66
  Z"
/>
<path fill="#eeddc9" d="
  M 701.07 663.03
  A 0.28 0.27 -48.8 0 1 701.45 663.00
  L 704.95 665.81
  A 0.43 0.42 38.9 0 1 705.02 666.41
  L 695.08 678.79
  A 0.57 0.56 38.8 0 1 694.29 678.87
  L 671.01 660.17
  A 0.94 0.93 -40.1 0 1 671.15 658.62
  Q 672.52 657.86 673.22 656.14
  A 1.24 1.24 0.0 0 1 675.15 655.64
  L 693.44 670.32
  A 0.85 0.84 40.2 0 0 694.60 670.23
  L 701.07 663.03
  Z"
/>
<path fill="#040303" d="
  M 346.35 659.66
  A 0.73 0.73 0.0 0 1 347.38 659.73
  L 348.13 660.57
  A 5.47 5.27 -41.4 0 1 347.51 668.14
  L 340.44 674.37
  A 5.47 5.27 -41.4 0 1 332.85 674.03
  L 332.11 673.19
  A 0.73 0.73 0.0 0 1 332.18 672.16
  L 346.35 659.66
  Z"
/>
<path fill="#eeddc9" d="
  M 676.36 697.20
  L 655.09 674.99
  A 0.68 0.68 0.0 0 1 655.19 673.96
  L 659.46 670.93
  A 0.68 0.68 0.0 0 1 660.35 671.01
  L 677.09 688.50
  A 0.68 0.68 0.0 0 0 678.05 688.52
  L 683.45 683.35
  A 0.68 0.68 0.0 0 1 684.41 683.37
  L 687.26 686.34
  A 0.68 0.68 0.0 0 1 687.25 687.29
  L 677.33 697.21
  A 0.68 0.68 0.0 0 1 676.36 697.20
  Z"
/>
<path fill="#eeddc9" d="
  M 361.19 708.74
  A 0.41 0.40 32.1 0 1 360.57 708.88
  L 356.95 705.97
  A 0.65 0.65 0.0 0 1 356.74 705.26
  L 360.58 693.54
  A 0.70 0.61 -49.1 0 0 360.58 693.12
  L 360.20 692.10
  A 1.32 1.32 0.0 0 0 357.93 691.73
  L 351.53 699.70
  A 0.77 0.77 0.0 0 1 350.45 699.82
  L 346.50 696.65
  A 0.80 0.80 0.0 0 1 346.38 695.52
  L 364.94 672.41
  A 0.55 0.55 0.0 0 1 365.71 672.32
  C 371.14 676.57 375.11 679.22 377.43 683.29
  C 379.24 686.47 376.73 690.48 374.54 692.78
  Q 371.07 696.41 366.33 695.57
  A 0.39 0.39 0.0 0 0 365.89 695.86
  Q 364.17 702.66 361.19 708.74
  Z
  M 366.87 681.11
  L 362.82 686.62
  A 0.66 0.66 0.0 0 0 362.96 687.54
  L 363.89 688.22
  A 4.93 3.34 36.3 0 0 369.84 688.45
  L 370.71 687.26
  A 4.93 3.34 36.3 0 0 368.72 681.65
  L 367.79 680.97
  A 0.66 0.66 0.0 0 0 366.87 681.11
  Z"
/>
<path fill="#040303" d="
  M 366.87 681.11
  A 0.66 0.66 0.0 0 1 367.79 680.97
  L 368.72 681.65
  A 4.93 3.34 36.3 0 1 370.71 687.26
  L 369.84 688.45
  A 4.93 3.34 36.3 0 1 363.89 688.22
  L 362.96 687.54
  A 0.66 0.66 0.0 0 1 362.82 686.62
  L 366.87 681.11
  Z"
/>
<path fill="#eeddc9" d="
  M 660.39 712.41
  C 654.58 716.91 650.79 715.18 646.53 709.96
  Q 639.95 701.88 633.69 693.22
  A 0.97 0.97 0.0 0 1 633.91 691.86
  L 637.34 689.42
  A 1.02 1.01 53.4 0 1 638.73 689.63
  Q 645.53 698.41 652.01 706.73
  Q 654.44 709.84 656.92 707.92
  Q 659.40 706.00 657.00 702.87
  Q 650.59 694.50 643.81 685.71
  A 1.02 1.01 51.2 0 1 643.96 684.31
  L 647.18 681.60
  A 0.97 0.97 0.0 0 1 648.55 681.73
  Q 655.35 689.98 661.51 698.38
  C 665.49 703.82 666.21 707.92 660.39 712.41
  Z"
/>
<rect fill="#eeddc9" x="-3.13" y="-15.63" transform="translate(382.15,706.13) rotate(34.6)" width="6.26" height="31.26" rx="0.84"/>
<path fill="#eeddc9" d="
  M 633.18 729.92
  L 629.32 732.15
  A 0.95 0.95 0.0 0 1 628.03 731.80
  L 613.27 706.23
  A 0.95 0.95 0.0 0 1 613.61 704.94
  L 626.52 697.49
  A 0.95 0.95 0.0 0 1 627.81 697.83
  L 629.60 700.93
  A 0.95 0.95 0.0 0 1 629.25 702.22
  L 621.94 706.45
  A 0.95 0.95 0.0 0 0 621.59 707.74
  L 624.60 712.95
  A 0.95 0.95 0.0 0 0 625.89 713.30
  L 630.34 710.73
  A 0.95 0.95 0.0 0 1 631.51 710.90
  L 634.38 713.91
  A 0.95 0.95 0.0 0 1 634.17 715.39
  L 628.77 718.50
  A 0.95 0.95 0.0 0 0 628.43 719.80
  L 633.52 728.63
  A 0.95 0.95 0.0 0 1 633.18 729.92
  Z"
/>
<path fill="#eeddc9" d="
  M 401.27 715.16
  A 0.18 0.18 0.0 0 0 400.94 715.05
  L 392.81 729.71
  A 1.53 1.53 0.0 0 1 390.73 730.31
  L 387.79 728.68
  A 1.37 1.36 -61.0 0 1 387.26 726.82
  L 401.76 700.64
  A 0.35 0.35 0.0 0 1 402.26 700.52
  L 407.12 703.74
  A 0.63 0.60 -72.4 0 1 407.39 704.29
  L 406.34 722.04
  A 0.14 0.14 0.0 0 0 406.60 722.11
  L 413.56 708.22
  A 0.82 0.81 -63.3 0 1 414.66 707.85
  L 418.89 709.97
  A 0.85 0.84 27.9 0 1 419.26 711.14
  L 404.90 737.05
  A 0.74 0.74 0.0 0 1 403.93 737.35
  L 399.99 735.37
  A 0.72 0.72 0.0 0 1 399.59 734.65
  L 401.27 715.16
  Z"
/>
<rect fill="#eeddc9" x="-3.29" y="-15.91" transform="translate(607.50,725.55) rotate(-26.2)" width="6.58" height="31.82" rx="0.58"/>
<path fill="#eeddc9" d="
  M 430.75 727.27
  L 439.70 719.26
  A 0.62 0.62 0.0 0 1 440.33 719.14
  L 445.55 720.99
  A 0.17 0.17 0.0 0 1 445.61 721.27
  L 435.68 730.78
  A 1.95 1.94 65.5 0 0 435.09 732.37
  L 436.91 749.68
  A 0.82 0.82 0.0 0 1 435.82 750.53
  L 432.05 749.19
  A 2.01 2.00 -83.3 0 1 430.72 747.50
  L 429.44 735.30
  A 0.50 0.50 0.0 0 0 428.62 734.96
  C 426.59 736.66 424.62 742.29 423.68 744.66
  A 1.38 1.38 0.0 0 1 421.94 745.45
  L 418.79 744.33
  A 1.21 1.20 19.9 0 1 418.06 742.79
  L 427.93 715.00
  A 0.86 0.86 0.0 0 1 429.02 714.48
  L 432.84 715.84
  A 0.85 0.85 0.0 0 1 433.38 716.87
  L 430.56 727.15
  A 0.12 0.12 0.0 0 0 430.75 727.27
  Z"
/>
<path fill="#eeddc9" d="
  M 591.10 717.03
  L 592.39 720.93
  A 0.98 0.98 0.0 0 1 591.77 722.17
  L 587.34 723.64
  A 0.98 0.98 0.0 0 0 586.72 724.88
  L 594.24 747.58
  A 0.98 0.98 0.0 0 1 593.65 748.81
  L 589.65 750.29
  A 0.98 0.98 0.0 0 1 588.38 749.68
  L 580.91 727.13
  A 0.98 0.98 0.0 0 0 579.64 726.52
  L 575.62 728.00
  A 0.98 0.98 0.0 0 1 574.35 727.39
  L 573.10 723.62
  A 0.98 0.98 0.0 0 1 573.69 722.39
  L 589.83 716.42
  A 0.98 0.98 0.0 0 1 591.10 717.03
  Z"
/>
<path fill="#eeddc9" d="
  M 562.81 758.08
  C 555.24 759.88 552.22 756.41 550.59 749.40
  Q 549.61 745.16 546.19 729.83
  A 0.88 0.87 80.9 0 1 546.95 728.77
  L 551.50 728.30
  A 0.90 0.89 80.5 0 1 552.46 728.99
  Q 554.25 736.97 557.03 748.49
  Q 558.15 753.15 561.45 752.37
  Q 564.76 751.58 563.67 746.92
  Q 560.97 735.38 558.98 727.44
  A 0.90 0.89 72.8 0 1 559.53 726.39
  L 563.80 724.77
  A 0.88 0.87 72.4 0 1 564.96 725.38
  Q 568.79 740.61 569.82 744.84
  C 571.52 751.83 570.38 756.28 562.81 758.08
  Z"
/>
<path fill="#eeddc9" d="
  M 466.81 727.15
  A 0.31 0.29 8.4 0 1 467.16 726.90
  Q 475.02 728.35 478.52 729.20
  C 481.59 729.95 484.50 731.65 484.69 735.32
  Q 484.95 740.45 481.55 744.14
  A 0.69 0.68 48.7 0 0 481.50 745.01
  Q 485.21 750.13 482.61 755.36
  Q 480.64 759.33 475.61 759.35
  Q 470.12 759.38 463.38 757.93
  A 0.88 0.87 9.9 0 1 462.69 756.96
  L 466.81 727.15
  Z
  M 472.09 734.54
  L 471.35 739.73
  A 0.88 0.88 0.0 0 0 472.10 740.72
  L 474.74 741.10
  A 3.07 2.05 8.1 0 0 478.07 739.50
  L 478.48 736.63
  A 3.07 2.05 8.1 0 0 475.73 734.17
  L 473.09 733.79
  A 0.88 0.88 0.0 0 0 472.09 734.54
  Z
  M 470.65 746.63
  L 469.82 752.63
  A 0.66 0.66 0.0 0 0 470.38 753.37
  L 473.74 753.84
  A 2.67 2.30 7.9 0 0 476.70 751.93
  L 477.08 749.18
  A 2.67 2.30 7.9 0 0 474.75 746.53
  L 471.39 746.06
  A 0.66 0.66 0.0 0 0 470.65 746.63
  Z"
/>
<path fill="#eeddc9" d="
  M 530.70 755.99
  Q 528.25 756.21 527.79 756.26
  A 0.95 0.94 -89.0 0 0 526.97 757.06
  L 526.25 761.63
  A 1.39 1.39 0.0 0 1 524.94 762.81
  L 520.88 763.01
  A 0.96 0.96 0.0 0 1 519.88 761.90
  L 524.45 732.60
  A 1.22 1.21 -87.8 0 1 525.54 731.58
  Q 527.54 731.41 528.51 731.32
  Q 529.49 731.24 531.49 731.05
  A 1.22 1.21 77.7 0 1 532.74 731.87
  L 542.38 759.91
  A 0.96 0.96 0.0 0 1 541.59 761.18
  L 537.56 761.69
  A 1.39 1.39 0.0 0 1 536.06 760.76
  L 534.55 756.39
  A 0.95 0.94 78.9 0 0 533.61 755.75
  Q 533.15 755.77 530.70 755.99
  Z
  M 532.41 750.04
  Q 531.76 745.01 529.72 740.33
  A 0.45 0.45 0.0 0 0 528.85 740.47
  L 527.99 750.45
  A 0.37 0.36 -0.1 0 0 528.39 750.84
  L 532.09 750.45
  A 0.36 0.36 0.0 0 0 532.41 750.04
  Z"
/>
<path fill="#eeddc9" d="
  M 507.45 747.52
  Q 507.36 749.48 507.36 749.51
  A 0.69 0.68 -0.7 0 1 506.66 750.22
  L 500.47 750.11
  A 0.54 0.54 0.0 0 0 499.92 750.60
  L 499.45 756.06
  A 0.65 0.65 0.0 0 0 500.04 756.76
  L 509.30 757.56
  A 0.81 0.81 0.0 0 1 510.04 758.44
  L 509.70 762.37
  A 1.09 1.08 -84.7 0 1 508.52 763.36
  L 493.80 762.09
  A 0.72 0.71 -86.6 0 1 493.15 761.36
  Q 493.38 753.75 493.69 746.89
  Q 494.01 740.04 494.47 732.44
  A 0.72 0.71 -88.2 0 1 495.19 731.77
  L 509.96 731.85
  A 1.09 1.08 90.0 0 1 511.05 732.94
  L 511.03 736.89
  A 0.81 0.81 0.0 0 1 510.21 737.69
  L 500.91 737.65
  A 0.65 0.65 0.0 0 0 500.26 738.29
  L 500.23 743.77
  A 0.54 0.54 0.0 0 0 500.74 744.31
  L 506.91 744.76
  A 0.69 0.68 6.0 0 1 507.54 745.54
  Q 507.54 745.56 507.45 747.52
  Z"
/>
<path fill="#040303" d="
  M 472.09 734.54
  A 0.88 0.88 0.0 0 1 473.09 733.79
  L 475.73 734.17
  A 3.07 2.05 8.1 0 1 478.48 736.63
  L 478.07 739.50
  A 3.07 2.05 8.1 0 1 474.74 741.10
  L 472.10 740.72
  A 0.88 0.88 0.0 0 1 471.35 739.73
  L 472.09 734.54
  Z"
/>
<path fill="#040303" d="
  M 532.41 750.04
  A 0.36 0.36 0.0 0 1 532.09 750.45
  L 528.39 750.84
  A 0.37 0.36 -0.1 0 1 527.99 750.45
  L 528.85 740.47
  A 0.45 0.45 0.0 0 1 529.72 740.33
  Q 531.76 745.01 532.41 750.04
  Z"
/>
<path fill="#040303" d="
  M 470.65 746.63
  A 0.66 0.66 0.0 0 1 471.39 746.06
  L 474.75 746.53
  A 2.67 2.30 7.9 0 1 477.08 749.18
  L 476.70 751.93
  A 2.67 2.30 7.9 0 1 473.74 753.84
  L 470.38 753.37
  A 0.66 0.66 0.0 0 1 469.82 752.63
  L 470.65 746.63
  Z"
/>
</svg>
