<?xml version="1.0" encoding="utf-8"?>
<!-- Generator: Adobe Illustrator 28.1.0, SVG Export Plug-In . SVG Version: 6.00 Build 0)  -->
<svg version="1.1" id="Layer_1" xmlns="http://www.w3.org/2000/svg" xmlns:xlink="http://www.w3.org/1999/xlink" x="0px" y="0px"
	 viewBox="0 0 793.3 817.9" style="enable-background:new 0 0 793.3 817.9;" xml:space="preserve">
<style type="text/css">
	.st0{fill:#FAF0D7;}
	.st1{fill:#A9C03E;}
</style>
<path class="st0" d="M651.5,723.1c-56,48.5-125.2,80.7-198.4,91c-61.7,8.7-125.6,2.8-184-18.2C201.8,771.8,142.3,729.6,96,675.4
	C45.9,616.7,13.6,543.5,3.7,466.6c-5.2-40.8-4.9-81.6,1-122.7c11.7-81.4,49.8-158,105.1-217.7C167.5,64,241.6,22.2,324.7,6.8
	C387-4.6,448.4-1.7,508.9,15.7c68.8,19.8,130.9,60.5,178.7,114c51.2,57.3,86.9,130.6,99.7,206.6c6.4,37.7,7.7,76.1,4,115
	C781.4,555.6,731.1,654.1,651.5,723.1z M647,717.6c78.2-67.8,127.6-164.5,137.4-267c3.6-38.3,2.3-75.9-3.9-113
	c-12.6-74.7-47.7-146.8-98-203c-47-52.6-108-92.5-175.6-112c-59.5-17.1-119.8-20-181-8.7C244.3,28.9,171.4,70,114.7,131.2
	C60.4,189.8,22.9,265.1,11.5,345.1c-5.8,40.3-6.1,80.5-0.9,120.5c9.7,75.6,41.4,147.5,90.7,205.1c45.6,53.3,104,94.7,170.1,118.4
	c57.4,20.6,120.1,26.3,180.8,17.8C524,796.9,591.9,765.3,647,717.6z"/>
<path class="st0" d="M407,67.2l-0.1,4.9c0,0.4-0.3,0.8-0.8,0.8l-19.8,0.2c-0.3,0-0.6-0.2-0.6-0.6l0-31.1c0-0.3,0.2-0.5,0.5-0.5
	c0,0,0,0,0,0l6-0.1c0.3,0,0.5,0.2,0.5,0.5l0.1,24.6c0,0.4,0.3,0.8,0.8,0.8c0,0,0,0,0,0l12.5-0.3C406.6,66.5,407,66.8,407,67.2
	C407,67.2,407,67.2,407,67.2z"/>
<path class="st0" d="M356.5,43.2l5.9-0.7c0.3,0,0.6,0.2,0.7,0.5l3.4,31.1c0,0.3-0.2,0.6-0.5,0.7l-5.9,0.7c-0.3,0-0.6-0.2-0.7-0.5
	L356,43.8C355.9,43.5,356.2,43.2,356.5,43.2z"/>
<path class="st0" d="M474.4,81.5c0,0.1,0,0.1-0.1,0.1c0,0,0,0-0.1,0l-7.5-1.6c0,0-0.1,0-0.1-0.1l-4-11.3c-0.1-0.4-0.5-0.7-0.9-0.8
	l-2.9-0.6c-0.4-0.1-0.7,0.1-0.8,0.5c0,0,0,0,0,0l-2.1,9.7c-0.1,0.3-0.4,0.6-0.8,0.5l-5.7-1.2c-0.4-0.1-0.7-0.5-0.6-0.9l6.5-30.2
	c0-0.2,0.2-0.3,0.4-0.3c5.9,1.1,13.8,1.9,17.5,4.3c7.1,4.6,5.7,16.9-3.1,18.6c-0.2,0-0.3,0.2-0.2,0.4c0,0,0,0,0,0L474.4,81.5z
	 M460.6,53.4l-1.2,7.2c-0.1,0.4,0.2,0.9,0.7,0.9c0,0,0,0,0,0l5.5,0.9c2.4,0.4,4.7-1.1,5.1-3.5c0,0,0,0,0,0l0.1-0.3
	c0.4-2.3-1.3-4.6-3.7-5c0,0,0,0,0,0l-5.5-0.9C461.1,52.7,460.7,53,460.6,53.4C460.6,53.4,460.6,53.4,460.6,53.4z"/>
<path class="st0" d="M326,74.7c-3.4,0.7-5.3,1.1-5.6,1.2c-0.4,0.1-0.8,0.5-0.8,0.9l-0.8,5.2c-0.1,0.5-0.5,0.9-1,1l-5.7,1
	c-0.3,0-0.6-0.2-0.6-0.5c0-0.1,0-0.1,0-0.2l5.6-32.8c0-0.2,0.2-0.5,0.5-0.5c0.3-0.1,1.3-0.3,3.1-0.7c1.8-0.4,2.8-0.6,3.1-0.6
	c0.3,0,0.5,0.1,0.6,0.3l18.6,27.6c0.2,0.3,0.1,0.6-0.2,0.8c-0.1,0-0.1,0.1-0.2,0.1l-5.6,1.4c-0.5,0.1-1-0.1-1.3-0.5l-2.9-4.5
	c-0.2-0.4-0.7-0.6-1.1-0.5C331.3,73.6,329.4,74,326,74.7z M320.5,69c0,0.3,0.2,0.6,0.5,0.6c0.1,0,0.1,0,0.2,0l7.1-1.5
	c0.3-0.1,0.5-0.4,0.4-0.7c0-0.1,0-0.1-0.1-0.2l-5.5-8.9c-0.2-0.3-0.5-0.3-0.8-0.2c-0.1,0.1-0.2,0.2-0.3,0.4L320.5,69z"/>
<path class="st0" d="M514.9,77.1c-0.3,0.8-0.5,1.6-0.8,2.3c-0.1,0.3-0.4,0.5-0.7,0.4c0,0,0,0,0,0L501.9,76c-0.3-0.1-0.7,0.1-0.8,0.4
	c0,0,0,0,0,0l-1.7,5.1c-0.1,0.4,0.1,0.8,0.5,0.9l13.4,4.4c0.4,0.1,0.6,0.5,0.4,0.9c0,0,0,0,0,0l-1.5,4.6c-0.1,0.4-0.5,0.6-0.9,0.5
	L491,86.2c-0.3-0.1-0.4-0.4-0.3-0.7c1.7-5.2,3.3-10.1,4.8-14.8c1.5-4.7,3.2-9.6,4.9-14.8c0.1-0.3,0.4-0.4,0.7-0.3l20.2,6.6
	c0.4,0.1,0.6,0.5,0.5,0.9l-1.5,4.7c-0.1,0.4-0.5,0.6-0.9,0.4c0,0,0,0,0,0l-13.4-4.4c-0.4-0.1-0.8,0.1-0.9,0.5l-1.7,5.1
	c-0.1,0.3,0.1,0.7,0.4,0.8c0,0,0,0,0,0l11.5,3.8c0.3,0.1,0.5,0.4,0.4,0.7c0,0,0,0,0,0C515.4,75.5,515.2,76.3,514.9,77.1z"/>
<path class="st0" d="M290.2,91.3c-1.3,0.4-2.3,0.8-3,0.9c-0.2,0.1-0.4-0.1-0.5-0.3l-7.9-23.3c-0.1-0.4-0.6-0.6-1-0.5c0,0,0,0,0,0
	l-7.3,2.5c-0.4,0.1-0.8-0.1-1-0.5l-1.6-4.6c-0.2-0.5,0.1-1,0.6-1.1c0,0,0,0,0,0c0.3-0.1,4-1.4,11.1-3.8c7.1-2.4,10.8-3.7,11.1-3.8
	c0.5-0.2,1,0.1,1.2,0.5c0,0,0,0,0,0l1.5,4.6c0.1,0.4-0.1,0.8-0.5,1l-7.3,2.5c-0.4,0.1-0.6,0.6-0.5,1c0,0,0,0,0,0l8,23.3
	c0.1,0.2,0,0.4-0.2,0.5C292.5,90.5,291.5,90.9,290.2,91.3z"/>
<path class="st0" d="M228.5,83l5.8-2.7c0.2-0.1,0.4,0,0.4,0.2c0,0,0,0,0,0l5.4,11.4c0.1,0.2,0.3,0.2,0.5,0.1c0.1,0,0.1-0.1,0.2-0.2
	l3.9-16.6c0-0.1,0.1-0.2,0.2-0.2l6.7-3.2c0.2-0.1,0.4,0,0.5,0.2c0,0.1,0,0.2,0,0.2l-4.3,18.3c0,0.2,0,0.3,0.2,0.4l18.8,8.7
	c0.2,0.1,0.2,0.3,0.2,0.4c0,0.1-0.1,0.1-0.2,0.2l-7.1,3.4c-0.1,0-0.2,0-0.3,0l-14-6.4c-0.2-0.1-0.4,0-0.5,0.2c0,0,0,0.1,0,0.1
	l-0.7,3c0,0.1,0,0.2,0,0.2l4.1,8.7c0.1,0.2,0,0.4-0.2,0.4c0,0,0,0,0,0l-5.8,2.7c-0.2,0.1-0.4,0-0.4-0.2c0,0,0,0,0,0l-13.5-28.7
	C228.2,83.3,228.3,83.1,228.5,83C228.5,83,228.5,83,228.5,83z"/>
<path class="st0" d="M539.5,87.8c-4,8.3,3.7,17,12.1,13.4c0.7-0.3,1.6,0,1.9,0.8c0,0,0,0,0,0l1.6,3.8c0.3,0.7,0,1.5-0.8,1.8
	c0,0-0.1,0-0.1,0c-6.6,2-12.3,0.9-17.1-3.2c-5.9-5.1-7.4-12.8-4-19.8c3.4-6.9,10.4-10.6,18-9.1c6.3,1.2,10.7,5.1,13.1,11.5
	c0.3,0.7-0.1,1.5-0.8,1.8c0,0-0.1,0-0.1,0l-4,1.1c-0.8,0.2-1.6-0.2-1.8-1c0,0,0,0,0,0C555.1,80.2,543.5,79.5,539.5,87.8z"/>
<path class="st0" d="M584.1,93.6l4.8,3c0.3,0.2,0.4,0.6,0.2,0.9L573,123.4c-0.2,0.3-0.6,0.4-0.9,0.2l-4.8-3
	c-0.3-0.2-0.4-0.6-0.2-0.9l16.1-25.9C583.4,93.5,583.8,93.4,584.1,93.6z"/>
<path class="st0" d="M212.6,98.1c0.3,0.1,0.5,0.4,0.4,0.7l-1.3,5.6c-0.1,0.4-0.5,0.6-0.9,0.5c0,0,0,0,0,0
	c-6.3-1.6-11.6,1.8-12.6,8.1c-1.1,7,6.1,13.9,13.2,11c3.9-1.6,5.9-4.4,6.2-8.5c0-0.4,0.4-0.7,0.8-0.7l5.4,0.2c0.4,0,0.6,0.3,0.6,0.7
	c0,0,0,0,0,0c-0.6,6.2-3.4,10.7-8.3,13.5c-12.3,7.1-26.1-3.2-24.7-16.8C192.3,102.3,202.5,95.7,212.6,98.1z"/>
<path class="st0" d="M600.3,130.9c-0.3-0.2-0.7-0.2-1,0.1c0,0,0,0,0,0L594,138c-0.3,0.4-0.8,0.4-1.1,0.2c0,0,0,0,0,0l-4.3-3.3
	c-0.3-0.2-0.3-0.6-0.1-0.9c0,0,0,0,0,0l18.4-24.1c0.3-0.4,0.8-0.5,1.2-0.2c4.2,3,8.3,5.6,11.5,9.2c6.6,7.2,1,18.6-8.7,17.9
	C607.1,136.6,603.5,133.6,600.3,130.9z M608.6,119l-4.4,5.7c-0.3,0.4-0.3,1.1,0.2,1.4l3.9,3c2,1.6,4.8,1.3,6.3-0.7l0.3-0.3
	c1.5-1.9,1.1-4.7-0.9-6.3c0,0,0,0,0,0l-3.9-3C609.5,118.5,608.9,118.6,608.6,119z"/>
<path class="st0" d="M177.1,132.2c7.6,5.3,9.2,16,3.7,23.8c-5.5,7.8-16.1,9.8-23.7,4.5c-7.6-5.3-9.2-16-3.7-23.8
	S169.5,126.8,177.1,132.2z M164.7,136.5c-5.3,1.3-8.6,6.7-7.3,12.2l0,0c1.3,5.5,6.7,8.9,12,7.6l0,0c5.3-1.3,8.6-6.7,7.3-12.2v0
	C175.4,138.6,170.1,135.2,164.7,136.5C164.7,136.5,164.7,136.5,164.7,136.5z"/>
<path class="st0" d="M628.6,160.9l9.8,9.8c0.3,0.3,0.3,0.7,0,0.9c0,0,0,0,0,0l-3.5,3.5c-0.3,0.3-0.7,0.3-0.9,0c0,0,0,0,0,0
	l-14.8-14.8c-0.3-0.3-0.3-0.7,0-0.9c0,0,0,0,0,0l21.8-21.8c0.3-0.3,0.7-0.3,0.9,0c0,0,0,0,0,0l14.3,14.3c0.3,0.3,0.3,0.7,0,0.9
	c0,0,0,0,0,0l-3.6,3.6c-0.3,0.3-0.7,0.3-0.9,0c0,0,0,0,0,0l-9.6-9.6c-0.3-0.3-0.7-0.3-0.9,0c0,0,0,0,0,0l-3.7,3.7
	c-0.3,0.3-0.3,0.7,0,0.9c0,0,0,0,0,0l8.4,8.4c0.3,0.3,0.3,0.7,0,0.9c0,0,0,0,0,0l-3.4,3.4c-0.3,0.3-0.7,0.3-0.9,0c0,0,0,0,0,0
	l-8.2-8.2c-0.3-0.3-0.7-0.3-0.9,0c0,0,0,0,0,0l-4,4C628.4,160.3,628.4,160.7,628.6,160.9C628.6,160.9,628.6,160.9,628.6,160.9z"/>
<path class="st0" d="M128,189c2.9,2.3,6,2.8,9.4,1.5c5.1-1.9,7.3-5.8,6.5-11.6c-0.1-0.5,0.3-0.9,0.7-1l4.8-0.8
	c0.6-0.1,1.1,0.3,1.2,0.8c0,0,0,0,0,0c2.4,14.7-14.2,26.4-26.9,16.6c-12.6-9.9-5.2-28.8,9.6-30.1c0.6,0,1.1,0.4,1.1,0.9c0,0,0,0,0,0
	l0.3,4.8c0,0.5-0.3,0.9-0.8,1c-5.8,0.6-9,3.6-9.7,9.1C123.8,183.8,125.1,186.7,128,189z"/>
<path class="st0" d="M647.7,184c0-0.1,0.1-0.2,0.2-0.2l5.7-0.7c0.2,0,0.4,0.1,0.4,0.3c0,0,0,0,0,0.1c-0.1,5.3,1.1,8.8,3.8,10.6
	c3.8,2.6,6.4-1,4.8-4.6c-2.3-5.2-5.3-12.7,0.2-16.6c4.6-3.3,9.4-2,13.2,2c3.3,3.4,4.8,7.3,4.3,11.7c-0.1,0.5-0.5,0.9-1,0.9l-4.6-0.2
	c-0.4,0-0.8-0.4-0.8-0.8c0,0,0-0.1,0-0.1c0.5-2.6-0.2-5-2.2-7.1c-2.5-2.5-6.5-0.9-5.1,2.5c2.3,5.7,6.3,13.5-0.5,18.2
	c-4.2,2.9-9,2.2-12.8-1.3C649.2,195,647.3,190.1,647.7,184z"/>
<path class="st0" d="M436.9,406.7c0-0.2-0.1-0.3-0.2-0.3c-0.1,0-0.2,0-0.3,0.1c-4.2,6.6-8.8,12.5-13.9,17.7
	c-4.2,4.3-11.2,8.5-18.1,9c-8.9,0.6-15.9-5.1-18.5-13.6c-0.1-0.3-0.4-0.4-0.6-0.3c-0.1,0-0.2,0.1-0.3,0.2
	c-5,9.4-13.4,24.5-26.4,23.4c-13.1-1.1-13.2-18-11.4-27.3c2-10.6,5.4-22.1,10.4-34.6c0.7-1.8,1.2-3.3,1.5-4.6
	c0.2-0.8-0.3-1.6-1.1-1.7l-8-1.9c-0.4-0.1-0.7,0.1-0.8,0.5c-4.5,15.1-9.2,29.4-14,42.8c-2.9,8-6,15.6-9.3,22.6
	c-3.9,8.3-11.8,19.1-22.1,17.3c-5.8-1-9.3-6.6-9.8-12.2c0-0.3-0.3-0.5-0.5-0.4c-0.2,0-0.3,0.1-0.4,0.3c-3.1,6.6-7.2,13.7-13.6,18.1
	c-9.4,6.6-19.5,1.1-22.6-9c-2.6-8.1-2.2-15.7-0.8-24.5c0.2-1.5,0.3-2.9,0.2-4.4c-0.1-0.9-0.7-1.7-1.6-1.9c-3.6-0.8-7.3-1.1-11-0.8
	c-0.5,0-0.9,0.5-0.9,1c0,0.1,0,0.1,0,0.2c9.5,32.7-5.9,68.3-25.6,94.1c-0.1,0.2-0.1,0.4,0.1,0.6c0.1,0.1,0.3,0.1,0.4,0.1
	c22.9-9.5,47.5-18.4,73.6-26.6c48.5-15.2,100.2-27.3,155.1-36.2c7.8-1.3,12.5-2,13.9-2c0.2,0,0.4,0.1,0.5,0.3l4,12
	c0.1,0.2,0,0.3-0.2,0.4c0,0,0,0,0,0c-76.6,11.6-151.9,29.8-224.1,56.4c-13.3,4.9-30,12.1-40.4,16.2c-0.6,0.2-1.1,0.5-1.5,0.9
	c-2.4,2.1-4.3,3.8-5.7,5c-13.9,12.1-28.9,21.3-45.1,27.7c-16.7,6.6-41.5,11.1-56.2-2.7c-8.8-8.2-10.7-21.3-8.4-32.7
	c2.2-11.2,6.9-21.8,12.9-31.8c0.4-0.7,0.7-1.5,0.9-2.2c16-63.9,35-127.7,58.6-189.6c2.5-6.5,5.2-13.1,8.1-19.6
	c0.3-0.7,0.9-1.4,1.6-1.7c6.3-3.1,12.5-5,18.7-5.7c0.7-0.1,1.4,0.4,1.5,1.2c0,0.3,0,0.5-0.1,0.7c-6.7,14.3-12.8,28.7-18.3,43.4
	c-17.7,47.2-31.9,94.8-44.8,142.7c-0.1,0.2-0.1,0.4-0.1,0.5c0,0.1,0.2,0.2,0.3,0.2c0,0,0.1,0,0.1-0.1c23.1-21.6,50.2-39.1,80-49.6
	c6.9-2.5,13-4.1,18.2-5c0.4-0.1,0.6-0.4,0.5-0.8c0-0.1,0-0.1-0.1-0.2c-2-3.6-3.5-6.2-6.4-9c-6.5-6.1-14.7-9.7-24.4-10.9
	c-3.5-0.4-6.5-0.4-9,0c-11.3,1.8-17.3,2.8-17.8,2.9c-4.7,0.7-7.2-1.3-7.5-6.1c-0.2-3.3,1.5-5.5,5-6.7c5.4-1.8,14.8-3.5,21.3-6.3
	c20-8.6,37-22.9,50.2-39.8c11.8-15.2,21-33.5,21.8-52.6c0.4-9.3-2-21.8-8.4-29c-4.2-4.7-8.7-8-13.5-9.9c-7.4-2.9-15.2-4.4-23.4-4.4
	c-18.6,0-37.5,4.8-54.5,12.1c-32.8,14.3-61.8,36.5-81.7,66.2c-8.5,12.6-15,27.9-16.4,43.2c-0.8,9.2,1.6,19.5,8.5,25.7
	c4.2,3.8,10.8,5.9,17.2,4.9c2.2-0.3,3.4-0.5,3.6-0.6c0.9-0.1,1.8,0.6,1.9,1.5c0,0,0,0.1,0,0.1c0.2,3.4-0.7,5.7-2.4,7
	c-4.9,3.6-15.1,3.9-20.4,2.6c-8-2.1-14.2-6.3-18.7-12.8c-15-21.9-3.8-54.8,9-75.2c24.3-38.5,65.1-66.6,108-79.7
	c21.9-6.7,48.1-9.6,69.8-3.2c18.4,5.4,33,18,37.4,37.4c5.5,24-4.7,50.2-18.9,69.6c-13,17.8-29.4,31.8-49.4,42.2
	c-0.2,0.1-0.3,0.4-0.2,0.7c0.1,0.1,0.2,0.2,0.3,0.3c15.4,3.6,28.1,11.2,36.2,25c0.3,0.5,0.8,0.7,1.3,0.7c6-0.2,13-0.7,17,4.4
	c0.2,0.2,0.4,0.2,0.6,0.1c0,0,0,0,0,0c0.7-0.6,1.2-1.5,1.5-2.7c4.9-17.8,15.8-40.1,33.3-48.7c8.3-4.1,20-3.4,25,5.2
	c2.1,3.5,1.9,7-0.3,10.6c-0.6,1-1.8,1.6-2.9,1.5l-6.5-0.3c-0.4,0-0.8-0.3-0.8-0.8c-0.2-2.5-0.9-6.1-4-5.8
	c-7.4,0.7-13.9,11.4-17.1,17.1c-7.3,13.2-12.1,28.4-13.1,43.9c-0.2,3.3,0.2,12.6,5.9,9.3c1.3-0.8,2.7-2.2,4.2-4.5
	c4.8-7.2,8.1-15.9,11.4-25c3.1-8.7,5.2-18.4,8.4-27.1c0.3-0.7,0.9-1.2,1.6-1.3c4-0.8,10.3-0.9,13.9,1.6c0.7,0.5,1,1.4,0.7,2.2
	c-2.9,8.8-5.3,17.2-7.3,25.4c-1.7,7-2.5,13.5-2.4,19.4c0,1.3,0.6,2.3,1.9,3c0.3,0.2,0.7,0.2,1-0.1c1.6-1.3,2.7-2.5,3.4-3.6
	c6.5-10.9,10.6-22.1,15.4-36.5c3.8-11.5,7.2-22.3,10.2-32.4c0.1-0.4,0-0.9-0.3-1.1c-3.7-3.3-5.8-7.4-6.1-12.2
	c-0.7-9.9,3.1-24.5,14.4-25.8c15-1.8,7.4,22.5,5.3,29c-0.1,0.4,0.1,0.8,0.5,1c0,0,0.1,0,0.1,0c4.8,0.7,8.7,1.2,11.7,1.4
	c6.8,0.4,10.5,4.1,10.9,11.1c0.1,2-0.8,5.5-2.6,10.3c-5,13-8.5,24.9-10.5,35.6c-0.5,2.7-0.6,5.3-0.2,7.6c0.2,1.4,1.2,2.4,2.4,2.5
	c5.4,0.5,15-20.7,16.9-25.5c0.3-0.7,0.4-1.3,0.5-2c1.3-18.9,7.5-35.6,18.4-50.1c6.2-8.1,19.3-17.3,29.7-11.2c5,2.9,7,9.5,6.7,15
	c-0.4,6.2-3.1,16-9.7,18.2c-3,1-5.5,0.5-7.3-1.5c-0.6-0.7-0.8-1.6-0.5-2.4c2.5-6.1,5.2-11.1,4.8-16c-0.2-2.2-1.9-3.1-3.8-2
	c-6.9,3.7-12.8,16.8-15.3,23.5c-3.1,8.5-6,19.5-6.1,29.3c0,4.1,1,12.8,5.3,14.8c7.7,3.6,18.2-9.8,22.1-15.1
	c5.1-7.1,9.7-14.7,13.7-23c0.4-0.8,0.7-2,1-3.7c5.7-29.9,11.7-58,20.4-86.4c5-16.1,10.8-31.4,17.7-45.7c1.9-4.1,5.1-9.5,9.5-16.2
	c4.2-6.3,8.7-10.9,13.6-13.9c7-4.2,17-4.8,21.7,3.4c6.1,10.5,0.4,26.9-3.9,37.7c-4.1,10.3-9.3,20.7-15.4,31
	c-9.1,15.3-19.7,30.7-31.8,46.2c-2.2,2.8-4.4,5.4-6.4,7.6c-0.7,0.7-1.1,1.6-1.4,2.6c-1.1,4.8-1.8,7.6-2,8.5c-0.1,0.2,0,0.4,0.1,0.5
	c0.1,0.2,0.4,0.2,0.5,0.1c0,0,0.1-0.1,0.1-0.1c5.3-9.5,16-26.8,29-26c11.7,0.8,11.7,13.2,9.4,22.1c-3.8,14.4-9.2,30.6-13,46.2
	c-0.1,0.3,0.1,0.5,0.4,0.6c0.1,0,0.3,0,0.4-0.1c3.8-2.4,12.2-8.1,13-12.4c0.4-2,0.9-4.6,1.5-7.8c2-11,5.9-21.5,11.5-31.5
	c2.4-4.3,5.8-8.5,9.3-12.6c6.4-7.4,18.2-14.3,27.7-9.3c7.5,4,8.5,13.9,6.3,21.5c-1.7,5.6-3.5,9.9-7,14.6
	c-7.8,10.6-18.1,18.2-30.7,22.6c-0.5,0.2-0.8,0.6-0.9,1c-1,5.8-2,18.7,4.4,21.8c8.8,4.3,23.4-12.6,28.1-19
	c3.9-5.4,7.1-10.1,9.3-14.2c0.4-0.7,0.7-1.5,0.8-2.4c5.1-33.8,14.6-66.8,28.5-99.1c2.7-6.3,6.2-13.2,10.6-20.7
	c4.3-7.3,9.8-15.6,16.7-20.5c5.9-4.2,14.3-5.6,19.4,0.3c5.3,6.1,4.1,17.9,1.9,25.5c-2.2,7.6-4.4,14.2-6.8,19.8
	c-6.3,15-13.6,28.6-23.2,44.6c-8.7,14.5-17.8,27.9-27.4,40.2c-0.9,1.2-1.6,2.6-1.9,4.1c-2,9.5-3,18.8-3,27.7c0,0.8,0.3,2.2,0.8,4.5
	c2.4,10.4,13.3-0.2,16.4-3.8c6.1-7,11.5-14.7,16.4-23.1c0.4-0.7,0.7-1.5,0.9-2.3c6.7-32.7,16.9-65.4,31.4-95.6
	c6.6-13.9,12.8-24.7,21.2-35.1c4.2-5.2,10.7-10.6,17.7-10.6c13.4,0,14.1,16.1,11.7,25.3c-2.5,9.6-6.1,19.3-10.9,29.1
	c-7.6,15.4-16.4,30.3-26.4,44.9c-9.2,13.3-17.6,24.7-25.2,34.1c-0.6,0.7-1,1.5-1.2,2.3c-2.6,9.9-4,19-4.3,27.3
	c-0.1,3.5,0,8.4,3.9,9.8c7.4,2.7,21.9-19.7,24.8-24.6c0.3-0.5,0.5-1,0.6-1.5c2.5-12,7.2-23.4,14-34.2c3.5-5.5,7.6-9.7,12.4-12.6
	c0.7-0.4,1.2-0.9,1.7-1.6c4.4-6.4,10.7-10,18.3-9.1c6.7,0.8,11.5,4.9,13.9,11.1c2.6,6.7,2.6,13.1,2.1,20.3c0,0.4,0.3,0.8,0.7,0.8
	c0.1,0,0.3,0,0.4-0.1c9.9-4.7,17.9-12,24.6-20.8c0.6-0.7,1.6-1,2.4-0.5c6.2,3.4,2.4,8.9-0.7,12.7c-6.9,8.6-17.3,16.8-28.3,20.1
	c-0.5,0.1-0.9,0.6-1,1.1c-4,16.3-10.9,31.7-22.5,43.5c-7.4,7.6-18.8,12.6-28.9,6.7c-6.1-3.5-9.1-10.7-9.7-17.4
	c0-0.2-0.2-0.4-0.4-0.3c-0.1,0-0.2,0.1-0.3,0.1c-6.5,8.5-14.2,18.7-25.5,20.3c-5.7,0.8-10.4-1.1-14.2-5.6
	c-3.8-4.7-4.6-11.6-4.5-17.3c0-0.2-0.1-0.3-0.3-0.3c-0.1,0-0.2,0-0.2,0.1c-2.9,3.8-5.6,7.3-8,10.5c-5.9,7.8-17.6,17.9-28.2,14
	C565.6,407.9,563,398,563,389c0-0.2-0.2-0.4-0.4-0.4c-0.1,0-0.3,0.1-0.3,0.2c-5.3,7.1-10.6,14.5-17.3,19.6
	c-7.9,6-17.3,10.3-26.1,7.4c-8.7-2.9-12.8-10.1-14.2-18.8c-0.1-0.3-0.4-0.6-0.7-0.5c-0.1,0-0.3,0.1-0.4,0.2c-3.9,4.5-8,7.3-16.1,14
	c-0.2,0.1-0.3,0.3-0.4,0.5c-0.5,0.9-0.8,2.2-1.1,4.1c-2,12.5-2.2,23.8-0.6,33.8c1,5.7,3.3,11.3,7,16.8c7.1,10.4,20.8,16.7,33.2,20.1
	c14.8,4.1,29.2,5.5,45.3,6.2c10.8,0.5,23.3,0.1,37.5-1.3c11.7-1.1,23-3.5,33.7-7c6.2-2,24.5-9.8,17.6-19.6c-1.4-2-4.7-3.9-7.1-4.7
	c-13.3-4.5-27.6-5.3-42.3-5.6c-8.1-0.2-15.3-0.2-21.8,0c-29.1,1-58.9,3.2-89.3,6.8c-0.6,0.1-1.1-0.2-1.4-0.7
	c-1.9-3.4-3.3-7.1-4.2-10.9c-0.1-0.4,0.1-0.7,0.5-0.8c0.9-0.3,2.5-0.6,4.9-0.9c38.6-5.2,78.5-8.8,116.4-8.5c9.3,0.1,18,0.6,26.2,1.7
	c12.1,1.5,29.8,5.3,36.4,17.2c5.1,9.1,2,19.2-5.3,26c-5.2,4.8-11.4,8.5-18.7,11.1c-11.1,4-23.4,6.7-36.7,8.1
	c-27.5,2.9-55.3,1.7-83.3-3.7c-12.8-2.5-25.7-6.4-36.9-12.3c-18.9-10-28.8-25.8-29.7-47.5c-0.8-20.1,4.1-40.8,9.7-60.1
	c3.1-10.5,6-20.3,8.8-29.2c0.7-2.2,1-4.3,1-6.4c0-0.8-0.7-1.4-1.4-1.4c-0.1,0-0.2,0-0.2,0c-2.7,0.5-5.8,3.8-7.4,5.9
	c-13.2,17.8-21.2,39-24.9,61.1c-0.8,5-1.6,9.6-2.2,13.8c0,0.3-0.3,0.6-0.6,0.7c-4.4,1.3-10.6,3.3-14.7,1.8c-0.8-0.3-1.2-1-1.1-1.8
	L436.9,406.7z M471.5,319.8c0.2,0.1,0.3,0,0.5-0.3c10.5-15.4,19.7-30.9,27.4-46.5c3.6-7.2,6.6-13.9,8.9-19.9c3.1-8,5.9-16.1,5.6-24
	c-0.1-1-0.4-1.7-1.1-2c-0.7-0.3-1.4-0.1-2.2,0.5c-6.1,4.9-10.2,12.5-14.1,20.1c-2.9,5.8-5.9,12.4-8.9,19.9
	c-6.4,16.2-11.8,33.3-16.3,51.4C471.3,319.5,471.4,319.7,471.5,319.8z M639.2,333.3c7-10.2,13.8-21,20.2-32.5
	c8-14.2,14.3-27.2,18.9-39.1c2.5-6.4,5.8-15,4.7-21.3c-0.1-0.5-0.5-0.8-1-0.7c-0.1,0-0.1,0-0.2,0c-3.1,1.2-6.8,7.5-9.7,12
	c-2.5,3.9-5.2,8.8-8.1,14.8c-10.5,21.3-18.9,43.5-25.4,66.4c-0.1,0.2,0,0.3,0.2,0.4C639,333.5,639.1,333.5,639.2,333.3z M587.6,336
	c0.2,0.1,0.4-0.1,0.7-0.6c10.4-16.3,19.6-33,27.6-50.3c5.6-12.2,10.8-24.7,13.5-37.6c0.5-2.2,0.6-4.4,0.3-6.6
	c-0.1-0.5-0.2-0.8-0.6-0.9c-0.3-0.1-0.7-0.1-1,0.2c-1.8,1.4-3.3,3-4.6,4.8c-7.5,10.8-13.1,23.1-18.1,35.6
	c-7.1,17.7-13,35.9-17.8,54.6C587.4,335.6,587.4,335.9,587.6,336z M705.4,347.2c1.1-5.7,1.3-10.9,0.7-15.8c-0.5-3.7-2.4-7.9-6.7-5.2
	c-4.6,2.9-7.1,9.9-5.2,15.1c1.6,4.2,6.3,6.1,10.7,6.3C705.1,347.7,705.4,347.5,705.4,347.2z M524.5,367.9c-0.1,0.2,0.1,0.4,0.3,0.5
	c0.1,0,0.2,0,0.3,0c10.9-6.1,18.3-15,22.2-26.8c0.8-2.5,2.5-8.7-1.1-9.6c-0.3-0.1-0.7-0.1-1,0.1c-3.9,1.6-7.6,6.3-9.6,9.5
	C530.4,349.9,526.7,358.7,524.5,367.9z M684.2,346.4c-0.1-0.2-0.3-0.3-0.5-0.3c-0.1,0-0.2,0.1-0.2,0.2c-4.5,7.9-7.6,16.3-9.4,25.3
	c-1.2,6-2,10-1.8,15.2c0.1,3.8,1.4,9.5,6,9.7c4.4,0.1,10.6-7.8,12.7-11.3c5.1-8.4,9-17.3,11.6-26.7c0-0.1,0-0.3-0.2-0.3
	c0,0,0,0-0.1,0C694.3,357.7,687,354.3,684.2,346.4z M223.6,425.9c-0.4,0-1,0.2-1.9,0.5c-7.4,2.7-14.2,5.4-20.4,8.1
	c-13.5,5.8-26.5,13.3-39,22.5c-17.1,12.5-30.9,25.6-41.7,39.3c-11,14.1-20.2,29.9-21.4,47.9c-0.1,1.5,0,3.1,0.3,4.9
	c1.2,6.4,3.8,11.5,10.2,13.8c4.4,1.6,9.2,2,14.2,1c11.2-2.1,21.7-6.2,31.6-12.4c23.5-14.6,42.3-34.1,56.5-58.4
	c5-8.7,9.1-18.6,12.2-29.9c3.4-12.4,3.9-24.9,0.5-36.4C224.6,426.2,224.1,425.9,223.6,425.9z"/>
<circle class="st0" cx="732.7" cy="471.1" r="9.8"/>
<circle class="st0" cx="56.5" cy="477.5" r="9.9"/>
<path class="st1" d="M306.6,557.1c-3.9,5.2-3.4,9.8-0.6,16c4.8,10.5,11.1,19.5,19,26.9c3.8,3.5,7.9,4.5,12.4,3
	c2-0.7,4.4-2.6,7.2-5.6c4.2-4.6,11.4-12.1,21.6-22.4c9.9-10,17.8-19,26.6-27.4c1.3-1.3,2.3-2.9,3.1-4.9c1.3-3.5-2.7-5.1-5.4-4.9
	c-2.2,0.1-4.4,0.4-6.5,0.8c-0.1,0-0.3-0.1-0.3-0.2c0,0,0,0,0,0l0-0.3c0-0.1,0-0.1,0.1-0.1c0,0,0,0,0,0c3.2-0.7,6.1-1.8,8.6-3.4
	c0.9-0.6,1.2-1.7,0.8-2.7l-1.6-3.4c-0.2-0.4,0-0.8,0.4-1c0.1,0,0.1-0.1,0.2-0.1l27.1-3.6c0.4-0.1,0.8,0.2,0.9,0.6
	c0.6,2.2,1.6,3.9,3.2,5.3c2.1,1.9,7.9,2.3,10.5,2.3c3.7,0.1,9.1,0.2,16,0.5c0,0,0.1,0,0.1,0.1c0,0,0,0,0,0c0,0,0,0,0,0
	c0,0,0,0-0.1,0c-12.6,0.4-20.4,0.8-23.6,1.2c-0.7,0.1-1.3,0.6-2,1.5c-1.3,2-2.3,3.9,0,5.8c1.2,1,2.4,1.9,3.7,2.5
	c16.7,9.2,32.4,17.9,47,26.1c0.3,0.2,0.7,0.3,1,0.4l3.9,1.1c0,0,0.1,0,0.1,0c3.1,1.7,6.2,2.9,9.3,3.6c0.7,0.2,1.3-0.2,1.5-0.9
	c0-0.2,0.1-0.4,0-0.6l-0.1-0.3c-0.2-1.1-1-2-2.1-2.4c-4.6-1.4-7.5-2.5-8.7-3.2c-3.8-2.3-6.3-4.5-10-6.2c-5.7-2.7-11.6-6.8-17.5-10.2
	c-13.3-7.6-20-11.4-20.2-11.5c-0.2-0.1-0.3-0.3-0.4-0.6c-0.1-0.4,0-0.7,0.4-0.7c13.4-1.4,23.1-2.4,28.9-2.9
	c7.3-0.6,19.8,0.4,29.5,0.2c3.2-0.1,6.7,0.2,10.6,0.7c0.5,0.1,0.9,0.2,1.2,0.5c2.4,1.9,3.9,4.3,4.4,7.1c0.9,5.5,1,12.2-0.5,18.2
	c-1.5,6-2.6,10-3.2,12.1c-0.7,2.5-1.9,4.6-3.8,6.4c-0.6,0.6-1.4,0.9-2.2,0.8c-6.3-0.9-9.9-3.8-16.9-7.3c-3.7-1.8-6.9-3.6-9.6-5.2
	c-11.4-6.6-21.4-12.5-30.1-17.6c-0.2-0.1-1.2-0.5-3-1.2c-0.4-0.2-0.8-0.3-1.2-0.6c-4.2-2.4-8.2-4.5-12.1-6.3
	c-1.5-0.7-3.1-0.9-4.7-0.5c-0.3,0.1-0.6,0.3-0.8,0.6c-1.8,2.7,0,6.7,1.4,9.6c1.6,3.4,5,10.3,10.2,20.8c3.4,6.9,6.7,12.5,10,19.6
	c0.8,1.8,2.2,4.4,4.1,7.7c2.7,4.7,5.4,10.5,8.1,17.2c0,0,0,0.1,0,0.1l3.1,5.2c0.4,0.7,1.1,1.3,1.8,1.6c4.2,1.8,8.3,1.7,12.5-0.5
	c11.4-5.9,21.5-14.8,28.6-25.6c2.3-3.4,0.7-7.7-0.8-11.2c-0.1-0.2,0-0.5,0.3-0.6c0,0,0.1,0,0.1,0l5.7-0.7c0.6-0.1,1.1-0.3,1.5-0.7
	c0.7-0.6,1.5-1.8,2.3-3.6c4.1-8.9,6.2-17.8,6.3-26.6c0.1-7.8,1.7-14.1-5.7-19.4c-0.4-0.3-0.5-0.9-0.2-1.4c0,0,0-0.1,0.1-0.1l3.5-3.8
	c0.2-0.2,0.3-0.5,0.4-0.8c0.1-1.4-0.1-3.3-0.8-5.4c-1.3-4.4-2.9-8.4-4.9-11.9c-0.1-0.1,0-0.3,0.1-0.4c0,0,0.1,0,0.1,0l6.2-0.8
	c0.3,0,0.6,0.1,0.8,0.4c1.7,3.3,3.1,6.7,4.1,10.4c2.1,7.6,3.5,15,4.2,22.3c0.3,3,0.2,7.3-0.2,12.7c-1.4,17.7-7,33.2-16.7,46.8
	c-6.5,9.1-14.9,17-25.2,23.8c-6.2,4.1-13.9,7.9-23,11.2c-8.1,3-16.4,4.9-24.9,5.9c-24.4,2.9-47.6-0.5-69.5-10
	c-9.3-4-18.7-9.6-28.3-16.6c-4-2.9-7.8-7.1-11.9-10.5c-1.1-0.9-2.5-2.5-4.4-4.7c-8.6-10.1-15.1-19.3-19.4-27.8
	c-3.3-6.6-6.9-16-10.6-28c-0.3-0.9,0.2-1.8,1.1-2.1c0.1,0,0.2,0,0.3-0.1l5-0.7c0.8-0.1,1.6,0.4,1.8,1.3c1.3,5.6,4.8,9.2,10.5,10.7
	c0.2,0.1,0.3,0.3,0.3,0.4C306.6,557.1,306.6,557.1,306.6,557.1z M448.8,542.2c0.2,0.5,0.6,0.8,1.2,1c9.5,2.1,16.8,3.1,26.1,5.2
	c4.2,1,9.1,1.7,14.6,2.2c1.8,0.2,2.8-0.2,2.8-1.2c0-0.5-0.4-1-0.9-1.1l-43.4-6.9c-0.3,0-0.5,0.1-0.6,0.4c0,0.1,0,0.2,0,0.3
	L448.8,542.2z M405,548.6c0.1-2.5-3.1-3.8-5.1-3.9c-0.5,0-1.1,0.1-1.5,0.4c-2.3,1.6-4.3,3.3-6.1,5.3c-11.5,12.4-24.4,25.9-38.6,40.6
	c-3.9,4-7.9,8.9-11.1,12.9c-3.9,4.6-0.9,10.3,3.3,13.4c8.2,6,17.1,10.7,26.7,14c6.1,2.1,14.3,3.9,19.6-1.4c1.9-1.9,1.8-5.5,2.1-8.7
	c0-0.3,0.1-0.7,0.2-1c1.7-6.4,2.8-11.6,3.2-15.6c0.7-5.8,2-11,2.7-16c1.7-11.8,2.8-19.4,3.3-22.8C404.4,560.5,404.8,554.8,405,548.6
	z M408.8,547.7c-0.6,1-1.1,2.4-1.5,4.4c-2.1,12.1-3.5,22.2-5,32.6c-0.5,3.6-2.4,17-5.5,40c-0.4,2.8-0.3,4.7,0.1,5.8
	c2.1,5.1,5.6,7,11,7.8c11.5,1.7,22.1,0.5,33.3-2.3c5-1.3,7.3-2.5,10.1-6.7c1.4-2.1,1.1-5.6,0.2-7.5c-3.5-7.5-6.1-13.3-7.8-17.4
	c-2.9-6.8-6-11.7-8.7-17.9c-3.2-7.3-8-16.4-12.7-25.5c-1.2-2.3-2.2-4.4-3-6.4c-1.8-4.2-4.1-10-9.5-7.7
	C409.3,547.1,409,547.3,408.8,547.7z M490.1,561.2l0.5-1.5c0-0.1,0-0.2-0.1-0.2l-6.8-2.4c-6.7-2.3-12.2-3.8-12.4-3.3l0,0
	c-0.2,0.5,5.1,2.8,11.8,5.1l6.8,2.4C490,561.3,490.1,561.3,490.1,561.2z"/>
<path class="st1" d="M486.4,529.2c0.4,0.1,1.2-0.1,2.5-0.6c0.2-0.1,0.4-0.4,0.3-0.6c-0.1-0.1-0.2-0.2-0.3-0.3
	c-1-0.2-3.8-0.2-8.6,0.1c-6.1,0.4-11-0.4-16.3,0.1c-1.5,0.1-4.2,0.1-8.1-0.2c-6.8-0.5-14.6-0.7-23.3-0.5c-1.5,0-2.9-0.9-3.5-2.3
	l-0.2-0.4c-0.4-1,0.1-2,1.1-2.4c0.1-0.1,0.3-0.1,0.4-0.1l67.7-8.9c0.4-0.1,0.9,0.2,1,0.6c1.2,2.8,2.2,4.8,3,6.1
	c2,3.4,2.4,7.3,1.4,10.4c-0.1,0.4-0.5,0.6-0.8,0.6l-16.2-0.7c-0.2,0-0.3-0.1-0.3-0.3c0,0,0,0,0,0l0-0.3
	C486.1,529.3,486.2,529.2,486.4,529.2C486.3,529.2,486.4,529.2,486.4,529.2z M490.5,521.1c0-0.3-0.3-0.5-0.6-0.5c0,0,0,0,0,0
	l-13,1.2c-0.3,0-0.5,0.3-0.5,0.6c0,0,0,0,0,0l0,0c0,0.3,0.3,0.5,0.6,0.5c0,0,0,0,0,0l13-1.2C490.3,521.8,490.5,521.5,490.5,521.1
	C490.5,521.2,490.5,521.2,490.5,521.1L490.5,521.1z M471.5,522.6c0-0.3-4.1-0.1-9,0.6c0,0,0,0,0,0c-4.9,0.6-8.9,1.4-8.8,1.8
	c0,0,0,0,0,0c0,0.3,4.1,0.1,9-0.6c0,0,0,0,0,0C467.6,523.7,471.5,522.9,471.5,522.6L471.5,522.6z"/>
<path class="st1" d="M384,531.4l-0.1,1c-0.2,1.5-1.2,2.8-2.6,3.4c-2.7,1.1-4.8,1.7-6.1,2c-14.2,3.1-23,5.2-26.4,6.2
	c-1.7,0.5-5.6,1.4-11.8,2.8c-8.6,1.8-17.3,4.2-25.8,5.3c-4.9,0.6-7.5-4.1-8.1-8.1c-0.1-0.4,0.2-0.8,0.6-0.8l78.3-13.7
	c1-0.2,2,0.5,2.1,1.5C384,531,384,531.2,384,531.4z"/>
<path class="st1" d="M388,544.1c-2.8,3.5-5.4,6.5-7.9,8.9c-3.2,3.1-5.6,5.7-7.4,7.8c-1.1,1.3-3.6,3.9-7.5,7.6
	c-2.9,2.8-7.5,7.5-13.7,14c-3.8,3.9-7.8,7.1-11.7,11.2c-5.2,5.6-12,0.3-15.7-4.3c-3.9-4.9-7.3-10.4-10.1-16.6
	c-2.7-5.9-4.4-12,3.7-14.5c7.6-2.3,15.2-3.4,23-5.5c3.5-0.9,7.8-1.8,12.9-2.7c3.9-0.6,9.1-1.8,15.7-3.5c6.3-1.6,11.6-2.2,18.1-3.4
	c0.3-0.1,0.7,0.2,0.7,0.5C388.2,543.8,388.1,544,388,544.1z M326.2,566.6l0.8,2.2c0,0.1,0.2,0.2,0.3,0.2c0,0,0,0,0,0l11.1-4.3
	c7.8-3,13.9-6,13.7-6.7l-0.1-0.2c-0.2-0.7-6.8,1.2-14.6,4.3c0,0,0,0,0,0l-11.1,4.3C326.2,566.3,326.1,566.5,326.2,566.6z M334.9,580
	l18.2-11.7c0.1,0,0.1-0.1,0-0.1c0,0,0,0,0,0l0,0c-0.6-0.9-3.6,0-6.8,2c0,0,0,0,0,0l-6.9,4.5c-3.2,2-5.3,4.4-4.7,5.3l0,0
	C334.8,580,334.8,580,334.9,580C334.9,580,334.9,580,334.9,580z"/>
<path class="st1" d="M425.7,550.2c0-0.2,0.2-0.4,0.4-0.4c0.1,0,0.1,0,0.2,0.1c5.5,3.5,13,6.4,19,10.5c5.2,3.5,12,6.2,16.9,9.7
	c4,2.9,8.9,5.1,12.9,7.8c0.7,0.5,4.9,3.2,12.7,8.1c3.3,2.1,3.7,6.3,3.4,9.8c-0.6,6.8-16.7,18.2-22,21.2c-5.8,3.2-9.1,2.5-12.1-3.1
	c-2.5-4.5-4.3-8.1-5.6-10.7c-8-16.4-16.4-33-25-49.8C425.9,552.4,425.7,551.3,425.7,550.2z M436,561.2c-0.5,0.5,2.2,3.5,8.1,8.9
	c1.4,1.3,4.3,3.5,8.6,6.8c2.7,2.1,5.5,4.4,8.2,7.1c4.8,4.8,8.7,8.7,11.7,11.6c2.1,2.1,3.6,2.8,4.2,2c0.7-0.8-0.1-2.1-2.5-4
	c-3.3-2.6-7.6-6.1-12.9-10.3c-3-2.4-5.6-4.8-8-7.3c-3.7-3.9-6.3-6.5-7.7-7.7C439.7,563,436.5,560.6,436,561.2z M449.9,583
	c0.6,2.4,1.2,4,1.7,4.6c4,4.8,7.5,9.8,10.6,15c0.2,0.3,0.5,0.3,0.7,0.2c0.1-0.1,0.2-0.2,0.3-0.3l0.3-1.2c0.1-0.3,0-0.6-0.1-0.8
	c-2.6-4.3-5.8-8.9-9.6-13.8c-1.9-2.4-3-3.8-3.5-4c-0.1-0.1-0.3,0-0.4,0.1C449.9,582.9,449.9,583,449.9,583z"/>
<path class="st1" d="M399,552.9c0.2,0.4,0.3,1,0.2,1.7c-0.7,5.7-1.5,11-2.2,15.6c-3.2,20.5-4.9,31.3-5,32.3c-1,7.7-2,13.6-3.1,17.6
	c-1.4,5.2-5,7.1-10.9,5.6c-5.3-1.3-11.7-4-19.1-8.1c-4.7-2.6-10.9-5.9-10.7-11c0-1,1.2-2.8,3.5-5.3c7-7.5,11.3-12.1,12.7-13.7
	c3.9-4.5,9.1-9,12.4-13c2.3-2.7,4.1-4.7,5.5-6c4-3.7,6.4-7.4,10.6-11c1.4-1.2,3.1-2.9,5.1-5c0.2-0.2,0.6-0.2,0.9,0
	C398.9,552.8,398.9,552.9,399,552.9z M392.1,567.8c-0.5-0.3-1.8,1.2-2.8,3.2c0,0,0,0,0,0c-1,2-1.4,3.9-0.9,4.2c0,0,0,0,0,0
	c0.5,0.3,1.8-1.2,2.8-3.2c0,0,0,0,0,0C392.3,569.9,392.7,568,392.1,567.8C392.1,567.8,392.1,567.8,392.1,567.8z M372.3,593.7
	c-2.8,4.7-5.3,9.6-7.5,14.7c-0.2,0.4,0,0.9,0.4,1.1c0.1,0.1,0.3,0.1,0.4,0.1c0.2,0,0.4-0.1,0.6-0.4c0.8-0.7,1.8-2.2,3.1-4.5
	c1.7-3.3,3.5-6.5,5.4-9.6c1.9-3.1,3.8-6.2,5.9-9.3c1.4-2.1,2.3-3.7,2.5-4.8c0.1-0.3,0.1-0.5,0-0.7c-0.1-0.4-0.6-0.6-1-0.5
	c-0.1,0.1-0.3,0.2-0.4,0.3C378.2,584.4,375.1,589,372.3,593.7z M378.5,612.5l1.2,0.4c0.2,0.1,0.5-0.1,0.5-0.3l2.9-9.7
	c1.7-5.7,2.6-10.4,2.1-10.5c0,0,0,0,0,0l-0.2-0.1c-0.5-0.2-2.3,4.3-3.9,10c0,0,0,0,0,0l-2.9,9.7
	C378.2,612.2,378.3,612.4,378.5,612.5C378.5,612.5,378.5,612.5,378.5,612.5z"/>
<path class="st1" d="M413.3,556c1.8,3.2,3.2,5.8,4.2,8c6.3,12.7,9,18.8,15.5,31.3c3.9,7.5,7.6,15.1,11,22.7c1.5,3.3,2.4,7.7-1.4,9.5
	c-9.5,4.7-20.6,5-32.2,4.4c-4.2-0.2-8.2-3-7.9-7.6c0.4-5,1.5-13.5,3.3-25.4c2.7-17.6,4.7-31.6,6.1-42c0.1-0.5,0.3-0.9,0.5-1.1
	C412.8,555.7,413.1,555.7,413.3,556C413.3,555.9,413.3,556,413.3,556z M416.4,571.8c-0.1-0.5-0.6-0.9-1.1-0.8l0,0
	c-0.5,0.1-0.9,0.6-0.8,1.1v0l1.9,13.3c0.1,0.5,0.6,0.9,1.1,0.8l0,0c0.5-0.1,0.9-0.6,0.8-1.1l0,0L416.4,571.8z M423.3,593.3
	c-0.1,1,0,1.9,0.2,2.5c1.6,5.1,3.1,10.3,4.5,15.5c0.1,0.6,0.3,1.1,0.6,1.6c0.9,1.8,1.7,3.8,2.2,5.8c0.1,0.2,0.2,0.3,0.4,0.3l0.4,0
	c0.4,0,0.7-0.3,0.7-0.6c0,0,0-0.1,0-0.1c-1.6-8.8-4.5-17.1-8.8-25C423.5,593.2,423.4,593.2,423.3,593.3
	C423.3,593.3,423.3,593.3,423.3,593.3z M415.6,595c0-0.6-0.5-1.2-1.1-1.2l0,0c-0.6,0-1.2,0.5-1.2,1.1l-0.3,24.7
	c0,0.6,0.5,1.2,1.1,1.2l0,0c0.6,0,1.2-0.5,1.2-1.1L415.6,595z"/>
<path class="st1" d="M494.7,623.6c-25.7,32-65.7,47.7-106.4,45.1c-0.3,0-3.4-0.4-9.3-1.2c-3.5-0.5-6.6-1.1-9.1-1.8
	c-9.8-2.8-17.3-5.4-22.4-7.7c-1.5-0.7-4.8-2.5-10.1-5.5c-10.7-6.1-20.5-14.7-28-23.9c-3.3-4-6.6-8.9-10-14.5
	c-9.8-16.6-14.5-35.8-14.5-55.2c0-0.5,0-0.8,0.1-1c0.1-0.1,0.2-0.2,0.3-0.1c0.1,0,0.1,0.1,0.1,0.1c2.4,6.7,3.6,11.9,6.6,17.3
	c2.1,3.8,4.7,10.2,7.7,14.3c3.5,4.9,6.2,9.4,10.4,13.9c3.5,3.8,5.6,6.1,6.1,6.8c1.5,2,3.6,4.1,6.4,6.2c5.6,4.4,11.4,9.9,17.6,13.6
	c14.7,8.8,29.6,15.6,46.2,18.9c9.1,1.8,16.9,2.8,23.3,3c3.7,0.1,9.5-0.1,17.4-0.8c6.4-0.5,12.1-1.3,17.2-2.5
	c18.6-4.4,35.3-12.8,50.1-25.3c0,0,0.1,0,0.1,0C494.8,623.5,494.8,623.6,494.7,623.6z M288.1,573.4c-0.8,0.2-1.1,1.7-0.7,3.5v0
	c0.4,1.7,1.4,2.9,2.2,2.7c0,0,0,0,0,0c0.8-0.2,1.1-1.7,0.7-3.5S288.9,573.1,288.1,573.4C288.1,573.4,288.1,573.4,288.1,573.4z
	 M292.7,585.3c0.4-2.1-0.1-3.8-1.6-4.9c-0.3-0.2-0.7-0.2-0.9,0.1c-0.1,0.2-0.2,0.3-0.1,0.5c0.4,2.3,1.1,3.7,2,4.3
	c0.3,0.2,0.4,0.6,0.2,0.9c-0.4,0.6-1,1.1-1.1,1.9c-0.4,2.4,0.5,4,2.6,4.8c0.6,0.2,1.3-0.1,1.6-0.7c0-0.1,0.1-0.3,0.1-0.4
	c0-2.6-0.7-4.5-2.3-5.6C292.7,586,292.6,585.7,292.7,585.3z M299.3,594.2c-0.5,0.2-0.6,1.3-0.2,2.5c0,0,0,0,0,0
	c0.4,1.2,1.1,2,1.7,1.9s0.6-1.3,0.2-2.5l0,0C300.5,594.8,299.8,594,299.3,594.2z M295.1,597.2c-0.9,0.4-0.6,3.1,0.7,5.9
	s3,4.9,3.9,4.5s0.6-3.1-0.7-5.9C297.7,598.8,296,596.8,295.1,597.2z M302.9,600.8c-0.8,0.4-0.7,2.3,0.3,4.2c1,1.9,2.4,3.1,3.2,2.7
	c0,0,0,0,0,0c0.8-0.4,0.7-2.3-0.3-4.2l0,0C305.1,601.6,303.7,600.4,302.9,600.8C302.9,600.8,302.9,600.8,302.9,600.8z M315.8,619.5
	c0.4,0.2,0.8,0.1,1-0.3c0.1-0.3,0.1-0.6-0.1-0.8l-0.9-1.2c-0.2-0.2-0.3-0.5-0.3-0.8c-0.4-2.5-1.6-4.3-3.7-5.3c-0.4-0.2-1,0-1.2,0.4
	c-0.1,0.2-0.1,0.4-0.1,0.6C311.3,615.5,313,618,315.8,619.5z M303.3,612.1c-0.9,0.6-0.7,2.8,0.6,5c1.3,2.2,3.1,3.5,4.1,3l0,0
	c0.9-0.6,0.7-2.8-0.6-5l0,0C306.1,612.9,304.3,611.5,303.3,612.1C303.3,612.1,303.3,612.1,303.3,612.1z M320.4,624.3
	c0.3,0.6,0.8,1.1,1.4,1.5c0.4,0.3,1.1,0.1,1.4-0.4c0-0.1,0.1-0.1,0.1-0.2c0.5-1,0.5-1.9,0-2.7c-0.5-0.8-1.3-1.2-2.4-1.2
	c-0.6,0-1.1,0.4-1.2,0.9c0,0.1,0,0.1,0,0.2C319.9,623.1,320.1,623.7,320.4,624.3z M311.3,623.5c-1,0.6-1,2.5,0.1,4.3c0,0,0,0,0,0
	c1,1.8,2.7,2.7,3.7,2.1c0,0,0,0,0,0c1-0.6,1-2.5-0.1-4.3c0,0,0,0,0,0C313.9,623.8,312.3,622.9,311.3,623.5
	C311.3,623.5,311.3,623.5,311.3,623.5z M330.1,628c-0.6-0.7-1.6-0.8-2.4-0.2c0,0,0,0,0,0l-0.2,0.2c-0.7,0.6-0.8,1.6-0.2,2.4l0,0
	l1.2,1.4c0.6,0.7,1.6,0.8,2.4,0.2c0,0,0,0,0,0l0.2-0.2c0.7-0.6,0.8-1.6,0.2-2.4l0,0L330.1,628z M318.2,632.7
	c-0.4,1.9,0.5,3.3,2.7,4.3c0.8,0.3,1.8,0,2.1-0.8l0.2-0.3c0.4-0.9,0-2-0.9-2.5c0,0,0,0,0,0l-2.8-1.3c-0.5-0.2-1,0-1.2,0.5
	C318.3,632.6,318.2,632.6,318.2,632.7z M338.3,634.5c-0.6,0.5-0.4,1.5,0.3,2.4c0.7,0.8,1.7,1.1,2.3,0.7v0c0.6-0.5,0.4-1.5-0.3-2.4
	c0,0,0,0,0,0C339.8,634.4,338.8,634.1,338.3,634.5C338.3,634.5,338.3,634.5,338.3,634.5z M332.6,636l-1,1.1c-0.1,0.1-0.1,0.2,0,0.2
	l0.2,0.2c2.1,1.9,4,3.1,4.3,2.8l0.1-0.2c0.3-0.3-1.1-2.1-3.1-4c0,0,0,0,0,0l-0.2-0.2C332.8,636,332.7,636,332.6,636
	C332.6,636,332.6,636,332.6,636z M326.8,639.5c-0.8,0.7-0.5,2.4,0.7,3.8c1.2,1.4,2.8,1.9,3.6,1.2c0.8-0.7,0.5-2.4-0.7-3.8l0,0
	C329.2,639.3,327.6,638.8,326.8,639.5z M350.3,641.1l-3.3-0.2c-0.4,0-0.7,0.2-0.7,0.6c0,0,0,0,0,0l0,0.3c-0.1,1.6,0.8,3,2,3.1
	c0,0,0,0,0,0l0.2,0c1.2,0.1,2.3-1.1,2.4-2.7c0,0,0,0,0,0l0-0.3C350.9,641.4,350.7,641.1,350.3,641.1z M343.8,651.9
	c0.5-0.6,0.4-1.5-0.2-2c0,0,0,0,0,0l-5-4c-0.6-0.5-1.5-0.4-2,0.2l-0.1,0.1c-0.5,0.6-0.4,1.5,0.2,2c0,0,0,0,0,0l5,4
	C342.4,652.7,343.2,652.6,343.8,651.9L343.8,651.9z M357.4,647c-0.3,0.9,0.2,1.9,1.2,2.2c0,0,0,0,0,0c1,0.4,2,0,2.4-0.9c0,0,0,0,0,0
	c0.3-0.9-0.2-1.9-1.2-2.2c0,0,0,0,0,0C358.8,645.7,357.7,646.1,357.4,647C357.4,647,357.4,647,357.4,647z M348.8,652.3
	c-0.5,0.8,0.4,2.2,1.9,3.1l0,0c1.5,0.9,3.1,1,3.6,0.2c0,0,0,0,0,0c0.5-0.8-0.4-2.2-1.9-3.1l0,0C350.9,651.6,349.3,651.5,348.8,652.3
	C348.8,652.3,348.8,652.3,348.8,652.3z M375,653c0-0.8-0.6-1.4-1.3-1.4c0,0,0,0,0,0l-1.2,0c-0.8,0-1.4,0.6-1.4,1.3l0,0l0,0.3
	c0,0.8,0.6,1.4,1.3,1.4c0,0,0,0,0,0l1.2,0c0.8,0,1.4-0.6,1.4-1.3l0,0L375,653z M392.3,656.4c-0.1,0.6,0.6,1.2,1.4,1.3c0,0,0,0,0,0
	c0.9,0.1,1.7-0.3,1.8-0.9c0,0,0,0,0,0c0.1-0.6-0.6-1.2-1.4-1.3C393.2,655.4,392.4,655.8,392.3,656.4z M407.5,657.3
	c0,0.5,0.6,1,1.4,1c0,0,0,0,0,0c0.8,0.1,1.5-0.3,1.5-0.8s-0.6-1-1.4-1c0,0,0,0,0,0C408.2,656.4,407.5,656.7,407.5,657.3z
	 M358.7,657.7c-0.3,1,0.8,2.2,2.4,2.7c0,0,0,0,0,0c1.6,0.5,3.2,0.1,3.5-0.9c0.3-1-0.8-2.2-2.4-2.7c0,0,0,0,0,0
	C360.6,656.3,359,656.7,358.7,657.7z M366.7,659.8c-0.2,0.6,0.5,1.4,1.5,1.8c1.1,0.4,2.1,0.2,2.3-0.4c0.2-0.6-0.5-1.4-1.5-1.8
	C368,659,366.9,659.2,366.7,659.8z M375.7,662.1c-0.1,0.9,1,1.8,2.5,2c1.5,0.2,2.9-0.3,3-1.2c0.1-0.9-1-1.8-2.5-2
	C377.2,660.7,375.8,661.3,375.7,662.1L375.7,662.1z M405,663.4c-0.2-0.6-1.2-0.7-2.2-0.3v0c-1,0.4-1.6,1.2-1.3,1.8
	c0.2,0.6,1.2,0.7,2.2,0.3l0,0C404.7,664.8,405.3,664,405,663.4L405,663.4z M392.7,664.2c0-0.5-0.4-0.9-0.9-0.9h0l-1.4,0.1
	c-0.5,0-0.9,0.4-0.9,0.9l0,0.1c0,0.5,0.4,0.9,0.9,0.9h0l1.4-0.1c0.5,0,0.9-0.4,0.9-0.9L392.7,664.2z"/>
<path class="st0" d="M655.1,620.2l13.2,1.5c0.2,0,0.4-0.1,0.4-0.3c0-0.1,0-0.1,0-0.2l-5.2-12.5c0-0.1,0-0.3,0-0.4l4-5.2
	c0.1-0.2,0.3-0.2,0.5-0.1c0.1,0,0.1,0.1,0.1,0.2l8.2,19.5c0,0.1,0.1,0.1,0.1,0.2l9.5,7.2c0.2,0.1,0.2,0.3,0.1,0.5c0,0,0,0,0,0
	l-3.8,5c-0.1,0.2-0.3,0.2-0.5,0.1c0,0,0,0,0,0l-9.3-7.1c-0.1,0-0.1-0.1-0.2-0.1l-21.6-1.6c-0.2,0-0.3-0.2-0.3-0.4
	c0-0.1,0-0.1,0.1-0.2l4.6-6C654.8,620.3,655,620.2,655.1,620.2z"/>
<path class="st0" d="M132.2,609.7c0.3-0.2,0.7-0.2,1,0.1c0,0,0,0,0,0l7.8,9.8c5.5,6.9,4.5,16.9-2.4,22.4l-0.2,0.2
	c-6.8,5.5-16.8,4.3-22.4-2.7c0,0,0,0,0,0l-7.8-9.8c-0.2-0.3-0.2-0.7,0.1-1c0,0,0,0,0,0L132.2,609.7z M131.6,619l-14.1,11.3
	c-0.3,0.2-0.3,0.6-0.1,0.9l3.3,4.1c3.1,3.9,8.9,4.5,12.9,1.3c0,0,0,0,0,0l0.7-0.6c4-3.2,4.7-9,1.5-12.9c0,0,0,0,0,0l-3.3-4.1
	C132.3,618.8,131.9,618.8,131.6,619C131.6,619,131.6,619,131.6,619z"/>
<path class="st0" d="M655.5,666.9l-22.1-20.2c-0.3-0.2-0.3-0.7,0-0.9c0,0,0,0,0,0l3.8-4.1c0.2-0.3,0.7-0.3,0.9,0c0,0,0,0,0,0
	l17.5,16c0.3,0.2,0.7,0.2,0.9,0c0,0,0,0,0,0l8.4-9.1c0.2-0.3,0.7-0.3,0.9,0c0,0,0,0,0,0l3.6,3.3c0.3,0.2,0.3,0.7,0,0.9c0,0,0,0,0,0
	l-13,14.2C656.2,667.1,655.7,667.1,655.5,666.9C655.5,666.9,655.5,666.9,655.5,666.9z"/>
<path class="st0" d="M158.2,684.9c0,0.1-0.1,0.1-0.1,0.1c0,0,0,0-0.1,0l-5.4-5.4c0,0,0-0.1,0-0.1l2.7-11.7c0.1-0.4,0-0.9-0.3-1.2
	l-2.1-2.1c-0.2-0.3-0.7-0.3-0.9,0c0,0,0,0,0,0l-7,7c-0.2,0.3-0.7,0.3-0.9,0c0,0,0,0,0,0l-4.1-4.1c-0.3-0.3-0.3-0.8,0-1.1
	c0,0,0,0,0,0l21.7-21.7c0.1-0.1,0.4-0.1,0.5,0c4.3,4.1,10.4,9,12.3,13c3.5,7.7-4.3,17.2-12.7,13.9c-0.2-0.1-0.3,0-0.4,0.2
	c0,0,0,0,0,0L158.2,684.9z M161.8,654l-4.6,5c-0.3,0.4-0.3,0.9,0.1,1.3l4.3,3.9c1.7,1.6,4.4,1.6,5.9-0.1c0,0,0,0,0,0l0.3-0.4
	c1.5-1.7,1.3-4.3-0.4-5.9c0,0,0,0,0,0l-4.3-3.9C162.7,653.6,162.1,653.7,161.8,654z"/>
<path class="st0" d="M640.2,675.4l3.1,3.7c0.3,0.3,0.2,0.8-0.1,1.1l-14.3,13c-0.2,0.2-0.6,0.2-0.8,0c0,0,0,0,0,0l-20.1-22.8
	c-0.2-0.2-0.2-0.5,0-0.7l4.4-4c0.2-0.2,0.5-0.2,0.7,0l15.9,17.9c0.3,0.3,0.8,0.4,1.1,0.1c0,0,0,0,0,0l9-8.3
	C639.5,675.1,639.9,675.1,640.2,675.4C640.2,675.4,640.2,675.4,640.2,675.4z"/>
<path class="st0" d="M193.1,672.9l4.7,3.7c0.2,0.2,0.3,0.5,0.1,0.7l-19,24.1c-0.2,0.2-0.5,0.3-0.7,0.1l-4.7-3.7
	c-0.2-0.2-0.3-0.5-0.1-0.7l19-24.1C192.5,672.8,192.9,672.7,193.1,672.9z"/>
<path class="st0" d="M577.9,692.9c0.2-0.1,0.4,0,0.6,0.1c5.3,7.8,8.1,11.8,8.3,12.2c2,3.1,3.7,5,5.1,5.5c4.2,1.5,9.5-1.9,9-6.8
	c-0.1-1.1-1-2.8-2.6-5.2c-3.8-5.6-6.8-10-9.2-13.2c-0.2-0.3-0.1-0.6,0.1-0.8l4.6-3.5c0.2-0.2,0.6-0.1,0.8,0.1c0,0,0,0,0,0
	c3.7,5.3,7.2,10.3,10.4,15c6,8.6,1.3,18.2-7.9,21.3c-5.4,1.8-9.9,0.4-13.2-4.4c-3.7-5.1-7.4-10.7-11.3-16.5c-0.2-0.3-0.1-0.8,0.2-1
	c0,0,0,0,0.1,0L577.9,692.9z"/>
<path class="st0" d="M213,709.4c-0.1-2-0.3-4.3-0.5-6.8c0-0.2-0.2-0.3-0.3-0.3c-0.1,0-0.2,0.1-0.2,0.1l-10,15.9
	c-0.1,0.2-0.4,0.3-0.6,0.2c0,0,0,0,0,0l-5.1-3.2c-0.3-0.2-0.3-0.5-0.2-0.8l16.3-25.9c0.2-0.3,0.5-0.4,0.8-0.2c0,0,0,0,0,0l4.4,2.7
	c0.4,0.3,0.7,0.7,0.7,1.2c0.5,5.7,0.8,11.2,1.1,16.6c0.1,2,0.3,4.3,0.5,6.9c0,0.2,0.2,0.3,0.3,0.3c0.1,0,0.2-0.1,0.2-0.1l10-15.9
	c0.1-0.2,0.4-0.3,0.6-0.2c0,0,0,0,0,0l5,3.2c0.3,0.2,0.3,0.5,0.2,0.8L220,729.7c-0.2,0.3-0.5,0.4-0.8,0.2c0,0,0,0,0,0l-4.4-2.7
	c-0.4-0.3-0.7-0.7-0.7-1.2C213.6,720.3,213.2,714.7,213,709.4z"/>
<path class="st0" d="M548.9,717.3l2.8,5.4c0.1,0.3,0.5,0.4,0.7,0.2c0,0,0,0,0,0l10.9-5.7c0.3-0.1,0.6,0,0.7,0.2c0,0,0,0,0,0l2.2,4.6
	c0.1,0.3,0,0.6-0.2,0.7l-10.5,5.5c-0.3,0.1-0.4,0.4-0.2,0.7l4.8,10.1c0.1,0.3,0,0.6-0.2,0.7l-5.1,2.7c-0.3,0.1-0.6,0-0.7-0.2
	c0,0,0,0,0,0L539.8,715c-0.1-0.3,0-0.6,0.2-0.7c0,0,0,0,0,0l18.7-9.8c0.3-0.1,0.6,0,0.7,0.2c0,0,0,0,0,0l2.4,4.6
	c0.1,0.3,0,0.6-0.2,0.7c0,0,0,0,0,0l-12.5,6.5C548.9,716.7,548.8,717,548.9,717.3C548.9,717.3,548.9,717.3,548.9,717.3z"/>
<path class="st0" d="M264,752.1c0,0.1,0,0.2-0.2,0.2c0,0-0.1,0-0.1,0l-7.2-3.3c-0.1,0-0.2-0.1-0.2-0.2l-3.9-15.3
	c-0.1-0.3-0.4-0.4-0.6-0.4c0,0,0,0,0,0c-1.6,0.5-2.6,1.5-3.3,2.9c-1.1,2.5-2.1,4.8-3,6.9c-0.1,0.4-0.6,0.5-0.9,0.4c0,0,0,0,0,0
	l-5.5-2.5c-0.3-0.1-0.4-0.4-0.2-0.7l12.8-27.7c0.2-0.4,0.7-0.6,1.1-0.4l4.8,2.2c0.5,0.2,0.7,0.8,0.5,1.3c0,0,0,0,0,0l-4.8,10.4
	c-0.1,0.2,0,0.4,0.2,0.5c0.1,0,0.2,0,0.3,0l14.9-7c0.1-0.1,0.2-0.1,0.4,0l7.3,3.4c0.1,0,0.1,0.1,0.1,0.2c0,0,0,0.1-0.1,0.1
	l-16.3,7.7c-0.5,0.2-0.8,0.8-0.6,1.3L264,752.1z"/>
<path class="st0" d="M517.6,724.1l5-1.9c0.4-0.1,0.8,0,0.9,0.4l10.8,28.3c0.1,0.4,0,0.8-0.4,0.9l-5,1.9c-0.4,0.1-0.8,0-0.9-0.4
	L517.2,725C517.1,724.7,517.3,724.2,517.6,724.1z"/>
<path class="st0" d="M490.4,733.5c7.1-2.1,10.8-3.2,11.2-3.2c0.5-0.1,1,0.1,1.1,0.6c0,0,0,0,0,0l1.3,4.6c0.1,0.4-0.1,0.8-0.5,0.9
	c0,0,0,0,0,0l-7.3,2.1c-0.4,0.1-0.6,0.5-0.5,0.9l6.9,23.3c0.1,0.2-0.1,0.4-0.3,0.5c-0.7,0.3-1.7,0.6-3,1c-1.3,0.4-2.3,0.6-3,0.8
	c-0.2,0-0.4-0.1-0.5-0.3l-6.7-23.4c-0.1-0.4-0.5-0.6-0.9-0.5c0,0,0,0,0,0l-7.3,2.1c-0.4,0.1-0.8-0.1-0.9-0.5c0,0,0,0,0,0l-1.3-4.6
	c-0.1-0.5,0.1-1,0.6-1.1c0,0,0,0,0,0C479.5,736.7,483.3,735.6,490.4,733.5z"/>
<path class="st0" d="M332,755.8c2.8,2.2,3.3,6.2,1.9,9.3c-2.8,6.2-9,6.1-15,4.6c-3.1-0.8-6.8-1.7-10.9-2.6c-0.3-0.1-0.5-0.4-0.4-0.7
	c0,0,0,0,0,0l7.1-30c0.1-0.3,0.4-0.5,0.7-0.5c3.8,0.8,8.2,1.8,13.2,3c7.8,1.9,10.9,11.2,3.4,15.8c-0.3,0.2-0.4,0.5-0.2,0.8
	C331.9,755.7,331.9,755.7,332,755.8z M320,743.8l-1.2,5.3c-0.1,0.4,0.1,0.7,0.5,0.8c0,0,0,0,0,0l5.5,1.3c2,0.5,4-0.6,4.4-2.3
	c0,0,0,0,0,0l0.1-0.3c0.4-1.7-0.9-3.5-3-4c0,0,0,0,0,0l-5.6-1.3C320.4,743.3,320,743.5,320,743.8z M317.2,756.2l-1.2,5.4
	c-0.1,0.5,0.2,0.9,0.7,1c0,0,0,0,0,0l6.3,1.4c2.3,0.5,4.5-0.7,4.9-2.6c0,0,0,0,0,0l0-0.1c0.4-1.9-1.1-3.9-3.4-4.4l-6.3-1.4
	C317.8,755.4,317.3,755.7,317.2,756.2C317.2,756.2,317.2,756.2,317.2,756.2z"/>
<path class="st0" d="M456.1,774.6c-8.1,1.3-14.4-2.9-15.6-11.1c-0.9-6.1-1.8-12.1-2.8-18.2c-0.1-0.4,0.2-0.7,0.6-0.8c0,0,0,0,0,0
	l5.4-0.7c0.4,0,0.7,0.2,0.8,0.6c2.1,12.6,3.2,19,3.3,19.3c0.9,3.5,3.9,5,7.3,4.4c3.4-0.6,5.8-2.9,5.5-6.5c0-0.3-1-6.7-3.1-19.3
	c-0.1-0.4,0.2-0.7,0.5-0.8l5.3-1c0.4-0.1,0.7,0.2,0.8,0.5c0,0,0,0,0,0c1,6.1,2.1,12.1,3.2,18.1C468.7,767.2,464.2,773.2,456.1,774.6
	z"/>
<path class="st0" d="M353.9,759.7c0.4-4.9,0.9-10,1.5-15.4c0-0.3,0.3-0.5,0.6-0.5l21.1,1.9c0.4,0,0.7,0.4,0.7,0.8l-0.4,4.9
	c0,0.4-0.4,0.7-0.7,0.6c0,0,0,0,0,0l-14-1.2c-0.4,0-0.7,0.3-0.8,0.7c0,0,0,0,0,0l-0.5,5.3c0,0.4,0.2,0.7,0.6,0.7l12,1.1
	c0.3,0,0.5,0.3,0.5,0.6c0,0,0,0,0,0c-0.1,0.8-0.1,1.6-0.2,2.5c-0.1,0.8-0.2,1.6-0.2,2.5c0,0.3-0.3,0.5-0.6,0.5c0,0,0,0,0,0l-12-1.1
	c-0.4,0-0.7,0.2-0.7,0.6c0,0,0,0,0,0l-0.5,5.3c0,0.4,0.3,0.7,0.6,0.8l14,1.3c0.4,0,0.7,0.3,0.6,0.7c0,0,0,0,0,0l-0.5,4.9
	c0,0.4-0.4,0.7-0.8,0.7c0,0,0,0,0,0l-21.1-1.9c-0.3,0-0.5-0.3-0.5-0.6C353,769.8,353.4,764.6,353.9,759.7z"/>
<path class="st0" d="M407.7,746c1.8-0.1,2.9-0.1,3.2,0c0.2,0,0.5,0.2,0.6,0.4l13.4,30.4c0.1,0.3,0,0.6-0.3,0.7c-0.1,0-0.1,0-0.2,0
	l-5.8,0.4c-0.5,0-1-0.2-1.2-0.7l-2.1-4.9c-0.2-0.4-0.6-0.7-1-0.7c-0.4,0-2.3,0.1-5.7,0.2c-3.5,0.1-5.4,0.2-5.7,0.2
	c-0.5,0-0.8,0.3-1,0.8l-1.7,5c-0.2,0.5-0.6,0.8-1.1,0.8l-5.8,0c-0.3,0-0.5-0.3-0.5-0.6c0-0.1,0-0.1,0-0.2l11.3-31.2
	c0.1-0.2,0.3-0.4,0.5-0.5C404.8,746.2,405.8,746.1,407.7,746z M404.4,765.3c-0.1,0.2,0.1,0.5,0.3,0.5c0,0,0.1,0,0.2,0l7.1-0.3
	c0.2,0,0.4-0.2,0.4-0.4c0,0,0-0.1,0-0.1l-3.9-9.8c-0.1-0.2-0.3-0.3-0.6-0.2c-0.1,0-0.2,0.1-0.3,0.3L404.4,765.3z"/>
</svg>
